  0
SECTION
  2
HEADER
  9
$ACADVER
  1
AC1024
  9
$ACADMAINTVER
 70
6
  9
$DWGCODEPAGE
  3
ANSI_1252
  9
$LASTSAVEDBY
  1
ezdxf
  9
$INSBASE
 10
0.0
 20
0.0
 30
0.0
  9
$EXTMIN
 10
1e+20
 20
1e+20
 30
1e+20
  9
$EXTMAX
 10
-1e+20
 20
-1e+20
 30
-1e+20
  9
$LIMMIN
 10
0.0
 20
0.0
  9
$LIMMAX
 10
420.0
 20
297.0
  9
$ORTHOMODE
 70
0
  9
$REGENMODE
 70
1
  9
$FILLMODE
 70
1
  9
$QTEXTMODE
 70
0
  9
$MIRRTEXT
 70
1
  9
$LTSCALE
 40
1.0
  9
$ATTMODE
 70
1
  9
$TEXTSIZE
 40
2.5
  9
$TRACEWID
 40
1.0
  9
$TEXTSTYLE
  7
Standard
  9
$CLAYER
  8
0
  9
$CELTYPE
  6
ByLayer
  9
$CECOLOR
 62
256
  9
$CELTSCALE
 40
1.0
  9
$DISPSILH
 70
0
  9
$DIMSCALE
 40
1.0
  9
$DIMASZ
 40
2.5
  9
$DIMEXO
 40
0.625
  9
$DIMDLI
 40
3.75
  9
$DIMRND
 40
0.0
  9
$DIMDLE
 40
0.0
  9
$DIMEXE
 40
1.25
  9
$DIMTP
 40
0.0
  9
$DIMTM
 40
0.0
  9
$DIMTXT
 40
2.5
  9
$DIMCEN
 40
2.5
  9
$DIMTSZ
 40
0.0
  9
$DIMTOL
 70
0
  9
$DIMLIM
 70
0
  9
$DIMTIH
 70
0
  9
$DIMTOH
 70
0
  9
$DIMSE1
 70
0
  9
$DIMSE2
 70
0
  9
$DIMTAD
 70
1
  9
$DIMZIN
 70
8
  9
$DIMBLK
  1

  9
$DIMASO
 70
1
  9
$DIMSHO
 70
1
  9
$DIMPOST
  1

  9
$DIMAPOST
  1

  9
$DIMALT
 70
0
  9
$DIMALTD
 70
3
  9
$DIMALTF
 40
0.03937007874
  9
$DIMLFAC
 40
1.0
  9
$DIMTOFL
 70
1
  9
$DIMTVP
 40
0.0
  9
$DIMTIX
 70
0
  9
$DIMSOXD
 70
0
  9
$DIMSAH
 70
0
  9
$DIMBLK1
  1

  9
$DIMBLK2
  1

  9
$DIMSTYLE
  2
ISO-25
  9
$DIMCLRD
 70
0
  9
$DIMCLRE
 70
0
  9
$DIMCLRT
 70
0
  9
$DIMTFAC
 40
1.0
  9
$DIMGAP
 40
0.625
  9
$DIMJUST
 70
0
  9
$DIMSD1
 70
0
  9
$DIMSD2
 70
0
  9
$DIMTOLJ
 70
0
  9
$DIMTZIN
 70
8
  9
$DIMALTZ
 70
0
  9
$DIMALTTZ
 70
0
  9
$DIMUPT
 70
0
  9
$DIMDEC
 70
2
  9
$DIMTDEC
 70
2
  9
$DIMALTU
 70
2
  9
$DIMALTTD
 70
3
  9
$DIMTXSTY
  7
Standard
  9
$DIMAUNIT
 70
0
  9
$DIMADEC
 70
0
  9
$DIMALTRND
 40
0.0
  9
$DIMAZIN
 70
0
  9
$DIMDSEP
 70
44
  9
$DIMATFIT
 70
3
  9
$DIMFRAC
 70
0
  9
$DIMLDRBLK
  1

  9
$DIMLUNIT
 70
2
  9
$DIMLWD
 70
-2
  9
$DIMLWE
 70
-2
  9
$DIMTMOVE
 70
0
  9
$DIMFXL
 40
1.0
  9
$DIMFXLON
 70
0
  9
$DIMJOGANG
 40
0.785398163397
  9
$DIMTFILL
 70
0
  9
$DIMTFILLCLR
 70
0
  9
$DIMARCSYM
 70
0
  9
$DIMLTYPE
  6

  9
$DIMLTEX1
  6

  9
$DIMLTEX2
  6

  9
$DIMTXTDIRECTION
 70
0
  9
$LUNITS
 70
2
  9
$LUPREC
 70
4
  9
$SKETCHINC
 40
1.0
  9
$FILLETRAD
 40
10.0
  9
$AUNITS
 70
0
  9
$AUPREC
 70
2
  9
$MENU
  1
.
  9
$ELEVATION
 40
0.0
  9
$PELEVATION
 40
0.0
  9
$THICKNESS
 40
0.0
  9
$LIMCHECK
 70
0
  9
$CHAMFERA
 40
0.0
  9
$CHAMFERB
 40
0.0
  9
$CHAMFERC
 40
0.0
  9
$CHAMFERD
 40
0.0
  9
$SKPOLY
 70
0
  9
$TDCREATE
 40
2461313.8160532406
  9
$TDUCREATE
 40
2458532.153996898
  9
$TDUPDATE
 40
2461313.8160532406
  9
$TDUUPDATE
 40
2458532.1544311
  9
$TDINDWG
 40
0.0
  9
$TDUSRTIMER
 40
0.0
  9
$USRTIMER
 70
1
  9
$ANGBASE
 50
0.0
  9
$ANGDIR
 70
0
  9
$PDMODE
 70
0
  9
$PDSIZE
 40
0.0
  9
$PLINEWID
 40
0.0
  9
$SPLFRAME
 70
0
  9
$SPLINETYPE
 70
6
  9
$SPLINESEGS
 70
8
  9
$HANDSEED
  5
A4
  9
$SURFTAB1
 70
6
  9
$SURFTAB2
 70
6
  9
$SURFTYPE
 70
6
  9
$SURFU
 70
6
  9
$SURFV
 70
6
  9
$UCSBASE
  2

  9
$UCSNAME
  2

  9
$UCSORG
 10
0.0
 20
0.0
 30
0.0
  9
$UCSXDIR
 10
1.0
 20
0.0
 30
0.0
  9
$UCSYDIR
 10
0.0
 20
1.0
 30
0.0
  9
$UCSORTHOREF
  2

  9
$UCSORTHOVIEW
 70
0
  9
$UCSORGTOP
 10
0.0
 20
0.0
 30
0.0
  9
$UCSORGBOTTOM
 10
0.0
 20
0.0
 30
0.0
  9
$UCSORGLEFT
 10
0.0
 20
0.0
 30
0.0
  9
$UCSORGRIGHT
 10
0.0
 20
0.0
 30
0.0
  9
$UCSORGFRONT
 10
0.0
 20
0.0
 30
0.0
  9
$UCSORGBACK
 10
0.0
 20
0.0
 30
0.0
  9
$PUCSBASE
  2

  9
$PUCSNAME
  2

  9
$PUCSORG
 10
0.0
 20
0.0
 30
0.0
  9
$PUCSXDIR
 10
1.0
 20
0.0
 30
0.0
  9
$PUCSYDIR
 10
0.0
 20
1.0
 30
0.0
  9
$PUCSORTHOREF
  2

  9
$PUCSORTHOVIEW
 70
0
  9
$PUCSORGTOP
 10
0.0
 20
0.0
 30
0.0
  9
$PUCSORGBOTTOM
 10
0.0
 20
0.0
 30
0.0
  9
$PUCSORGLEFT
 10
0.0
 20
0.0
 30
0.0
  9
$PUCSORGRIGHT
 10
0.0
 20
0.0
 30
0.0
  9
$PUCSORGFRONT
 10
0.0
 20
0.0
 30
0.0
  9
$PUCSORGBACK
 10
0.0
 20
0.0
 30
0.0
  9
$USERI1
 70
0
  9
$USERI2
 70
0
  9
$USERI3
 70
0
  9
$USERI4
 70
0
  9
$USERI5
 70
0
  9
$USERR1
 40
0.0
  9
$USERR2
 40
0.0
  9
$USERR3
 40
0.0
  9
$USERR4
 40
0.0
  9
$USERR5
 40
0.0
  9
$WORLDVIEW
 70
1
  9
$SHADEDGE
 70
3
  9
$SHADEDIF
 70
70
  9
$TILEMODE
 70
1
  9
$MAXACTVP
 70
64
  9
$PINSBASE
 10
0.0
 20
0.0
 30
0.0
  9
$PLIMCHECK
 70
0
  9
$PEXTMIN
 10
1e+20
 20
1e+20
 30
1e+20
  9
$PEXTMAX
 10
-1e+20
 20
-1e+20
 30
-1e+20
  9
$PLIMMIN
 10
0.0
 20
0.0
  9
$PLIMMAX
 10
420.0
 20
297.0
  9
$UNITMODE
 70
0
  9
$VISRETAIN
 70
1
  9
$PLINEGEN
 70
0
  9
$PSLTSCALE
 70
1
  9
$TREEDEPTH
 70
3020
  9
$CMLSTYLE
  2
Standard
  9
$CMLJUST
 70
0
  9
$CMLSCALE
 40
20.0
  9
$PROXYGRAPHICS
 70
1
  9
$MEASUREMENT
 70
1
  9
$CELWEIGHT
370
-1
  9
$ENDCAPS
280
0
  9
$JOINSTYLE
280
0
  9
$LWDISPLAY
290
0
  9
$INSUNITS
 70
6
  9
$HYPERLINKBASE
  1

  9
$STYLESHEET
  1

  9
$XEDIT
290
1
  9
$CEPSNTYPE
380
0
  9
$PSTYLEMODE
290
1
  9
$FINGERPRINTGUID
  2
{61BA6D3E-2F02-4673-8601-5FCF97C5B4B7}
  9
$VERSIONGUID
  2
{E5B610B1-C2DB-4BF7-AA4F-F75F081ABC22}
  9
$EXTNAMES
290
1
  9
$PSVPSCALE
 40
0.0
  9
$OLESTARTUP
290
0
  9
$SORTENTS
280
127
  9
$INDEXCTL
280
0
  9
$HIDETEXT
280
1
  9
$XCLIPFRAME
280
1
  9
$HALOGAP
280
0
  9
$OBSCOLOR
 70
257
  9
$OBSLTYPE
280
0
  9
$INTERSECTIONDISPLAY
280
0
  9
$INTERSECTIONCOLOR
 70
257
  9
$DIMASSOC
280
2
  9
$PROJECTNAME
  1

  9
$CAMERADISPLAY
290
0
  9
$LENSLENGTH
 40
50.0
  9
$CAMERAHEIGHT
 40
0.0
  9
$STEPSPERSEC
 40
24.0
  9
$STEPSIZE
 40
100.0
  9
$3DDWFPREC
 40
2.0
  9
$PSOLWIDTH
 40
0.005
  9
$PSOLHEIGHT
 40
0.08
  9
$LOFTANG1
 40
1.570796326795
  9
$LOFTANG2
 40
1.570796326795
  9
$LOFTMAG1
 40
0.0
  9
$LOFTMAG2
 40
0.0
  9
$LOFTPARAM
 70
7
  9
$LOFTNORMALS
280
1
  9
$LATITUDE
 40
37.795
  9
$LONGITUDE
 40
-122.394
  9
$NORTHDIRECTION
 40
0.0
  9
$TIMEZONE
 70
-8000
  9
$LIGHTGLYPHDISPLAY
280
1
  9
$TILEMODELIGHTSYNCH
280
1
  9
$CMATERIAL
347
20
  9
$SOLIDHIST
280
0
  9
$SHOWHIST
280
1
  9
$DWFFRAME
280
2
  9
$DGNFRAME
280
2
  9
$REALWORLDSCALE
290
1
  9
$INTERFERECOLOR
 62
256
  9
$CSHADOW
280
0
  9
$SHADOWPLANELOCATION
 40
0.0
  0
ENDSEC
  0
SECTION
  2
CLASSES
  0
CLASS
  1
ACDBDICTIONARYWDFLT
  2
AcDbDictionaryWithDefault
  3
ObjectDBX Classes
 90
0
 91
0
280
0
281
0
  0
CLASS
  1
SUN
  2
AcDbSun
  3
SCENEOE
 90
1153
 91
0
280
0
281
0
  0
CLASS
  1
VISUALSTYLE
  2
AcDbVisualStyle
  3
ObjectDBX Classes
 90
4095
 91
0
280
0
281
0
  0
CLASS
  1
MATERIAL
  2
AcDbMaterial
  3
ObjectDBX Classes
 90
1153
 91
0
280
0
281
0
  0
CLASS
  1
SCALE
  2
AcDbScale
  3
ObjectDBX Classes
 90
1153
 91
0
280
0
281
0
  0
CLASS
  1
TABLESTYLE
  2
AcDbTableStyle
  3
ObjectDBX Classes
 90
4095
 91
0
280
0
281
0
  0
CLASS
  1
MLEADERSTYLE
  2
AcDbMLeaderStyle
  3
ACDB_MLEADERSTYLE_CLASS
 90
4095
 91
0
280
0
281
0
  0
CLASS
  1
DICTIONARYVAR
  2
AcDbDictionaryVar
  3
ObjectDBX Classes
 90
0
 91
0
280
0
281
0
  0
CLASS
  1
CELLSTYLEMAP
  2
AcDbCellStyleMap
  3
ObjectDBX Classes
 90
1152
 91
0
280
0
281
0
  0
CLASS
  1
MENTALRAYRENDERSETTINGS
  2
AcDbMentalRayRenderSettings
  3
SCENEOE
 90
1024
 91
0
280
0
281
0
  0
CLASS
  1
ACDBDETAILVIEWSTYLE
  2
AcDbDetailViewStyle
  3
ObjectDBX Classes
 90
1025
 91
0
280
0
281
0
  0
CLASS
  1
ACDBSECTIONVIEWSTYLE
  2
AcDbSectionViewStyle
  3
ObjectDBX Classes
 90
1025
 91
0
280
0
281
0
  0
CLASS
  1
RASTERVARIABLES
  2
AcDbRasterVariables
  3
ISM
 90
0
 91
0
280
0
281
0
  0
CLASS
  1
LAYOUT
  2
AcDbLayout
  3
ObjectDBX Classes
 90
0
 91
0
280
0
281
0
  0
CLASS
  1
ACDBPLACEHOLDER
  2
AcDbPlaceHolder
  3
ObjectDBX Classes
 90
0
 91
0
280
0
281
0
  0
ENDSEC
  0
SECTION
  2
TABLES
  0
TABLE
  2
VPORT
  5
8
330
0
100
AcDbSymbolTable
 70
1
  0
VPORT
  5
45
330
8
100
AcDbSymbolTableRecord
100
AcDbViewportTableRecord
  2
*Active
 70
0
 10
0.0
 20
0.0
 11
1.0
 21
1.0
 12
40.0
 22
30.0
 13
0.0
 23
0.0
 14
0.5
 24
0.5
 15
0.5
 25
0.5
 16
0.0
 26
0.0
 36
1.0
 17
0.0
 27
0.0
 37
0.0
 40
90.0
 41
1.34
 42
50.0
 43
0.0
 44
0.0
 50
0.0
 51
0.0
 71
0
 72
1000
 73
1
 74
3
 75
0
 76
0
 77
0
 78
0
281
0
 65
1
110
0.0
120
0.0
130
0.0
111
1.0
121
0.0
131
0.0
112
0.0
122
1.0
132
0.0
 79
0
146
0.0
  0
ENDTAB
  0
TABLE
  2
LTYPE
  5
2
330
0
100
AcDbSymbolTable
 70
3
  0
LTYPE
  5
24
330
2
100
AcDbSymbolTableRecord
100
AcDbLinetypeTableRecord
  2
ByBlock
 70
0
  3

 72
65
 73
0
 40
0.0
  0
LTYPE
  5
25
330
2
100
AcDbSymbolTableRecord
100
AcDbLinetypeTableRecord
  2
ByLayer
 70
0
  3

 72
65
 73
0
 40
0.0
  0
LTYPE
  5
26
330
2
100
AcDbSymbolTableRecord
100
AcDbLinetypeTableRecord
  2
Continuous
 70
0
  3

 72
65
 73
0
 40
0.0
  0
ENDTAB
  0
TABLE
  2
LAYER
  5
1
330
0
100
AcDbSymbolTable
 70
12
  0
LAYER
  5
27
330
1
100
AcDbSymbolTableRecord
100
AcDbLayerTableRecord
  2
0
 70
0
 62
7
  6
Continuous
370
-3
390
13
347
21
  0
LAYER
  5
28
330
1
100
AcDbSymbolTableRecord
100
AcDbLayerTableRecord
  2
Defpoints
 70
0
 62
7
  6
Continuous
290
0
370
-3
390
13
347
21
  0
LAYER
  5
2F
330
1
100
AcDbSymbolTableRecord
100
AcDbLayerTableRecord
  2
GC_ROAD_AREA
 70
0
 62
7
420
12766161
  6
Continuous
370
-3
390
13
347
21
  0
LAYER
  5
30
330
1
100
AcDbSymbolTableRecord
100
AcDbLayerTableRecord
  2
GC_SIDEWALK_AREA
 70
0
 62
7
420
15131608
  6
Continuous
370
-3
390
13
347
21
  0
LAYER
  5
31
330
1
100
AcDbSymbolTableRecord
100
AcDbLayerTableRecord
  2
GC_GREEN_ZONE
 70
0
 62
7
420
13756110
  6
Continuous
370
-3
390
13
347
21
  0
LAYER
  5
32
330
1
100
AcDbSymbolTableRecord
100
AcDbLayerTableRecord
  2
GC_SITE_BOUNDARY
 70
0
 62
7
420
7046518
  6
Continuous
370
-3
390
13
347
21
  0
LAYER
  5
33
330
1
100
AcDbSymbolTableRecord
100
AcDbLayerTableRecord
  2
GC_CURB_EDGE
 70
0
 62
7
420
8028541
  6
Continuous
370
-3
390
13
347
21
  0
LAYER
  5
34
330
1
100
AcDbSymbolTableRecord
100
AcDbLayerTableRecord
  2
GC_GAS_AXIS
 70
0
 62
7
420
12944672
  6
Continuous
370
-3
390
13
347
21
  0
LAYER
  5
49
330
1
100
AcDbSymbolTableRecord
100
AcDbLayerTableRecord
  2
GC_RESULT_1F93603DB5
 70
0
 62
3
  6
Continuous
370
-3
390
13
347
21
  0
LAYER
  5
4C
330
1
100
AcDbSymbolTableRecord
100
AcDbLayerTableRecord
  2
GC_RESULT_0F617BA98E
 70
0
 62
3
  6
Continuous
370
-3
390
13
347
21
  0
LAYER
  5
4E
330
1
100
AcDbSymbolTableRecord
100
AcDbLayerTableRecord
  2
GC_RESULT_5DD67F7FB9
 70
0
 62
3
  6
Continuous
370
-3
390
13
347
21
  0
LAYER
  5
51
330
1
100
AcDbSymbolTableRecord
100
AcDbLayerTableRecord
  2
GC_RESULT_11EE5E9AF3
 70
0
 62
3
  6
Continuous
370
-3
390
13
347
21
  0
ENDTAB
  0
TABLE
  2
STYLE
  5
5
330
0
100
AcDbSymbolTable
 70
1
  0
STYLE
  5
29
330
5
100
AcDbSymbolTableRecord
100
AcDbTextStyleTableRecord
  2
Standard
 70
0
 40
0.0
 41
1.0
 50
0.0
 71
0
 42
2.5
  3
txt
  4

  0
ENDTAB
  0
TABLE
  2
VIEW
  5
7
330
0
100
AcDbSymbolTable
 70
0
  0
ENDTAB
  0
TABLE
  2
UCS
  5
6
330
0
100
AcDbSymbolTable
 70
0
  0
ENDTAB
  0
TABLE
  2
APPID
  5
3
330
0
100
AcDbSymbolTable
 70
4
  0
APPID
  5
2A
330
3
100
AcDbSymbolTableRecord
100
AcDbRegAppTableRecord
  2
ACAD
 70
0
  0
APPID
  5
36
330
3
100
AcDbSymbolTableRecord
100
AcDbRegAppTableRecord
  2
GREENCAD_EDIT_V1
 70
0
  0
APPID
  5
46
330
3
100
AcDbSymbolTableRecord
100
AcDbRegAppTableRecord
  2
HATCHBACKGROUNDCOLOR
 70
0
  0
APPID
  5
47
330
3
100
AcDbSymbolTableRecord
100
AcDbRegAppTableRecord
  2
EZDXF
 70
0
  0
ENDTAB
  0
TABLE
  2
DIMSTYLE
  5
4
330
0
100
AcDbSymbolTable
 70
1
100
AcDbDimStyleTable
  0
DIMSTYLE
105
2B
330
4
100
AcDbSymbolTableRecord
100
AcDbDimStyleTableRecord
  2
Standard
 70
0
 40
1.0
 41
2.5
 42
0.625
 43
3.75
 44
1.25
 45
0.0
 46
0.0
 47
0.0
 48
0.0
 49
2.5
140
2.5
141
2.5
142
0.0
143
0.03937007874
144
1.0
145
0.0
146
1.0
147
0.625
148
0.0
 69
0
 70
0
 71
0
 72
0
 73
0
 74
0
 75
0
 76
0
 77
1
 78
8
 79
3
170
0
171
3
172
1
173
0
174
0
175
0
176
0
177
0
178
0
179
2
271
2
272
2
273
2
274
3
275
0
276
0
277
2
278
44
279
0
280
0
281
0
282
0
283
0
284
8
285
0
286
0
288
0
289
3
290
0
371
-2
372
-2
  0
ENDTAB
  0
TABLE
  2
BLOCK_RECORD
  5
9
330
0
100
AcDbSymbolTable
 70
2
  0
BLOCK_RECORD
  5
17
330
9
100
AcDbSymbolTableRecord
100
AcDbBlockTableRecord
  2
*Model_Space
340
1A
 70
0
280
1
281
0
  0
BLOCK_RECORD
  5
1B
330
9
100
AcDbSymbolTableRecord
100
AcDbBlockTableRecord
  2
*Paper_Space
340
1E
 70
0
280
1
281
0
  0
ENDTAB
  0
ENDSEC
  0
SECTION
  2
BLOCKS
  0
BLOCK
  5
18
330
17
100
AcDbEntity
  8
0
100
AcDbBlockBegin
  2
*Model_Space
 70
0
 10
0.0
 20
0.0
 30
0.0
  3
*Model_Space
  1

  0
ENDBLK
  5
19
330
17
100
AcDbEntity
  8
0
100
AcDbBlockEnd
  0
BLOCK
  5
1C
330
1B
100
AcDbEntity
  8
0
100
AcDbBlockBegin
  2
*Paper_Space
 70
0
 10
0.0
 20
0.0
 30
0.0
  3
*Paper_Space
  1

  0
ENDBLK
  5
1D
330
1B
100
AcDbEntity
  8
0
100
AcDbBlockEnd
  0
ENDSEC
  0
SECTION
  2
ENTITIES
  0
LWPOLYLINE
  5
35
330
17
100
AcDbEntity
  8
GC_SITE_BOUNDARY
100
AcDbPolyline
 90
4
 70
1
 10
0.0
 20
0.0
 10
80.0
 20
0.0
 10
80.0
 20
60.0
 10
0.0
 20
60.0
1001
GREENCAD_EDIT_V1
1000
{"role":"asset","id":"site_01","type_id":"context.project_domain","geometry_role":"BOUNDARY","properties":{"synthetic":true},"schema_version":1}
  0
LWPOLYLINE
  5
37
330
17
100
AcDbEntity
  8
GC_GREEN_ZONE
100
AcDbPolyline
 90
4
 70
1
 10
2.0
 20
2.0
 10
78.0
 20
2.0
 10
78.0
 20
58.0
 10
2.0
 20
58.0
1001
GREENCAD_EDIT_V1
1000
{"role":"asset","id":"green_01","type_id":"context.green_zone","geometry_role":"AREA","properties":{"synthetic":true},"schema_version":1}
  0
LWPOLYLINE
  5
38
330
17
100
AcDbEntity
  8
GC_ROAD_AREA
100
AcDbPolyline
 90
4
 70
1
 10
-8.0
 20
-8.0
 10
0.0
 20
-8.0
 10
0.0
 20
68.0
 10
-8.0
 20
68.0
1001
GREENCAD_EDIT_V1
1000
{"role":"asset","id":"road_w","type_id":"traffic.road","geometry_role":"AREA","properties":{"synthetic":true},"schema_version":1}
  0
LWPOLYLINE
  5
39
330
17
100
AcDbEntity
  8
GC_ROAD_AREA
100
AcDbPolyline
 90
4
 70
1
 10
80.0
 20
-8.0
 10
88.0
 20
-8.0
 10
88.0
 20
68.0
 10
80.0
 20
68.0
1001
GREENCAD_EDIT_V1
1000
{"role":"asset","id":"road_e","type_id":"traffic.road","geometry_role":"AREA","properties":{"synthetic":true},"schema_version":1}
  0
LWPOLYLINE
  5
3A
330
17
100
AcDbEntity
  8
GC_ROAD_AREA
100
AcDbPolyline
 90
4
 70
1
 10
0.0
 20
-8.0
 10
80.0
 20
-8.0
 10
80.0
 20
0.0
 10
0.0
 20
0.0
1001
GREENCAD_EDIT_V1
1000
{"role":"asset","id":"road_s","type_id":"traffic.road","geometry_role":"AREA","properties":{"synthetic":true},"schema_version":1}
  0
LWPOLYLINE
  5
3B
330
17
100
AcDbEntity
  8
GC_ROAD_AREA
100
AcDbPolyline
 90
4
 70
1
 10
0.0
 20
60.0
 10
80.0
 20
60.0
 10
80.0
 20
68.0
 10
0.0
 20
68.0
1001
GREENCAD_EDIT_V1
1000
{"role":"asset","id":"road_n","type_id":"traffic.road","geometry_role":"AREA","properties":{"synthetic":true},"schema_version":1}
  0
LWPOLYLINE
  5
3C
330
17
100
AcDbEntity
  8
GC_SIDEWALK_AREA
100
AcDbPolyline
 90
4
 70
1
 10
0.0
 20
0.0
 10
2.0
 20
0.0
 10
2.0
 20
60.0
 10
0.0
 20
60.0
1001
GREENCAD_EDIT_V1
1000
{"role":"asset","id":"walk_w","type_id":"traffic.sidewalk","geometry_role":"AREA","properties":{"synthetic":true},"schema_version":1}
  0
LWPOLYLINE
  5
3D
330
17
100
AcDbEntity
  8
GC_SIDEWALK_AREA
100
AcDbPolyline
 90
4
 70
1
 10
78.0
 20
0.0
 10
80.0
 20
0.0
 10
80.0
 20
60.0
 10
78.0
 20
60.0
1001
GREENCAD_EDIT_V1
1000
{"role":"asset","id":"walk_e","type_id":"traffic.sidewalk","geometry_role":"AREA","properties":{"synthetic":true},"schema_version":1}
  0
LWPOLYLINE
  5
3E
330
17
100
AcDbEntity
  8
GC_SIDEWALK_AREA
100
AcDbPolyline
 90
4
 70
1
 10
2.0
 20
0.0
 10
78.0
 20
0.0
 10
78.0
 20
2.0
 10
2.0
 20
2.0
1001
GREENCAD_EDIT_V1
1000
{"role":"asset","id":"walk_s","type_id":"traffic.sidewalk","geometry_role":"AREA","properties":{"synthetic":true},"schema_version":1}
  0
LWPOLYLINE
  5
3F
330
17
100
AcDbEntity
  8
GC_SIDEWALK_AREA
100
AcDbPolyline
 90
4
 70
1
 10
2.0
 20
58.0
 10
78.0
 20
58.0
 10
78.0
 20
60.0
 10
2.0
 20
60.0
1001
GREENCAD_EDIT_V1
1000
{"role":"asset","id":"walk_n","type_id":"traffic.sidewalk","geometry_role":"AREA","properties":{"synthetic":true},"schema_version":1}
  0
LINE
  5
40
330
17
100
AcDbEntity
  8
GC_CURB_EDGE
100
AcDbLine
 10
0.0
 20
0.0
 30
0.0
 11
80.0
 21
0.0
 31
0.0
1001
GREENCAD_EDIT_V1
1000
{"role":"asset","id":"curb_s","type_id":"traffic.curb","geometry_role":"EDGE","properties":{"synthetic":true},"schema_version":1}
  0
LINE
  5
41
330
17
100
AcDbEntity
  8
GC_CURB_EDGE
100
AcDbLine
 10
80.0
 20
0.0
 30
0.0
 11
80.0
 21
60.0
 31
0.0
1001
GREENCAD_EDIT_V1
1000
{"role":"asset","id":"curb_e","type_id":"traffic.curb","geometry_role":"EDGE","properties":{"synthetic":true},"schema_version":1}
  0
LINE
  5
42
330
17
100
AcDbEntity
  8
GC_CURB_EDGE
100
AcDbLine
 10
80.0
 20
60.0
 30
0.0
 11
0.0
 21
60.0
 31
0.0
1001
GREENCAD_EDIT_V1
1000
{"role":"asset","id":"curb_n","type_id":"traffic.curb","geometry_role":"EDGE","properties":{"synthetic":true},"schema_version":1}
  0
LINE
  5
43
330
17
100
AcDbEntity
  8
GC_CURB_EDGE
100
AcDbLine
 10
0.0
 20
60.0
 30
0.0
 11
0.0
 21
0.0
 31
0.0
1001
GREENCAD_EDIT_V1
1000
{"role":"asset","id":"curb_w","type_id":"traffic.curb","geometry_role":"EDGE","properties":{"synthetic":true},"schema_version":1}
  0
LWPOLYLINE
  5
44
330
17
100
AcDbEntity
  8
GC_GAS_AXIS
100
AcDbPolyline
 90
3
 70
0
 10
-8.0
 20
30.0
 10
40.0
 20
30.0
 10
88.0
 20
30.0
1001
GREENCAD_EDIT_V1
1000
{"role":"asset","id":"gas_01","type_id":"net.gas","geometry_role":"AXIS","properties":{"synthetic":true,"pressure_category":null,"depth_m":null,"A01":null,"note":"\u0423\u0441\u043b\u043e\u0432\u043d\
1000
u0430\u044f \u043e\u0441\u044c \u0433\u0430\u0437\u043e\u043f\u0440\u043e\u0432\u043e\u0434\u0430; \u043e\u0445\u0440\u0430\u043d\u043d\u0430\u044f \u0437\u043e\u043d\u0430 \u0438 \u043e\u0442\u0441\u
1000
0442\u0443\u043f\u044b \u0432 \u044d\u0442\u043e\u043c \u0440\u0435\u0434\u0430\u043a\u0442\u043e\u0440\u0435 \u043d\u0435 \u0432\u044b\u0447\u0438\u0441\u043b\u044f\u044e\u0442\u0441\u044f."},"schema
1000
_version":1}
  0
CIRCLE
  5
4A
330
17
100
AcDbEntity
  8
GC_RESULT_1F93603DB5
420
2647107
100
AcDbCircle
 10
18.0
 20
16.0
 30
0.0
 40
1.5
1001
GREENCAD_EDIT_V1
1000
{"role":"placement","placement":{"id":"4827a39ed4f14b74a82740e874ecb5d4","type_id":"T1","x":18.0,"y":16.0,"plant_id":null,"root_protection":false,"locked":false,"label":"T1-1","properties":{}},"projec
1000
t_type":{"id":"T1","name":"\u041a\u0440\u0443\u043f\u043d\u044b\u0439 \u2014 \u043f\u0440\u043e\u0435\u043a\u0442\u043d\u044b\u0439 \u0448\u0430\u0431\u043b\u043e\u043d","category":"tree","radius_m":1
1000
.5,"color":"#286443","plant_id":null,"symbol":"circle","properties":{},"template":{"schema_version":1,"limits":{"crown_radius_m":1.5},"requirements":{"plant.drained_soil_required":true,"plant.loose_so
1000
il_required":true,"plant.unsalted_soil_required":true,"plant.uncompacted_soil_required":true,"plant.stagnant_water_exclusion":true},"minimum_distances_m":{"project.gas":3.0,"R.spacing":3.0},"moisture_
1000
range":[0.3,0.7],"root_protection":"FORBIDDEN","filters":[],"state_label":"\u0423\u0441\u043b\u043e\u0432\u043d\u044b\u0439 \u0442\u0435\u0441\u0442\u043e\u0432\u044b\u0439 \u0433\u0430\u0431\u0430\u0
1000
440\u0438\u0442; \u043d\u0435 \u0440\u0430\u0437\u043c\u0435\u0440\u044b \u0440\u0435\u0430\u043b\u044c\u043d\u043e\u0433\u043e \u0432\u0438\u0434\u0430 \u0438\u043b\u0438 \u0441\u043e\u0440\u0442\u04
1000
30"}},"geometry_role":"SYMBOL_CENTER","validation":"RECHECK_REQUIRED","schema_version":2}
  0
CIRCLE
  5
4B
330
17
100
AcDbEntity
  8
GC_RESULT_1F93603DB5
420
2647107
100
AcDbCircle
 10
61.0
 20
43.0
 30
0.0
 40
1.5
1001
GREENCAD_EDIT_V1
1000
{"role":"placement","placement":{"id":"bbdc455cd2da43c8a4261975d9f9df48","type_id":"T1","x":61.0,"y":43.0,"plant_id":null,"root_protection":false,"locked":false,"label":"T1-2","properties":{}},"projec
1000
t_type":{"id":"T1","name":"\u041a\u0440\u0443\u043f\u043d\u044b\u0439 \u2014 \u043f\u0440\u043e\u0435\u043a\u0442\u043d\u044b\u0439 \u0448\u0430\u0431\u043b\u043e\u043d","category":"tree","radius_m":1
1000
.5,"color":"#286443","plant_id":null,"symbol":"circle","properties":{},"template":{"schema_version":1,"limits":{"crown_radius_m":1.5},"requirements":{"plant.drained_soil_required":true,"plant.loose_so
1000
il_required":true,"plant.unsalted_soil_required":true,"plant.uncompacted_soil_required":true,"plant.stagnant_water_exclusion":true},"minimum_distances_m":{"project.gas":3.0,"R.spacing":3.0},"moisture_
1000
range":[0.3,0.7],"root_protection":"FORBIDDEN","filters":[],"state_label":"\u0423\u0441\u043b\u043e\u0432\u043d\u044b\u0439 \u0442\u0435\u0441\u0442\u043e\u0432\u044b\u0439 \u0433\u0430\u0431\u0430\u0
1000
440\u0438\u0442; \u043d\u0435 \u0440\u0430\u0437\u043c\u0435\u0440\u044b \u0440\u0435\u0430\u043b\u044c\u043d\u043e\u0433\u043e \u0432\u0438\u0434\u0430 \u0438\u043b\u0438 \u0441\u043e\u0440\u0442\u04
1000
30"}},"geometry_role":"SYMBOL_CENTER","validation":"RECHECK_REQUIRED","schema_version":2}
  0
CIRCLE
  5
4D
330
17
100
AcDbEntity
  8
GC_RESULT_0F617BA98E
420
4226915
100
AcDbCircle
 10
21.0
 20
44.0
 30
0.0
 40
1.0
1001
GREENCAD_EDIT_V1
1000
{"role":"placement","placement":{"id":"6f0ffbfe825e4fcfad4b5345256521da","type_id":"T2","x":21.0,"y":44.0,"plant_id":null,"root_protection":false,"locked":false,"label":"T2-1","properties":{}},"projec
1000
t_type":{"id":"T2","name":"\u0421\u0440\u0435\u0434\u043d\u0438\u0439 \u0410 \u2014 \u043f\u0440\u043e\u0435\u043a\u0442\u043d\u044b\u0439 \u0448\u0430\u0431\u043b\u043e\u043d","category":"tree","radi
1000
us_m":1.0,"color":"#407F63","plant_id":null,"symbol":"circle","properties":{},"template":{"schema_version":1,"limits":{"crown_radius_m":1.0},"requirements":{"plant.drained_soil_required":true,"plant.l
1000
oose_soil_required":true,"plant.unsalted_soil_required":true,"plant.uncompacted_soil_required":true,"plant.stagnant_water_exclusion":true},"minimum_distances_m":{"project.gas":4.0,"R.spacing":3.0},"mo
1000
isture_range":[0.3,0.7],"root_protection":"ANY","filters":[],"state_label":"\u0423\u0441\u043b\u043e\u0432\u043d\u044b\u0439 \u0442\u0435\u0441\u0442\u043e\u0432\u044b\u0439 \u0433\u0430\u0431\u0430\u
1000
0440\u0438\u0442; \u043d\u0435 \u0440\u0430\u0437\u043c\u0435\u0440\u044b \u0440\u0435\u0430\u043b\u044c\u043d\u043e\u0433\u043e \u0432\u0438\u0434\u0430 \u0438\u043b\u0438 \u0441\u043e\u0440\u0442\u0
1000
430"}},"geometry_role":"SYMBOL_CENTER","validation":"RECHECK_REQUIRED","schema_version":2}
  0
CIRCLE
  5
4F
330
17
100
AcDbEntity
  8
GC_RESULT_5DD67F7FB9
420
6060177
100
AcDbCircle
 10
55.0
 20
13.0
 30
0.0
 40
0.8
1001
GREENCAD_EDIT_V1
1000
{"role":"placement","placement":{"id":"4e8b8eeddb08472aa1e96b481e22433f","type_id":"T3","x":55.0,"y":13.0,"plant_id":null,"root_protection":true,"locked":false,"label":"T3-1","properties":{}},"project
1000
_type":{"id":"T3","name":"\u0421\u0440\u0435\u0434\u043d\u0438\u0439 \u0411 \u2014 \u043f\u0440\u043e\u0435\u043a\u0442\u043d\u044b\u0439 \u0448\u0430\u0431\u043b\u043e\u043d","category":"tree","radiu
1000
s_m":0.8,"color":"#5C7891","plant_id":null,"symbol":"circle","properties":{},"template":{"schema_version":1,"limits":{"crown_radius_m":0.8},"requirements":{"plant.drained_soil_required":true,"plant.lo
1000
ose_soil_required":true,"plant.unsalted_soil_required":true,"plant.uncompacted_soil_required":true,"plant.stagnant_water_exclusion":true},"minimum_distances_m":{"project.gas":3.0,"R.spacing":3.0},"moi
1000
sture_range":[0.2,0.6],"root_protection":"REQUIRED","filters":[],"state_label":"\u0423\u0441\u043b\u043e\u0432\u043d\u044b\u0439 \u0442\u0435\u0441\u0442\u043e\u0432\u044b\u0439 \u0433\u0430\u0431\u04
1000
30\u0440\u0438\u0442; \u043d\u0435 \u0440\u0430\u0437\u043c\u0435\u0440\u044b \u0440\u0435\u0430\u043b\u044c\u043d\u043e\u0433\u043e \u0432\u0438\u0434\u0430 \u0438\u043b\u0438 \u0441\u043e\u0440\u044
1000
2\u0430"}},"geometry_role":"SYMBOL_CENTER","validation":"RECHECK_REQUIRED","schema_version":2}
  0
CIRCLE
  5
50
330
17
100
AcDbEntity
  8
GC_RESULT_5DD67F7FB9
420
6060177
100
AcDbCircle
 10
61.0
 20
13.0
 30
0.0
 40
0.8
1001
GREENCAD_EDIT_V1
1000
{"role":"placement","placement":{"id":"4b55992aa60845db908f79c13717da2f","type_id":"T3","x":61.0,"y":13.0,"plant_id":null,"root_protection":true,"locked":false,"label":"T3-2","properties":{}},"project
1000
_type":{"id":"T3","name":"\u0421\u0440\u0435\u0434\u043d\u0438\u0439 \u0411 \u2014 \u043f\u0440\u043e\u0435\u043a\u0442\u043d\u044b\u0439 \u0448\u0430\u0431\u043b\u043e\u043d","category":"tree","radiu
1000
s_m":0.8,"color":"#5C7891","plant_id":null,"symbol":"circle","properties":{},"template":{"schema_version":1,"limits":{"crown_radius_m":0.8},"requirements":{"plant.drained_soil_required":true,"plant.lo
1000
ose_soil_required":true,"plant.unsalted_soil_required":true,"plant.uncompacted_soil_required":true,"plant.stagnant_water_exclusion":true},"minimum_distances_m":{"project.gas":3.0,"R.spacing":3.0},"moi
1000
sture_range":[0.2,0.6],"root_protection":"REQUIRED","filters":[],"state_label":"\u0423\u0441\u043b\u043e\u0432\u043d\u044b\u0439 \u0442\u0435\u0441\u0442\u043e\u0432\u044b\u0439 \u0433\u0430\u0431\u04
1000
30\u0440\u0438\u0442; \u043d\u0435 \u0440\u0430\u0437\u043c\u0435\u0440\u044b \u0440\u0435\u0430\u043b\u044c\u043d\u043e\u0433\u043e \u0432\u0438\u0434\u0430 \u0438\u043b\u0438 \u0441\u043e\u0440\u044
1000
2\u0430"}},"geometry_role":"SYMBOL_CENTER","validation":"RECHECK_REQUIRED","schema_version":2}
  0
CIRCLE
  5
52
330
17
100
AcDbEntity
  8
GC_RESULT_11EE5E9AF3
420
10122578
100
AcDbCircle
 10
30.0
 20
16.0
 30
0.0
 40
0.4
1001
GREENCAD_EDIT_V1
1000
{"role":"placement","placement":{"id":"ad55ec09be7f4e5cb2c54a47d59d3685","type_id":"T4","x":30.0,"y":16.0,"plant_id":null,"root_protection":false,"locked":false,"label":"T4-1","properties":{}},"projec
1000
t_type":{"id":"T4","name":"\u041c\u0430\u043b\u044b\u0439 \u2014 \u043f\u0440\u043e\u0435\u043a\u0442\u043d\u044b\u0439 \u0448\u0430\u0431\u043b\u043e\u043d","category":"shrub","radius_m":0.4,"color":
1000
"#9A7552","plant_id":null,"symbol":"circle","properties":{},"template":{"schema_version":1,"limits":{"crown_radius_m":0.4},"requirements":{"plant.drained_soil_required":true,"plant.loose_soil_required
1000
":true,"plant.unsalted_soil_required":true,"plant.uncompacted_soil_required":true,"plant.stagnant_water_exclusion":true},"minimum_distances_m":{"project.gas":3.0,"R.spacing":3.0},"moisture_range":[0.3
1000
,0.7],"root_protection":"ANY","filters":[],"state_label":"\u0423\u0441\u043b\u043e\u0432\u043d\u044b\u0439 \u0442\u0435\u0441\u0442\u043e\u0432\u044b\u0439 \u0433\u0430\u0431\u0430\u0440\u0438\u0442; 
1000
\u043d\u0435 \u0440\u0430\u0437\u043c\u0435\u0440\u044b \u0440\u0435\u0430\u043b\u044c\u043d\u043e\u0433\u043e \u0432\u0438\u0434\u0430 \u0438\u043b\u0438 \u0441\u043e\u0440\u0442\u0430"}},"geometry_r
1000
ole":"SYMBOL_CENTER","validation":"RECHECK_REQUIRED","schema_version":2}
  0
CIRCLE
  5
53
330
17
100
AcDbEntity
  8
GC_RESULT_1F93603DB5
420
2647107
100
AcDbCircle
 10
3.5
 20
3.5
 30
0.0
 40
1.5
1001
GREENCAD_EDIT_V1
1000
{"role":"placement","placement":{"id":"32ecd22dbcb85c46a138d751948fdf76","type_id":"T1","x":3.5,"y":3.5,"plant_id":null,"root_protection":false,"locked":false,"label":"T1 \u00b7 \u0430\u0432\u0442\u04
1000
3e 1","properties":{"generation":{"job_id":"8c5634d6b6527b7dafb3eea91a7846ab1a5af75b60634ba903af72bad8ea2005","version":"1.0","zone_id":"green_01","grid_index":77,"step_m":1.0,"order_and_caps":[["T1",
1000
20],["T2",20],["T3",20],["T4",20]]}}},"project_type":{"id":"T1","name":"\u041a\u0440\u0443\u043f\u043d\u044b\u0439 \u2014 \u043f\u0440\u043e\u0435\u043a\u0442\u043d\u044b\u0439 \u0448\u0430\u0431\u043
1000
b\u043e\u043d","category":"tree","radius_m":1.5,"color":"#286443","plant_id":null,"symbol":"circle","properties":{},"template":{"schema_version":1,"limits":{"crown_radius_m":1.5},"requirements":{"plan
1000
t.drained_soil_required":true,"plant.loose_soil_required":true,"plant.unsalted_soil_required":true,"plant.uncompacted_soil_required":true,"plant.stagnant_water_exclusion":true},"minimum_distances_m":{
1000
"project.gas":3.0,"R.spacing":3.0},"moisture_range":[0.3,0.7],"root_protection":"FORBIDDEN","filters":[],"state_label":"\u0423\u0441\u043b\u043e\u0432\u043d\u044b\u0439 \u0442\u0435\u0441\u0442\u043e\
1000
u0432\u044b\u0439 \u0433\u0430\u0431\u0430\u0440\u0438\u0442; \u043d\u0435 \u0440\u0430\u0437\u043c\u0435\u0440\u044b \u0440\u0435\u0430\u043b\u044c\u043d\u043e\u0433\u043e \u0432\u0438\u0434\u0430 \u
1000
0438\u043b\u0438 \u0441\u043e\u0440\u0442\u0430"}},"geometry_role":"SYMBOL_CENTER","validation":"RECHECK_REQUIRED","schema_version":2}
  0
CIRCLE
  5
54
330
17
100
AcDbEntity
  8
GC_RESULT_1F93603DB5
420
2647107
100
AcDbCircle
 10
6.5
 20
3.5
 30
0.0
 40
1.5
1001
GREENCAD_EDIT_V1
1000
{"role":"placement","placement":{"id":"64f2264afa7159d9821fbf12fd816232","type_id":"T1","x":6.5,"y":3.5,"plant_id":null,"root_protection":false,"locked":false,"label":"T1 \u00b7 \u0430\u0432\u0442\u04
1000
3e 2","properties":{"generation":{"job_id":"8c5634d6b6527b7dafb3eea91a7846ab1a5af75b60634ba903af72bad8ea2005","version":"1.0","zone_id":"green_01","grid_index":80,"step_m":1.0,"order_and_caps":[["T1",
1000
20],["T2",20],["T3",20],["T4",20]]}}},"project_type":{"id":"T1","name":"\u041a\u0440\u0443\u043f\u043d\u044b\u0439 \u2014 \u043f\u0440\u043e\u0435\u043a\u0442\u043d\u044b\u0439 \u0448\u0430\u0431\u043
1000
b\u043e\u043d","category":"tree","radius_m":1.5,"color":"#286443","plant_id":null,"symbol":"circle","properties":{},"template":{"schema_version":1,"limits":{"crown_radius_m":1.5},"requirements":{"plan
1000
t.drained_soil_required":true,"plant.loose_soil_required":true,"plant.unsalted_soil_required":true,"plant.uncompacted_soil_required":true,"plant.stagnant_water_exclusion":true},"minimum_distances_m":{
1000
"project.gas":3.0,"R.spacing":3.0},"moisture_range":[0.3,0.7],"root_protection":"FORBIDDEN","filters":[],"state_label":"\u0423\u0441\u043b\u043e\u0432\u043d\u044b\u0439 \u0442\u0435\u0441\u0442\u043e\
1000
u0432\u044b\u0439 \u0433\u0430\u0431\u0430\u0440\u0438\u0442; \u043d\u0435 \u0440\u0430\u0437\u043c\u0435\u0440\u044b \u0440\u0435\u0430\u043b\u044c\u043d\u043e\u0433\u043e \u0432\u0438\u0434\u0430 \u
1000
0438\u043b\u0438 \u0441\u043e\u0440\u0442\u0430"}},"geometry_role":"SYMBOL_CENTER","validation":"RECHECK_REQUIRED","schema_version":2}
  0
CIRCLE
  5
55
330
17
100
AcDbEntity
  8
GC_RESULT_1F93603DB5
420
2647107
100
AcDbCircle
 10
9.5
 20
3.5
 30
0.0
 40
1.5
1001
GREENCAD_EDIT_V1
1000
{"role":"placement","placement":{"id":"e9a3a253fc62571f84d16eb5523a1736","type_id":"T1","x":9.5,"y":3.5,"plant_id":null,"root_protection":false,"locked":false,"label":"T1 \u00b7 \u0430\u0432\u0442\u04
1000
3e 3","properties":{"generation":{"job_id":"8c5634d6b6527b7dafb3eea91a7846ab1a5af75b60634ba903af72bad8ea2005","version":"1.0","zone_id":"green_01","grid_index":83,"step_m":1.0,"order_and_caps":[["T1",
1000
20],["T2",20],["T3",20],["T4",20]]}}},"project_type":{"id":"T1","name":"\u041a\u0440\u0443\u043f\u043d\u044b\u0439 \u2014 \u043f\u0440\u043e\u0435\u043a\u0442\u043d\u044b\u0439 \u0448\u0430\u0431\u043
1000
b\u043e\u043d","category":"tree","radius_m":1.5,"color":"#286443","plant_id":null,"symbol":"circle","properties":{},"template":{"schema_version":1,"limits":{"crown_radius_m":1.5},"requirements":{"plan
1000
t.drained_soil_required":true,"plant.loose_soil_required":true,"plant.unsalted_soil_required":true,"plant.uncompacted_soil_required":true,"plant.stagnant_water_exclusion":true},"minimum_distances_m":{
1000
"project.gas":3.0,"R.spacing":3.0},"moisture_range":[0.3,0.7],"root_protection":"FORBIDDEN","filters":[],"state_label":"\u0423\u0441\u043b\u043e\u0432\u043d\u044b\u0439 \u0442\u0435\u0441\u0442\u043e\
1000
u0432\u044b\u0439 \u0433\u0430\u0431\u0430\u0440\u0438\u0442; \u043d\u0435 \u0440\u0430\u0437\u043c\u0435\u0440\u044b \u0440\u0435\u0430\u043b\u044c\u043d\u043e\u0433\u043e \u0432\u0438\u0434\u0430 \u
1000
0438\u043b\u0438 \u0441\u043e\u0440\u0442\u0430"}},"geometry_role":"SYMBOL_CENTER","validation":"RECHECK_REQUIRED","schema_version":2}
  0
CIRCLE
  5
56
330
17
100
AcDbEntity
  8
GC_RESULT_1F93603DB5
420
2647107
100
AcDbCircle
 10
12.5
 20
3.5
 30
0.0
 40
1.5
1001
GREENCAD_EDIT_V1
1000
{"role":"placement","placement":{"id":"7a3c80b9c9745887b8859b0135518cd2","type_id":"T1","x":12.5,"y":3.5,"plant_id":null,"root_protection":false,"locked":false,"label":"T1 \u00b7 \u0430\u0432\u0442\u0
1000
43e 4","properties":{"generation":{"job_id":"8c5634d6b6527b7dafb3eea91a7846ab1a5af75b60634ba903af72bad8ea2005","version":"1.0","zone_id":"green_01","grid_index":86,"step_m":1.0,"order_and_caps":[["T1"
1000
,20],["T2",20],["T3",20],["T4",20]]}}},"project_type":{"id":"T1","name":"\u041a\u0440\u0443\u043f\u043d\u044b\u0439 \u2014 \u043f\u0440\u043e\u0435\u043a\u0442\u043d\u044b\u0439 \u0448\u0430\u0431\u04
1000
3b\u043e\u043d","category":"tree","radius_m":1.5,"color":"#286443","plant_id":null,"symbol":"circle","properties":{},"template":{"schema_version":1,"limits":{"crown_radius_m":1.5},"requirements":{"pla
1000
nt.drained_soil_required":true,"plant.loose_soil_required":true,"plant.unsalted_soil_required":true,"plant.uncompacted_soil_required":true,"plant.stagnant_water_exclusion":true},"minimum_distances_m":
1000
{"project.gas":3.0,"R.spacing":3.0},"moisture_range":[0.3,0.7],"root_protection":"FORBIDDEN","filters":[],"state_label":"\u0423\u0441\u043b\u043e\u0432\u043d\u044b\u0439 \u0442\u0435\u0441\u0442\u043e
1000
\u0432\u044b\u0439 \u0433\u0430\u0431\u0430\u0440\u0438\u0442; \u043d\u0435 \u0440\u0430\u0437\u043c\u0435\u0440\u044b \u0440\u0435\u0430\u043b\u044c\u043d\u043e\u0433\u043e \u0432\u0438\u0434\u0430 \
1000
u0438\u043b\u0438 \u0441\u043e\u0440\u0442\u0430"}},"geometry_role":"SYMBOL_CENTER","validation":"RECHECK_REQUIRED","schema_version":2}
  0
CIRCLE
  5
57
330
17
100
AcDbEntity
  8
GC_RESULT_1F93603DB5
420
2647107
100
AcDbCircle
 10
15.5
 20
3.5
 30
0.0
 40
1.5
1001
GREENCAD_EDIT_V1
1000
{"role":"placement","placement":{"id":"f01fac84af815b9fa774ec721f72bea3","type_id":"T1","x":15.5,"y":3.5,"plant_id":null,"root_protection":false,"locked":false,"label":"T1 \u00b7 \u0430\u0432\u0442\u0
1000
43e 5","properties":{"generation":{"job_id":"8c5634d6b6527b7dafb3eea91a7846ab1a5af75b60634ba903af72bad8ea2005","version":"1.0","zone_id":"green_01","grid_index":89,"step_m":1.0,"order_and_caps":[["T1"
1000
,20],["T2",20],["T3",20],["T4",20]]}}},"project_type":{"id":"T1","name":"\u041a\u0440\u0443\u043f\u043d\u044b\u0439 \u2014 \u043f\u0440\u043e\u0435\u043a\u0442\u043d\u044b\u0439 \u0448\u0430\u0431\u04
1000
3b\u043e\u043d","category":"tree","radius_m":1.5,"color":"#286443","plant_id":null,"symbol":"circle","properties":{},"template":{"schema_version":1,"limits":{"crown_radius_m":1.5},"requirements":{"pla
1000
nt.drained_soil_required":true,"plant.loose_soil_required":true,"plant.unsalted_soil_required":true,"plant.uncompacted_soil_required":true,"plant.stagnant_water_exclusion":true},"minimum_distances_m":
1000
{"project.gas":3.0,"R.spacing":3.0},"moisture_range":[0.3,0.7],"root_protection":"FORBIDDEN","filters":[],"state_label":"\u0423\u0441\u043b\u043e\u0432\u043d\u044b\u0439 \u0442\u0435\u0441\u0442\u043e
1000
\u0432\u044b\u0439 \u0433\u0430\u0431\u0430\u0440\u0438\u0442; \u043d\u0435 \u0440\u0430\u0437\u043c\u0435\u0440\u044b \u0440\u0435\u0430\u043b\u044c\u043d\u043e\u0433\u043e \u0432\u0438\u0434\u0430 \
1000
u0438\u043b\u0438 \u0441\u043e\u0440\u0442\u0430"}},"geometry_role":"SYMBOL_CENTER","validation":"RECHECK_REQUIRED","schema_version":2}
  0
CIRCLE
  5
58
330
17
100
AcDbEntity
  8
GC_RESULT_1F93603DB5
420
2647107
100
AcDbCircle
 10
18.5
 20
3.5
 30
0.0
 40
1.5
1001
GREENCAD_EDIT_V1
1000
{"role":"placement","placement":{"id":"f2e84ca1c90c5519be7a1c5ea31cd8d8","type_id":"T1","x":18.5,"y":3.5,"plant_id":null,"root_protection":false,"locked":false,"label":"T1 \u00b7 \u0430\u0432\u0442\u0
1000
43e 6","properties":{"generation":{"job_id":"8c5634d6b6527b7dafb3eea91a7846ab1a5af75b60634ba903af72bad8ea2005","version":"1.0","zone_id":"green_01","grid_index":92,"step_m":1.0,"order_and_caps":[["T1"
1000
,20],["T2",20],["T3",20],["T4",20]]}}},"project_type":{"id":"T1","name":"\u041a\u0440\u0443\u043f\u043d\u044b\u0439 \u2014 \u043f\u0440\u043e\u0435\u043a\u0442\u043d\u044b\u0439 \u0448\u0430\u0431\u04
1000
3b\u043e\u043d","category":"tree","radius_m":1.5,"color":"#286443","plant_id":null,"symbol":"circle","properties":{},"template":{"schema_version":1,"limits":{"crown_radius_m":1.5},"requirements":{"pla
1000
nt.drained_soil_required":true,"plant.loose_soil_required":true,"plant.unsalted_soil_required":true,"plant.uncompacted_soil_required":true,"plant.stagnant_water_exclusion":true},"minimum_distances_m":
1000
{"project.gas":3.0,"R.spacing":3.0},"moisture_range":[0.3,0.7],"root_protection":"FORBIDDEN","filters":[],"state_label":"\u0423\u0441\u043b\u043e\u0432\u043d\u044b\u0439 \u0442\u0435\u0441\u0442\u043e
1000
\u0432\u044b\u0439 \u0433\u0430\u0431\u0430\u0440\u0438\u0442; \u043d\u0435 \u0440\u0430\u0437\u043c\u0435\u0440\u044b \u0440\u0435\u0430\u043b\u044c\u043d\u043e\u0433\u043e \u0432\u0438\u0434\u0430 \
1000
u0438\u043b\u0438 \u0441\u043e\u0440\u0442\u0430"}},"geometry_role":"SYMBOL_CENTER","validation":"RECHECK_REQUIRED","schema_version":2}
  0
CIRCLE
  5
59
330
17
100
AcDbEntity
  8
GC_RESULT_1F93603DB5
420
2647107
100
AcDbCircle
 10
21.5
 20
3.5
 30
0.0
 40
1.5
1001
GREENCAD_EDIT_V1
1000
{"role":"placement","placement":{"id":"f882e3bb4b4a5b5a843e679a990d6240","type_id":"T1","x":21.5,"y":3.5,"plant_id":null,"root_protection":false,"locked":false,"label":"T1 \u00b7 \u0430\u0432\u0442\u0
1000
43e 7","properties":{"generation":{"job_id":"8c5634d6b6527b7dafb3eea91a7846ab1a5af75b60634ba903af72bad8ea2005","version":"1.0","zone_id":"green_01","grid_index":95,"step_m":1.0,"order_and_caps":[["T1"
1000
,20],["T2",20],["T3",20],["T4",20]]}}},"project_type":{"id":"T1","name":"\u041a\u0440\u0443\u043f\u043d\u044b\u0439 \u2014 \u043f\u0440\u043e\u0435\u043a\u0442\u043d\u044b\u0439 \u0448\u0430\u0431\u04
1000
3b\u043e\u043d","category":"tree","radius_m":1.5,"color":"#286443","plant_id":null,"symbol":"circle","properties":{},"template":{"schema_version":1,"limits":{"crown_radius_m":1.5},"requirements":{"pla
1000
nt.drained_soil_required":true,"plant.loose_soil_required":true,"plant.unsalted_soil_required":true,"plant.uncompacted_soil_required":true,"plant.stagnant_water_exclusion":true},"minimum_distances_m":
1000
{"project.gas":3.0,"R.spacing":3.0},"moisture_range":[0.3,0.7],"root_protection":"FORBIDDEN","filters":[],"state_label":"\u0423\u0441\u043b\u043e\u0432\u043d\u044b\u0439 \u0442\u0435\u0441\u0442\u043e
1000
\u0432\u044b\u0439 \u0433\u0430\u0431\u0430\u0440\u0438\u0442; \u043d\u0435 \u0440\u0430\u0437\u043c\u0435\u0440\u044b \u0440\u0435\u0430\u043b\u044c\u043d\u043e\u0433\u043e \u0432\u0438\u0434\u0430 \
1000
u0438\u043b\u0438 \u0441\u043e\u0440\u0442\u0430"}},"geometry_role":"SYMBOL_CENTER","validation":"RECHECK_REQUIRED","schema_version":2}
  0
CIRCLE
  5
5A
330
17
100
AcDbEntity
  8
GC_RESULT_1F93603DB5
420
2647107
100
AcDbCircle
 10
24.5
 20
3.5
 30
0.0
 40
1.5
1001
GREENCAD_EDIT_V1
1000
{"role":"placement","placement":{"id":"d3aa274d44285da6a2cddb143deb929b","type_id":"T1","x":24.5,"y":3.5,"plant_id":null,"root_protection":false,"locked":false,"label":"T1 \u00b7 \u0430\u0432\u0442\u0
1000
43e 8","properties":{"generation":{"job_id":"8c5634d6b6527b7dafb3eea91a7846ab1a5af75b60634ba903af72bad8ea2005","version":"1.0","zone_id":"green_01","grid_index":98,"step_m":1.0,"order_and_caps":[["T1"
1000
,20],["T2",20],["T3",20],["T4",20]]}}},"project_type":{"id":"T1","name":"\u041a\u0440\u0443\u043f\u043d\u044b\u0439 \u2014 \u043f\u0440\u043e\u0435\u043a\u0442\u043d\u044b\u0439 \u0448\u0430\u0431\u04
1000
3b\u043e\u043d","category":"tree","radius_m":1.5,"color":"#286443","plant_id":null,"symbol":"circle","properties":{},"template":{"schema_version":1,"limits":{"crown_radius_m":1.5},"requirements":{"pla
1000
nt.drained_soil_required":true,"plant.loose_soil_required":true,"plant.unsalted_soil_required":true,"plant.uncompacted_soil_required":true,"plant.stagnant_water_exclusion":true},"minimum_distances_m":
1000
{"project.gas":3.0,"R.spacing":3.0},"moisture_range":[0.3,0.7],"root_protection":"FORBIDDEN","filters":[],"state_label":"\u0423\u0441\u043b\u043e\u0432\u043d\u044b\u0439 \u0442\u0435\u0441\u0442\u043e
1000
\u0432\u044b\u0439 \u0433\u0430\u0431\u0430\u0440\u0438\u0442; \u043d\u0435 \u0440\u0430\u0437\u043c\u0435\u0440\u044b \u0440\u0435\u0430\u043b\u044c\u043d\u043e\u0433\u043e \u0432\u0438\u0434\u0430 \
1000
u0438\u043b\u0438 \u0441\u043e\u0440\u0442\u0430"}},"geometry_role":"SYMBOL_CENTER","validation":"RECHECK_REQUIRED","schema_version":2}
  0
CIRCLE
  5
5B
330
17
100
AcDbEntity
  8
GC_RESULT_1F93603DB5
420
2647107
100
AcDbCircle
 10
27.5
 20
3.5
 30
0.0
 40
1.5
1001
GREENCAD_EDIT_V1
1000
{"role":"placement","placement":{"id":"b928bd2b5d535312ba236c20a4ce9f0a","type_id":"T1","x":27.5,"y":3.5,"plant_id":null,"root_protection":false,"locked":false,"label":"T1 \u00b7 \u0430\u0432\u0442\u0
1000
43e 9","properties":{"generation":{"job_id":"8c5634d6b6527b7dafb3eea91a7846ab1a5af75b60634ba903af72bad8ea2005","version":"1.0","zone_id":"green_01","grid_index":101,"step_m":1.0,"order_and_caps":[["T1
1000
",20],["T2",20],["T3",20],["T4",20]]}}},"project_type":{"id":"T1","name":"\u041a\u0440\u0443\u043f\u043d\u044b\u0439 \u2014 \u043f\u0440\u043e\u0435\u043a\u0442\u043d\u044b\u0439 \u0448\u0430\u0431\u0
1000
43b\u043e\u043d","category":"tree","radius_m":1.5,"color":"#286443","plant_id":null,"symbol":"circle","properties":{},"template":{"schema_version":1,"limits":{"crown_radius_m":1.5},"requirements":{"pl
1000
ant.drained_soil_required":true,"plant.loose_soil_required":true,"plant.unsalted_soil_required":true,"plant.uncompacted_soil_required":true,"plant.stagnant_water_exclusion":true},"minimum_distances_m"
1000
:{"project.gas":3.0,"R.spacing":3.0},"moisture_range":[0.3,0.7],"root_protection":"FORBIDDEN","filters":[],"state_label":"\u0423\u0441\u043b\u043e\u0432\u043d\u044b\u0439 \u0442\u0435\u0441\u0442\u043
1000
e\u0432\u044b\u0439 \u0433\u0430\u0431\u0430\u0440\u0438\u0442; \u043d\u0435 \u0440\u0430\u0437\u043c\u0435\u0440\u044b \u0440\u0435\u0430\u043b\u044c\u043d\u043e\u0433\u043e \u0432\u0438\u0434\u0430 
1000
\u0438\u043b\u0438 \u0441\u043e\u0440\u0442\u0430"}},"geometry_role":"SYMBOL_CENTER","validation":"RECHECK_REQUIRED","schema_version":2}
  0
CIRCLE
  5
5C
330
17
100
AcDbEntity
  8
GC_RESULT_1F93603DB5
420
2647107
100
AcDbCircle
 10
30.5
 20
3.5
 30
0.0
 40
1.5
1001
GREENCAD_EDIT_V1
1000
{"role":"placement","placement":{"id":"d766f03e2d6158f98ec40c56fbfb270d","type_id":"T1","x":30.5,"y":3.5,"plant_id":null,"root_protection":false,"locked":false,"label":"T1 \u00b7 \u0430\u0432\u0442\u0
1000
43e 10","properties":{"generation":{"job_id":"8c5634d6b6527b7dafb3eea91a7846ab1a5af75b60634ba903af72bad8ea2005","version":"1.0","zone_id":"green_01","grid_index":104,"step_m":1.0,"order_and_caps":[["T
1000
1",20],["T2",20],["T3",20],["T4",20]]}}},"project_type":{"id":"T1","name":"\u041a\u0440\u0443\u043f\u043d\u044b\u0439 \u2014 \u043f\u0440\u043e\u0435\u043a\u0442\u043d\u044b\u0439 \u0448\u0430\u0431\u
1000
043b\u043e\u043d","category":"tree","radius_m":1.5,"color":"#286443","plant_id":null,"symbol":"circle","properties":{},"template":{"schema_version":1,"limits":{"crown_radius_m":1.5},"requirements":{"p
1000
lant.drained_soil_required":true,"plant.loose_soil_required":true,"plant.unsalted_soil_required":true,"plant.uncompacted_soil_required":true,"plant.stagnant_water_exclusion":true},"minimum_distances_m
1000
":{"project.gas":3.0,"R.spacing":3.0},"moisture_range":[0.3,0.7],"root_protection":"FORBIDDEN","filters":[],"state_label":"\u0423\u0441\u043b\u043e\u0432\u043d\u044b\u0439 \u0442\u0435\u0441\u0442\u04
1000
3e\u0432\u044b\u0439 \u0433\u0430\u0431\u0430\u0440\u0438\u0442; \u043d\u0435 \u0440\u0430\u0437\u043c\u0435\u0440\u044b \u0440\u0435\u0430\u043b\u044c\u043d\u043e\u0433\u043e \u0432\u0438\u0434\u0430
1000
 \u0438\u043b\u0438 \u0441\u043e\u0440\u0442\u0430"}},"geometry_role":"SYMBOL_CENTER","validation":"RECHECK_REQUIRED","schema_version":2}
  0
CIRCLE
  5
5D
330
17
100
AcDbEntity
  8
GC_RESULT_1F93603DB5
420
2647107
100
AcDbCircle
 10
33.5
 20
3.5
 30
0.0
 40
1.5
1001
GREENCAD_EDIT_V1
1000
{"role":"placement","placement":{"id":"955917e645475f13b43b12fa6fe91ed9","type_id":"T1","x":33.5,"y":3.5,"plant_id":null,"root_protection":false,"locked":false,"label":"T1 \u00b7 \u0430\u0432\u0442\u0
1000
43e 11","properties":{"generation":{"job_id":"8c5634d6b6527b7dafb3eea91a7846ab1a5af75b60634ba903af72bad8ea2005","version":"1.0","zone_id":"green_01","grid_index":107,"step_m":1.0,"order_and_caps":[["T
1000
1",20],["T2",20],["T3",20],["T4",20]]}}},"project_type":{"id":"T1","name":"\u041a\u0440\u0443\u043f\u043d\u044b\u0439 \u2014 \u043f\u0440\u043e\u0435\u043a\u0442\u043d\u044b\u0439 \u0448\u0430\u0431\u
1000
043b\u043e\u043d","category":"tree","radius_m":1.5,"color":"#286443","plant_id":null,"symbol":"circle","properties":{},"template":{"schema_version":1,"limits":{"crown_radius_m":1.5},"requirements":{"p
1000
lant.drained_soil_required":true,"plant.loose_soil_required":true,"plant.unsalted_soil_required":true,"plant.uncompacted_soil_required":true,"plant.stagnant_water_exclusion":true},"minimum_distances_m
1000
":{"project.gas":3.0,"R.spacing":3.0},"moisture_range":[0.3,0.7],"root_protection":"FORBIDDEN","filters":[],"state_label":"\u0423\u0441\u043b\u043e\u0432\u043d\u044b\u0439 \u0442\u0435\u0441\u0442\u04
1000
3e\u0432\u044b\u0439 \u0433\u0430\u0431\u0430\u0440\u0438\u0442; \u043d\u0435 \u0440\u0430\u0437\u043c\u0435\u0440\u044b \u0440\u0435\u0430\u043b\u044c\u043d\u043e\u0433\u043e \u0432\u0438\u0434\u0430
1000
 \u0438\u043b\u0438 \u0441\u043e\u0440\u0442\u0430"}},"geometry_role":"SYMBOL_CENTER","validation":"RECHECK_REQUIRED","schema_version":2}
  0
CIRCLE
  5
5E
330
17
100
AcDbEntity
  8
GC_RESULT_1F93603DB5
420
2647107
100
AcDbCircle
 10
36.5
 20
3.5
 30
0.0
 40
1.5
1001
GREENCAD_EDIT_V1
1000
{"role":"placement","placement":{"id":"c1694b64997e5d5190f44df1c1c9d0c6","type_id":"T1","x":36.5,"y":3.5,"plant_id":null,"root_protection":false,"locked":false,"label":"T1 \u00b7 \u0430\u0432\u0442\u0
1000
43e 12","properties":{"generation":{"job_id":"8c5634d6b6527b7dafb3eea91a7846ab1a5af75b60634ba903af72bad8ea2005","version":"1.0","zone_id":"green_01","grid_index":110,"step_m":1.0,"order_and_caps":[["T
1000
1",20],["T2",20],["T3",20],["T4",20]]}}},"project_type":{"id":"T1","name":"\u041a\u0440\u0443\u043f\u043d\u044b\u0439 \u2014 \u043f\u0440\u043e\u0435\u043a\u0442\u043d\u044b\u0439 \u0448\u0430\u0431\u
1000
043b\u043e\u043d","category":"tree","radius_m":1.5,"color":"#286443","plant_id":null,"symbol":"circle","properties":{},"template":{"schema_version":1,"limits":{"crown_radius_m":1.5},"requirements":{"p
1000
lant.drained_soil_required":true,"plant.loose_soil_required":true,"plant.unsalted_soil_required":true,"plant.uncompacted_soil_required":true,"plant.stagnant_water_exclusion":true},"minimum_distances_m
1000
":{"project.gas":3.0,"R.spacing":3.0},"moisture_range":[0.3,0.7],"root_protection":"FORBIDDEN","filters":[],"state_label":"\u0423\u0441\u043b\u043e\u0432\u043d\u044b\u0439 \u0442\u0435\u0441\u0442\u04
1000
3e\u0432\u044b\u0439 \u0433\u0430\u0431\u0430\u0440\u0438\u0442; \u043d\u0435 \u0440\u0430\u0437\u043c\u0435\u0440\u044b \u0440\u0435\u0430\u043b\u044c\u043d\u043e\u0433\u043e \u0432\u0438\u0434\u0430
1000
 \u0438\u043b\u0438 \u0441\u043e\u0440\u0442\u0430"}},"geometry_role":"SYMBOL_CENTER","validation":"RECHECK_REQUIRED","schema_version":2}
  0
CIRCLE
  5
5F
330
17
100
AcDbEntity
  8
GC_RESULT_1F93603DB5
420
2647107
100
AcDbCircle
 10
39.5
 20
3.5
 30
0.0
 40
1.5
1001
GREENCAD_EDIT_V1
1000
{"role":"placement","placement":{"id":"6d1b5bee0ada587a87fdc642988923d1","type_id":"T1","x":39.5,"y":3.5,"plant_id":null,"root_protection":false,"locked":false,"label":"T1 \u00b7 \u0430\u0432\u0442\u0
1000
43e 13","properties":{"generation":{"job_id":"8c5634d6b6527b7dafb3eea91a7846ab1a5af75b60634ba903af72bad8ea2005","version":"1.0","zone_id":"green_01","grid_index":113,"step_m":1.0,"order_and_caps":[["T
1000
1",20],["T2",20],["T3",20],["T4",20]]}}},"project_type":{"id":"T1","name":"\u041a\u0440\u0443\u043f\u043d\u044b\u0439 \u2014 \u043f\u0440\u043e\u0435\u043a\u0442\u043d\u044b\u0439 \u0448\u0430\u0431\u
1000
043b\u043e\u043d","category":"tree","radius_m":1.5,"color":"#286443","plant_id":null,"symbol":"circle","properties":{},"template":{"schema_version":1,"limits":{"crown_radius_m":1.5},"requirements":{"p
1000
lant.drained_soil_required":true,"plant.loose_soil_required":true,"plant.unsalted_soil_required":true,"plant.uncompacted_soil_required":true,"plant.stagnant_water_exclusion":true},"minimum_distances_m
1000
":{"project.gas":3.0,"R.spacing":3.0},"moisture_range":[0.3,0.7],"root_protection":"FORBIDDEN","filters":[],"state_label":"\u0423\u0441\u043b\u043e\u0432\u043d\u044b\u0439 \u0442\u0435\u0441\u0442\u04
1000
3e\u0432\u044b\u0439 \u0433\u0430\u0431\u0430\u0440\u0438\u0442; \u043d\u0435 \u0440\u0430\u0437\u043c\u0435\u0440\u044b \u0440\u0435\u0430\u043b\u044c\u043d\u043e\u0433\u043e \u0432\u0438\u0434\u0430
1000
 \u0438\u043b\u0438 \u0441\u043e\u0440\u0442\u0430"}},"geometry_role":"SYMBOL_CENTER","validation":"RECHECK_REQUIRED","schema_version":2}
  0
CIRCLE
  5
60
330
17
100
AcDbEntity
  8
GC_RESULT_1F93603DB5
420
2647107
100
AcDbCircle
 10
42.5
 20
3.5
 30
0.0
 40
1.5
1001
GREENCAD_EDIT_V1
1000
{"role":"placement","placement":{"id":"10a83b172fdf516094b37eeff4967381","type_id":"T1","x":42.5,"y":3.5,"plant_id":null,"root_protection":false,"locked":false,"label":"T1 \u00b7 \u0430\u0432\u0442\u0
1000
43e 14","properties":{"generation":{"job_id":"8c5634d6b6527b7dafb3eea91a7846ab1a5af75b60634ba903af72bad8ea2005","version":"1.0","zone_id":"green_01","grid_index":116,"step_m":1.0,"order_and_caps":[["T
1000
1",20],["T2",20],["T3",20],["T4",20]]}}},"project_type":{"id":"T1","name":"\u041a\u0440\u0443\u043f\u043d\u044b\u0439 \u2014 \u043f\u0440\u043e\u0435\u043a\u0442\u043d\u044b\u0439 \u0448\u0430\u0431\u
1000
043b\u043e\u043d","category":"tree","radius_m":1.5,"color":"#286443","plant_id":null,"symbol":"circle","properties":{},"template":{"schema_version":1,"limits":{"crown_radius_m":1.5},"requirements":{"p
1000
lant.drained_soil_required":true,"plant.loose_soil_required":true,"plant.unsalted_soil_required":true,"plant.uncompacted_soil_required":true,"plant.stagnant_water_exclusion":true},"minimum_distances_m
1000
":{"project.gas":3.0,"R.spacing":3.0},"moisture_range":[0.3,0.7],"root_protection":"FORBIDDEN","filters":[],"state_label":"\u0423\u0441\u043b\u043e\u0432\u043d\u044b\u0439 \u0442\u0435\u0441\u0442\u04
1000
3e\u0432\u044b\u0439 \u0433\u0430\u0431\u0430\u0440\u0438\u0442; \u043d\u0435 \u0440\u0430\u0437\u043c\u0435\u0440\u044b \u0440\u0435\u0430\u043b\u044c\u043d\u043e\u0433\u043e \u0432\u0438\u0434\u0430
1000
 \u0438\u043b\u0438 \u0441\u043e\u0440\u0442\u0430"}},"geometry_role":"SYMBOL_CENTER","validation":"RECHECK_REQUIRED","schema_version":2}
  0
CIRCLE
  5
61
330
17
100
AcDbEntity
  8
GC_RESULT_1F93603DB5
420
2647107
100
AcDbCircle
 10
45.5
 20
3.5
 30
0.0
 40
1.5
1001
GREENCAD_EDIT_V1
1000
{"role":"placement","placement":{"id":"368560526ab55e62915243b0d9e06e93","type_id":"T1","x":45.5,"y":3.5,"plant_id":null,"root_protection":false,"locked":false,"label":"T1 \u00b7 \u0430\u0432\u0442\u0
1000
43e 15","properties":{"generation":{"job_id":"8c5634d6b6527b7dafb3eea91a7846ab1a5af75b60634ba903af72bad8ea2005","version":"1.0","zone_id":"green_01","grid_index":119,"step_m":1.0,"order_and_caps":[["T
1000
1",20],["T2",20],["T3",20],["T4",20]]}}},"project_type":{"id":"T1","name":"\u041a\u0440\u0443\u043f\u043d\u044b\u0439 \u2014 \u043f\u0440\u043e\u0435\u043a\u0442\u043d\u044b\u0439 \u0448\u0430\u0431\u
1000
043b\u043e\u043d","category":"tree","radius_m":1.5,"color":"#286443","plant_id":null,"symbol":"circle","properties":{},"template":{"schema_version":1,"limits":{"crown_radius_m":1.5},"requirements":{"p
1000
lant.drained_soil_required":true,"plant.loose_soil_required":true,"plant.unsalted_soil_required":true,"plant.uncompacted_soil_required":true,"plant.stagnant_water_exclusion":true},"minimum_distances_m
1000
":{"project.gas":3.0,"R.spacing":3.0},"moisture_range":[0.3,0.7],"root_protection":"FORBIDDEN","filters":[],"state_label":"\u0423\u0441\u043b\u043e\u0432\u043d\u044b\u0439 \u0442\u0435\u0441\u0442\u04
1000
3e\u0432\u044b\u0439 \u0433\u0430\u0431\u0430\u0440\u0438\u0442; \u043d\u0435 \u0440\u0430\u0437\u043c\u0435\u0440\u044b \u0440\u0435\u0430\u043b\u044c\u043d\u043e\u0433\u043e \u0432\u0438\u0434\u0430
1000
 \u0438\u043b\u0438 \u0441\u043e\u0440\u0442\u0430"}},"geometry_role":"SYMBOL_CENTER","validation":"RECHECK_REQUIRED","schema_version":2}
  0
CIRCLE
  5
62
330
17
100
AcDbEntity
  8
GC_RESULT_1F93603DB5
420
2647107
100
AcDbCircle
 10
48.5
 20
3.5
 30
0.0
 40
1.5
1001
GREENCAD_EDIT_V1
1000
{"role":"placement","placement":{"id":"88d72e9804e251118d0fd69059532fa7","type_id":"T1","x":48.5,"y":3.5,"plant_id":null,"root_protection":false,"locked":false,"label":"T1 \u00b7 \u0430\u0432\u0442\u0
1000
43e 16","properties":{"generation":{"job_id":"8c5634d6b6527b7dafb3eea91a7846ab1a5af75b60634ba903af72bad8ea2005","version":"1.0","zone_id":"green_01","grid_index":122,"step_m":1.0,"order_and_caps":[["T
1000
1",20],["T2",20],["T3",20],["T4",20]]}}},"project_type":{"id":"T1","name":"\u041a\u0440\u0443\u043f\u043d\u044b\u0439 \u2014 \u043f\u0440\u043e\u0435\u043a\u0442\u043d\u044b\u0439 \u0448\u0430\u0431\u
1000
043b\u043e\u043d","category":"tree","radius_m":1.5,"color":"#286443","plant_id":null,"symbol":"circle","properties":{},"template":{"schema_version":1,"limits":{"crown_radius_m":1.5},"requirements":{"p
1000
lant.drained_soil_required":true,"plant.loose_soil_required":true,"plant.unsalted_soil_required":true,"plant.uncompacted_soil_required":true,"plant.stagnant_water_exclusion":true},"minimum_distances_m
1000
":{"project.gas":3.0,"R.spacing":3.0},"moisture_range":[0.3,0.7],"root_protection":"FORBIDDEN","filters":[],"state_label":"\u0423\u0441\u043b\u043e\u0432\u043d\u044b\u0439 \u0442\u0435\u0441\u0442\u04
1000
3e\u0432\u044b\u0439 \u0433\u0430\u0431\u0430\u0440\u0438\u0442; \u043d\u0435 \u0440\u0430\u0437\u043c\u0435\u0440\u044b \u0440\u0435\u0430\u043b\u044c\u043d\u043e\u0433\u043e \u0432\u0438\u0434\u0430
1000
 \u0438\u043b\u0438 \u0441\u043e\u0440\u0442\u0430"}},"geometry_role":"SYMBOL_CENTER","validation":"RECHECK_REQUIRED","schema_version":2}
  0
CIRCLE
  5
63
330
17
100
AcDbEntity
  8
GC_RESULT_1F93603DB5
420
2647107
100
AcDbCircle
 10
51.5
 20
3.5
 30
0.0
 40
1.5
1001
GREENCAD_EDIT_V1
1000
{"role":"placement","placement":{"id":"18bdcf96b0635fa4b4e5050f684ec4c5","type_id":"T1","x":51.5,"y":3.5,"plant_id":null,"root_protection":false,"locked":false,"label":"T1 \u00b7 \u0430\u0432\u0442\u0
1000
43e 17","properties":{"generation":{"job_id":"8c5634d6b6527b7dafb3eea91a7846ab1a5af75b60634ba903af72bad8ea2005","version":"1.0","zone_id":"green_01","grid_index":125,"step_m":1.0,"order_and_caps":[["T
1000
1",20],["T2",20],["T3",20],["T4",20]]}}},"project_type":{"id":"T1","name":"\u041a\u0440\u0443\u043f\u043d\u044b\u0439 \u2014 \u043f\u0440\u043e\u0435\u043a\u0442\u043d\u044b\u0439 \u0448\u0430\u0431\u
1000
043b\u043e\u043d","category":"tree","radius_m":1.5,"color":"#286443","plant_id":null,"symbol":"circle","properties":{},"template":{"schema_version":1,"limits":{"crown_radius_m":1.5},"requirements":{"p
1000
lant.drained_soil_required":true,"plant.loose_soil_required":true,"plant.unsalted_soil_required":true,"plant.uncompacted_soil_required":true,"plant.stagnant_water_exclusion":true},"minimum_distances_m
1000
":{"project.gas":3.0,"R.spacing":3.0},"moisture_range":[0.3,0.7],"root_protection":"FORBIDDEN","filters":[],"state_label":"\u0423\u0441\u043b\u043e\u0432\u043d\u044b\u0439 \u0442\u0435\u0441\u0442\u04
1000
3e\u0432\u044b\u0439 \u0433\u0430\u0431\u0430\u0440\u0438\u0442; \u043d\u0435 \u0440\u0430\u0437\u043c\u0435\u0440\u044b \u0440\u0435\u0430\u043b\u044c\u043d\u043e\u0433\u043e \u0432\u0438\u0434\u0430
1000
 \u0438\u043b\u0438 \u0441\u043e\u0440\u0442\u0430"}},"geometry_role":"SYMBOL_CENTER","validation":"RECHECK_REQUIRED","schema_version":2}
  0
CIRCLE
  5
64
330
17
100
AcDbEntity
  8
GC_RESULT_1F93603DB5
420
2647107
100
AcDbCircle
 10
54.5
 20
3.5
 30
0.0
 40
1.5
1001
GREENCAD_EDIT_V1
1000
{"role":"placement","placement":{"id":"9ed947dd848053e68bb35bc033342585","type_id":"T1","x":54.5,"y":3.5,"plant_id":null,"root_protection":false,"locked":false,"label":"T1 \u00b7 \u0430\u0432\u0442\u0
1000
43e 18","properties":{"generation":{"job_id":"8c5634d6b6527b7dafb3eea91a7846ab1a5af75b60634ba903af72bad8ea2005","version":"1.0","zone_id":"green_01","grid_index":128,"step_m":1.0,"order_and_caps":[["T
1000
1",20],["T2",20],["T3",20],["T4",20]]}}},"project_type":{"id":"T1","name":"\u041a\u0440\u0443\u043f\u043d\u044b\u0439 \u2014 \u043f\u0440\u043e\u0435\u043a\u0442\u043d\u044b\u0439 \u0448\u0430\u0431\u
1000
043b\u043e\u043d","category":"tree","radius_m":1.5,"color":"#286443","plant_id":null,"symbol":"circle","properties":{},"template":{"schema_version":1,"limits":{"crown_radius_m":1.5},"requirements":{"p
1000
lant.drained_soil_required":true,"plant.loose_soil_required":true,"plant.unsalted_soil_required":true,"plant.uncompacted_soil_required":true,"plant.stagnant_water_exclusion":true},"minimum_distances_m
1000
":{"project.gas":3.0,"R.spacing":3.0},"moisture_range":[0.3,0.7],"root_protection":"FORBIDDEN","filters":[],"state_label":"\u0423\u0441\u043b\u043e\u0432\u043d\u044b\u0439 \u0442\u0435\u0441\u0442\u04
1000
3e\u0432\u044b\u0439 \u0433\u0430\u0431\u0430\u0440\u0438\u0442; \u043d\u0435 \u0440\u0430\u0437\u043c\u0435\u0440\u044b \u0440\u0435\u0430\u043b\u044c\u043d\u043e\u0433\u043e \u0432\u0438\u0434\u0430
1000
 \u0438\u043b\u0438 \u0441\u043e\u0440\u0442\u0430"}},"geometry_role":"SYMBOL_CENTER","validation":"RECHECK_REQUIRED","schema_version":2}
  0
CIRCLE
  5
65
330
17
100
AcDbEntity
  8
GC_RESULT_1F93603DB5
420
2647107
100
AcDbCircle
 10
57.5
 20
3.5
 30
0.0
 40
1.5
1001
GREENCAD_EDIT_V1
1000
{"role":"placement","placement":{"id":"8aa26485cdbc5c2bb854bc006d71e672","type_id":"T1","x":57.5,"y":3.5,"plant_id":null,"root_protection":false,"locked":false,"label":"T1 \u00b7 \u0430\u0432\u0442\u0
1000
43e 19","properties":{"generation":{"job_id":"8c5634d6b6527b7dafb3eea91a7846ab1a5af75b60634ba903af72bad8ea2005","version":"1.0","zone_id":"green_01","grid_index":131,"step_m":1.0,"order_and_caps":[["T
1000
1",20],["T2",20],["T3",20],["T4",20]]}}},"project_type":{"id":"T1","name":"\u041a\u0440\u0443\u043f\u043d\u044b\u0439 \u2014 \u043f\u0440\u043e\u0435\u043a\u0442\u043d\u044b\u0439 \u0448\u0430\u0431\u
1000
043b\u043e\u043d","category":"tree","radius_m":1.5,"color":"#286443","plant_id":null,"symbol":"circle","properties":{},"template":{"schema_version":1,"limits":{"crown_radius_m":1.5},"requirements":{"p
1000
lant.drained_soil_required":true,"plant.loose_soil_required":true,"plant.unsalted_soil_required":true,"plant.uncompacted_soil_required":true,"plant.stagnant_water_exclusion":true},"minimum_distances_m
1000
":{"project.gas":3.0,"R.spacing":3.0},"moisture_range":[0.3,0.7],"root_protection":"FORBIDDEN","filters":[],"state_label":"\u0423\u0441\u043b\u043e\u0432\u043d\u044b\u0439 \u0442\u0435\u0441\u0442\u04
1000
3e\u0432\u044b\u0439 \u0433\u0430\u0431\u0430\u0440\u0438\u0442; \u043d\u0435 \u0440\u0430\u0437\u043c\u0435\u0440\u044b \u0440\u0435\u0430\u043b\u044c\u043d\u043e\u0433\u043e \u0432\u0438\u0434\u0430
1000
 \u0438\u043b\u0438 \u0441\u043e\u0440\u0442\u0430"}},"geometry_role":"SYMBOL_CENTER","validation":"RECHECK_REQUIRED","schema_version":2}
  0
CIRCLE
  5
66
330
17
100
AcDbEntity
  8
GC_RESULT_1F93603DB5
420
2647107
100
AcDbCircle
 10
60.5
 20
3.5
 30
0.0
 40
1.5
1001
GREENCAD_EDIT_V1
1000
{"role":"placement","placement":{"id":"2cddeb471596554aa38fda5c228af9d6","type_id":"T1","x":60.5,"y":3.5,"plant_id":null,"root_protection":false,"locked":false,"label":"T1 \u00b7 \u0430\u0432\u0442\u0
1000
43e 20","properties":{"generation":{"job_id":"8c5634d6b6527b7dafb3eea91a7846ab1a5af75b60634ba903af72bad8ea2005","version":"1.0","zone_id":"green_01","grid_index":134,"step_m":1.0,"order_and_caps":[["T
1000
1",20],["T2",20],["T3",20],["T4",20]]}}},"project_type":{"id":"T1","name":"\u041a\u0440\u0443\u043f\u043d\u044b\u0439 \u2014 \u043f\u0440\u043e\u0435\u043a\u0442\u043d\u044b\u0439 \u0448\u0430\u0431\u
1000
043b\u043e\u043d","category":"tree","radius_m":1.5,"color":"#286443","plant_id":null,"symbol":"circle","properties":{},"template":{"schema_version":1,"limits":{"crown_radius_m":1.5},"requirements":{"p
1000
lant.drained_soil_required":true,"plant.loose_soil_required":true,"plant.unsalted_soil_required":true,"plant.uncompacted_soil_required":true,"plant.stagnant_water_exclusion":true},"minimum_distances_m
1000
":{"project.gas":3.0,"R.spacing":3.0},"moisture_range":[0.3,0.7],"root_protection":"FORBIDDEN","filters":[],"state_label":"\u0423\u0441\u043b\u043e\u0432\u043d\u044b\u0439 \u0442\u0435\u0441\u0442\u04
1000
3e\u0432\u044b\u0439 \u0433\u0430\u0431\u0430\u0440\u0438\u0442; \u043d\u0435 \u0440\u0430\u0437\u043c\u0435\u0440\u044b \u0440\u0435\u0430\u043b\u044c\u043d\u043e\u0433\u043e \u0432\u0438\u0434\u0430
1000
 \u0438\u043b\u0438 \u0441\u043e\u0440\u0442\u0430"}},"geometry_role":"SYMBOL_CENTER","validation":"RECHECK_REQUIRED","schema_version":2}
  0
CIRCLE
  5
67
330
17
100
AcDbEntity
  8
GC_RESULT_0F617BA98E
420
4226915
100
AcDbCircle
 10
63.5
 20
3.5
 30
0.0
 40
1.0
1001
GREENCAD_EDIT_V1
1000
{"role":"placement","placement":{"id":"2941859040325160a5006faf677e91dd","type_id":"T2","x":63.5,"y":3.5,"plant_id":null,"root_protection":false,"locked":false,"label":"T2 \u00b7 \u0430\u0432\u0442\u0
1000
43e 1","properties":{"generation":{"job_id":"8c5634d6b6527b7dafb3eea91a7846ab1a5af75b60634ba903af72bad8ea2005","version":"1.0","zone_id":"green_01","grid_index":137,"step_m":1.0,"order_and_caps":[["T1
1000
",20],["T2",20],["T3",20],["T4",20]]}}},"project_type":{"id":"T2","name":"\u0421\u0440\u0435\u0434\u043d\u0438\u0439 \u0410 \u2014 \u043f\u0440\u043e\u0435\u043a\u0442\u043d\u044b\u0439 \u0448\u0430\u
1000
0431\u043b\u043e\u043d","category":"tree","radius_m":1.0,"color":"#407F63","plant_id":null,"symbol":"circle","properties":{},"template":{"schema_version":1,"limits":{"crown_radius_m":1.0},"requirement
1000
s":{"plant.drained_soil_required":true,"plant.loose_soil_required":true,"plant.unsalted_soil_required":true,"plant.uncompacted_soil_required":true,"plant.stagnant_water_exclusion":true},"minimum_dista
1000
nces_m":{"project.gas":4.0,"R.spacing":3.0},"moisture_range":[0.3,0.7],"root_protection":"ANY","filters":[],"state_label":"\u0423\u0441\u043b\u043e\u0432\u043d\u044b\u0439 \u0442\u0435\u0441\u0442\u04
1000
3e\u0432\u044b\u0439 \u0433\u0430\u0431\u0430\u0440\u0438\u0442; \u043d\u0435 \u0440\u0430\u0437\u043c\u0435\u0440\u044b \u0440\u0435\u0430\u043b\u044c\u043d\u043e\u0433\u043e \u0432\u0438\u0434\u0430
1000
 \u0438\u043b\u0438 \u0441\u043e\u0440\u0442\u0430"}},"geometry_role":"SYMBOL_CENTER","validation":"RECHECK_REQUIRED","schema_version":2}
  0
CIRCLE
  5
68
330
17
100
AcDbEntity
  8
GC_RESULT_0F617BA98E
420
4226915
100
AcDbCircle
 10
66.5
 20
3.5
 30
0.0
 40
1.0
1001
GREENCAD_EDIT_V1
1000
{"role":"placement","placement":{"id":"9b057fcfffb45f18849edcc2833b6b73","type_id":"T2","x":66.5,"y":3.5,"plant_id":null,"root_protection":false,"locked":false,"label":"T2 \u00b7 \u0430\u0432\u0442\u0
1000
43e 2","properties":{"generation":{"job_id":"8c5634d6b6527b7dafb3eea91a7846ab1a5af75b60634ba903af72bad8ea2005","version":"1.0","zone_id":"green_01","grid_index":140,"step_m":1.0,"order_and_caps":[["T1
1000
",20],["T2",20],["T3",20],["T4",20]]}}},"project_type":{"id":"T2","name":"\u0421\u0440\u0435\u0434\u043d\u0438\u0439 \u0410 \u2014 \u043f\u0440\u043e\u0435\u043a\u0442\u043d\u044b\u0439 \u0448\u0430\u
1000
0431\u043b\u043e\u043d","category":"tree","radius_m":1.0,"color":"#407F63","plant_id":null,"symbol":"circle","properties":{},"template":{"schema_version":1,"limits":{"crown_radius_m":1.0},"requirement
1000
s":{"plant.drained_soil_required":true,"plant.loose_soil_required":true,"plant.unsalted_soil_required":true,"plant.uncompacted_soil_required":true,"plant.stagnant_water_exclusion":true},"minimum_dista
1000
nces_m":{"project.gas":4.0,"R.spacing":3.0},"moisture_range":[0.3,0.7],"root_protection":"ANY","filters":[],"state_label":"\u0423\u0441\u043b\u043e\u0432\u043d\u044b\u0439 \u0442\u0435\u0441\u0442\u04
1000
3e\u0432\u044b\u0439 \u0433\u0430\u0431\u0430\u0440\u0438\u0442; \u043d\u0435 \u0440\u0430\u0437\u043c\u0435\u0440\u044b \u0440\u0435\u0430\u043b\u044c\u043d\u043e\u0433\u043e \u0432\u0438\u0434\u0430
1000
 \u0438\u043b\u0438 \u0441\u043e\u0440\u0442\u0430"}},"geometry_role":"SYMBOL_CENTER","validation":"RECHECK_REQUIRED","schema_version":2}
  0
CIRCLE
  5
69
330
17
100
AcDbEntity
  8
GC_RESULT_0F617BA98E
420
4226915
100
AcDbCircle
 10
69.5
 20
3.5
 30
0.0
 40
1.0
1001
GREENCAD_EDIT_V1
1000
{"role":"placement","placement":{"id":"41626b117f2659c2bfde5d52d85a24a2","type_id":"T2","x":69.5,"y":3.5,"plant_id":null,"root_protection":false,"locked":false,"label":"T2 \u00b7 \u0430\u0432\u0442\u0
1000
43e 3","properties":{"generation":{"job_id":"8c5634d6b6527b7dafb3eea91a7846ab1a5af75b60634ba903af72bad8ea2005","version":"1.0","zone_id":"green_01","grid_index":143,"step_m":1.0,"order_and_caps":[["T1
1000
",20],["T2",20],["T3",20],["T4",20]]}}},"project_type":{"id":"T2","name":"\u0421\u0440\u0435\u0434\u043d\u0438\u0439 \u0410 \u2014 \u043f\u0440\u043e\u0435\u043a\u0442\u043d\u044b\u0439 \u0448\u0430\u
1000
0431\u043b\u043e\u043d","category":"tree","radius_m":1.0,"color":"#407F63","plant_id":null,"symbol":"circle","properties":{},"template":{"schema_version":1,"limits":{"crown_radius_m":1.0},"requirement
1000
s":{"plant.drained_soil_required":true,"plant.loose_soil_required":true,"plant.unsalted_soil_required":true,"plant.uncompacted_soil_required":true,"plant.stagnant_water_exclusion":true},"minimum_dista
1000
nces_m":{"project.gas":4.0,"R.spacing":3.0},"moisture_range":[0.3,0.7],"root_protection":"ANY","filters":[],"state_label":"\u0423\u0441\u043b\u043e\u0432\u043d\u044b\u0439 \u0442\u0435\u0441\u0442\u04
1000
3e\u0432\u044b\u0439 \u0433\u0430\u0431\u0430\u0440\u0438\u0442; \u043d\u0435 \u0440\u0430\u0437\u043c\u0435\u0440\u044b \u0440\u0435\u0430\u043b\u044c\u043d\u043e\u0433\u043e \u0432\u0438\u0434\u0430
1000
 \u0438\u043b\u0438 \u0441\u043e\u0440\u0442\u0430"}},"geometry_role":"SYMBOL_CENTER","validation":"RECHECK_REQUIRED","schema_version":2}
  0
CIRCLE
  5
6A
330
17
100
AcDbEntity
  8
GC_RESULT_0F617BA98E
420
4226915
100
AcDbCircle
 10
72.5
 20
3.5
 30
0.0
 40
1.0
1001
GREENCAD_EDIT_V1
1000
{"role":"placement","placement":{"id":"a1e64600e17654009c6ccbba10420ae9","type_id":"T2","x":72.5,"y":3.5,"plant_id":null,"root_protection":false,"locked":false,"label":"T2 \u00b7 \u0430\u0432\u0442\u0
1000
43e 4","properties":{"generation":{"job_id":"8c5634d6b6527b7dafb3eea91a7846ab1a5af75b60634ba903af72bad8ea2005","version":"1.0","zone_id":"green_01","grid_index":146,"step_m":1.0,"order_and_caps":[["T1
1000
",20],["T2",20],["T3",20],["T4",20]]}}},"project_type":{"id":"T2","name":"\u0421\u0440\u0435\u0434\u043d\u0438\u0439 \u0410 \u2014 \u043f\u0440\u043e\u0435\u043a\u0442\u043d\u044b\u0439 \u0448\u0430\u
1000
0431\u043b\u043e\u043d","category":"tree","radius_m":1.0,"color":"#407F63","plant_id":null,"symbol":"circle","properties":{},"template":{"schema_version":1,"limits":{"crown_radius_m":1.0},"requirement
1000
s":{"plant.drained_soil_required":true,"plant.loose_soil_required":true,"plant.unsalted_soil_required":true,"plant.uncompacted_soil_required":true,"plant.stagnant_water_exclusion":true},"minimum_dista
1000
nces_m":{"project.gas":4.0,"R.spacing":3.0},"moisture_range":[0.3,0.7],"root_protection":"ANY","filters":[],"state_label":"\u0423\u0441\u043b\u043e\u0432\u043d\u044b\u0439 \u0442\u0435\u0441\u0442\u04
1000
3e\u0432\u044b\u0439 \u0433\u0430\u0431\u0430\u0440\u0438\u0442; \u043d\u0435 \u0440\u0430\u0437\u043c\u0435\u0440\u044b \u0440\u0435\u0430\u043b\u044c\u043d\u043e\u0433\u043e \u0432\u0438\u0434\u0430
1000
 \u0438\u043b\u0438 \u0441\u043e\u0440\u0442\u0430"}},"geometry_role":"SYMBOL_CENTER","validation":"RECHECK_REQUIRED","schema_version":2}
  0
CIRCLE
  5
6B
330
17
100
AcDbEntity
  8
GC_RESULT_0F617BA98E
420
4226915
100
AcDbCircle
 10
75.5
 20
3.5
 30
0.0
 40
1.0
1001
GREENCAD_EDIT_V1
1000
{"role":"placement","placement":{"id":"6ab2d7db4cfc532b894fa8b814953268","type_id":"T2","x":75.5,"y":3.5,"plant_id":null,"root_protection":false,"locked":false,"label":"T2 \u00b7 \u0430\u0432\u0442\u0
1000
43e 5","properties":{"generation":{"job_id":"8c5634d6b6527b7dafb3eea91a7846ab1a5af75b60634ba903af72bad8ea2005","version":"1.0","zone_id":"green_01","grid_index":149,"step_m":1.0,"order_and_caps":[["T1
1000
",20],["T2",20],["T3",20],["T4",20]]}}},"project_type":{"id":"T2","name":"\u0421\u0440\u0435\u0434\u043d\u0438\u0439 \u0410 \u2014 \u043f\u0440\u043e\u0435\u043a\u0442\u043d\u044b\u0439 \u0448\u0430\u
1000
0431\u043b\u043e\u043d","category":"tree","radius_m":1.0,"color":"#407F63","plant_id":null,"symbol":"circle","properties":{},"template":{"schema_version":1,"limits":{"crown_radius_m":1.0},"requirement
1000
s":{"plant.drained_soil_required":true,"plant.loose_soil_required":true,"plant.unsalted_soil_required":true,"plant.uncompacted_soil_required":true,"plant.stagnant_water_exclusion":true},"minimum_dista
1000
nces_m":{"project.gas":4.0,"R.spacing":3.0},"moisture_range":[0.3,0.7],"root_protection":"ANY","filters":[],"state_label":"\u0423\u0441\u043b\u043e\u0432\u043d\u044b\u0439 \u0442\u0435\u0441\u0442\u04
1000
3e\u0432\u044b\u0439 \u0433\u0430\u0431\u0430\u0440\u0438\u0442; \u043d\u0435 \u0440\u0430\u0437\u043c\u0435\u0440\u044b \u0440\u0435\u0430\u043b\u044c\u043d\u043e\u0433\u043e \u0432\u0438\u0434\u0430
1000
 \u0438\u043b\u0438 \u0441\u043e\u0440\u0442\u0430"}},"geometry_role":"SYMBOL_CENTER","validation":"RECHECK_REQUIRED","schema_version":2}
  0
CIRCLE
  5
6C
330
17
100
AcDbEntity
  8
GC_RESULT_0F617BA98E
420
4226915
100
AcDbCircle
 10
3.5
 20
6.5
 30
0.0
 40
1.0
1001
GREENCAD_EDIT_V1
1000
{"role":"placement","placement":{"id":"12333a1ffea65dcc977a17cc4248e695","type_id":"T2","x":3.5,"y":6.5,"plant_id":null,"root_protection":false,"locked":false,"label":"T2 \u00b7 \u0430\u0432\u0442\u04
1000
3e 6","properties":{"generation":{"job_id":"8c5634d6b6527b7dafb3eea91a7846ab1a5af75b60634ba903af72bad8ea2005","version":"1.0","zone_id":"green_01","grid_index":305,"step_m":1.0,"order_and_caps":[["T1"
1000
,20],["T2",20],["T3",20],["T4",20]]}}},"project_type":{"id":"T2","name":"\u0421\u0440\u0435\u0434\u043d\u0438\u0439 \u0410 \u2014 \u043f\u0440\u043e\u0435\u043a\u0442\u043d\u044b\u0439 \u0448\u0430\u0
1000
431\u043b\u043e\u043d","category":"tree","radius_m":1.0,"color":"#407F63","plant_id":null,"symbol":"circle","properties":{},"template":{"schema_version":1,"limits":{"crown_radius_m":1.0},"requirements
1000
":{"plant.drained_soil_required":true,"plant.loose_soil_required":true,"plant.unsalted_soil_required":true,"plant.uncompacted_soil_required":true,"plant.stagnant_water_exclusion":true},"minimum_distan
1000
ces_m":{"project.gas":4.0,"R.spacing":3.0},"moisture_range":[0.3,0.7],"root_protection":"ANY","filters":[],"state_label":"\u0423\u0441\u043b\u043e\u0432\u043d\u044b\u0439 \u0442\u0435\u0441\u0442\u043
1000
e\u0432\u044b\u0439 \u0433\u0430\u0431\u0430\u0440\u0438\u0442; \u043d\u0435 \u0440\u0430\u0437\u043c\u0435\u0440\u044b \u0440\u0435\u0430\u043b\u044c\u043d\u043e\u0433\u043e \u0432\u0438\u0434\u0430 
1000
\u0438\u043b\u0438 \u0441\u043e\u0440\u0442\u0430"}},"geometry_role":"SYMBOL_CENTER","validation":"RECHECK_REQUIRED","schema_version":2}
  0
CIRCLE
  5
6D
330
17
100
AcDbEntity
  8
GC_RESULT_0F617BA98E
420
4226915
100
AcDbCircle
 10
6.5
 20
6.5
 30
0.0
 40
1.0
1001
GREENCAD_EDIT_V1
1000
{"role":"placement","placement":{"id":"0d7edb252a07538a871d26a8c6fe4224","type_id":"T2","x":6.5,"y":6.5,"plant_id":null,"root_protection":false,"locked":false,"label":"T2 \u00b7 \u0430\u0432\u0442\u04
1000
3e 7","properties":{"generation":{"job_id":"8c5634d6b6527b7dafb3eea91a7846ab1a5af75b60634ba903af72bad8ea2005","version":"1.0","zone_id":"green_01","grid_index":308,"step_m":1.0,"order_and_caps":[["T1"
1000
,20],["T2",20],["T3",20],["T4",20]]}}},"project_type":{"id":"T2","name":"\u0421\u0440\u0435\u0434\u043d\u0438\u0439 \u0410 \u2014 \u043f\u0440\u043e\u0435\u043a\u0442\u043d\u044b\u0439 \u0448\u0430\u0
1000
431\u043b\u043e\u043d","category":"tree","radius_m":1.0,"color":"#407F63","plant_id":null,"symbol":"circle","properties":{},"template":{"schema_version":1,"limits":{"crown_radius_m":1.0},"requirements
1000
":{"plant.drained_soil_required":true,"plant.loose_soil_required":true,"plant.unsalted_soil_required":true,"plant.uncompacted_soil_required":true,"plant.stagnant_water_exclusion":true},"minimum_distan
1000
ces_m":{"project.gas":4.0,"R.spacing":3.0},"moisture_range":[0.3,0.7],"root_protection":"ANY","filters":[],"state_label":"\u0423\u0441\u043b\u043e\u0432\u043d\u044b\u0439 \u0442\u0435\u0441\u0442\u043
1000
e\u0432\u044b\u0439 \u0433\u0430\u0431\u0430\u0440\u0438\u0442; \u043d\u0435 \u0440\u0430\u0437\u043c\u0435\u0440\u044b \u0440\u0435\u0430\u043b\u044c\u043d\u043e\u0433\u043e \u0432\u0438\u0434\u0430 
1000
\u0438\u043b\u0438 \u0441\u043e\u0440\u0442\u0430"}},"geometry_role":"SYMBOL_CENTER","validation":"RECHECK_REQUIRED","schema_version":2}
  0
CIRCLE
  5
6E
330
17
100
AcDbEntity
  8
GC_RESULT_0F617BA98E
420
4226915
100
AcDbCircle
 10
9.5
 20
6.5
 30
0.0
 40
1.0
1001
GREENCAD_EDIT_V1
1000
{"role":"placement","placement":{"id":"f2082a772de25d538cd957f7ddda8fcd","type_id":"T2","x":9.5,"y":6.5,"plant_id":null,"root_protection":false,"locked":false,"label":"T2 \u00b7 \u0430\u0432\u0442\u04
1000
3e 8","properties":{"generation":{"job_id":"8c5634d6b6527b7dafb3eea91a7846ab1a5af75b60634ba903af72bad8ea2005","version":"1.0","zone_id":"green_01","grid_index":311,"step_m":1.0,"order_and_caps":[["T1"
1000
,20],["T2",20],["T3",20],["T4",20]]}}},"project_type":{"id":"T2","name":"\u0421\u0440\u0435\u0434\u043d\u0438\u0439 \u0410 \u2014 \u043f\u0440\u043e\u0435\u043a\u0442\u043d\u044b\u0439 \u0448\u0430\u0
1000
431\u043b\u043e\u043d","category":"tree","radius_m":1.0,"color":"#407F63","plant_id":null,"symbol":"circle","properties":{},"template":{"schema_version":1,"limits":{"crown_radius_m":1.0},"requirements
1000
":{"plant.drained_soil_required":true,"plant.loose_soil_required":true,"plant.unsalted_soil_required":true,"plant.uncompacted_soil_required":true,"plant.stagnant_water_exclusion":true},"minimum_distan
1000
ces_m":{"project.gas":4.0,"R.spacing":3.0},"moisture_range":[0.3,0.7],"root_protection":"ANY","filters":[],"state_label":"\u0423\u0441\u043b\u043e\u0432\u043d\u044b\u0439 \u0442\u0435\u0441\u0442\u043
1000
e\u0432\u044b\u0439 \u0433\u0430\u0431\u0430\u0440\u0438\u0442; \u043d\u0435 \u0440\u0430\u0437\u043c\u0435\u0440\u044b \u0440\u0435\u0430\u043b\u044c\u043d\u043e\u0433\u043e \u0432\u0438\u0434\u0430 
1000
\u0438\u043b\u0438 \u0441\u043e\u0440\u0442\u0430"}},"geometry_role":"SYMBOL_CENTER","validation":"RECHECK_REQUIRED","schema_version":2}
  0
CIRCLE
  5
6F
330
17
100
AcDbEntity
  8
GC_RESULT_0F617BA98E
420
4226915
100
AcDbCircle
 10
12.5
 20
6.5
 30
0.0
 40
1.0
1001
GREENCAD_EDIT_V1
1000
{"role":"placement","placement":{"id":"1fb8c41fff6955c7ac181b86a8411129","type_id":"T2","x":12.5,"y":6.5,"plant_id":null,"root_protection":false,"locked":false,"label":"T2 \u00b7 \u0430\u0432\u0442\u0
1000
43e 9","properties":{"generation":{"job_id":"8c5634d6b6527b7dafb3eea91a7846ab1a5af75b60634ba903af72bad8ea2005","version":"1.0","zone_id":"green_01","grid_index":314,"step_m":1.0,"order_and_caps":[["T1
1000
",20],["T2",20],["T3",20],["T4",20]]}}},"project_type":{"id":"T2","name":"\u0421\u0440\u0435\u0434\u043d\u0438\u0439 \u0410 \u2014 \u043f\u0440\u043e\u0435\u043a\u0442\u043d\u044b\u0439 \u0448\u0430\u
1000
0431\u043b\u043e\u043d","category":"tree","radius_m":1.0,"color":"#407F63","plant_id":null,"symbol":"circle","properties":{},"template":{"schema_version":1,"limits":{"crown_radius_m":1.0},"requirement
1000
s":{"plant.drained_soil_required":true,"plant.loose_soil_required":true,"plant.unsalted_soil_required":true,"plant.uncompacted_soil_required":true,"plant.stagnant_water_exclusion":true},"minimum_dista
1000
nces_m":{"project.gas":4.0,"R.spacing":3.0},"moisture_range":[0.3,0.7],"root_protection":"ANY","filters":[],"state_label":"\u0423\u0441\u043b\u043e\u0432\u043d\u044b\u0439 \u0442\u0435\u0441\u0442\u04
1000
3e\u0432\u044b\u0439 \u0433\u0430\u0431\u0430\u0440\u0438\u0442; \u043d\u0435 \u0440\u0430\u0437\u043c\u0435\u0440\u044b \u0440\u0435\u0430\u043b\u044c\u043d\u043e\u0433\u043e \u0432\u0438\u0434\u0430
1000
 \u0438\u043b\u0438 \u0441\u043e\u0440\u0442\u0430"}},"geometry_role":"SYMBOL_CENTER","validation":"RECHECK_REQUIRED","schema_version":2}
  0
CIRCLE
  5
70
330
17
100
AcDbEntity
  8
GC_RESULT_0F617BA98E
420
4226915
100
AcDbCircle
 10
15.5
 20
6.5
 30
0.0
 40
1.0
1001
GREENCAD_EDIT_V1
1000
{"role":"placement","placement":{"id":"5f479bce850059a1a875db8864f6ff1a","type_id":"T2","x":15.5,"y":6.5,"plant_id":null,"root_protection":false,"locked":false,"label":"T2 \u00b7 \u0430\u0432\u0442\u0
1000
43e 10","properties":{"generation":{"job_id":"8c5634d6b6527b7dafb3eea91a7846ab1a5af75b60634ba903af72bad8ea2005","version":"1.0","zone_id":"green_01","grid_index":317,"step_m":1.0,"order_and_caps":[["T
1000
1",20],["T2",20],["T3",20],["T4",20]]}}},"project_type":{"id":"T2","name":"\u0421\u0440\u0435\u0434\u043d\u0438\u0439 \u0410 \u2014 \u043f\u0440\u043e\u0435\u043a\u0442\u043d\u044b\u0439 \u0448\u0430\
1000
u0431\u043b\u043e\u043d","category":"tree","radius_m":1.0,"color":"#407F63","plant_id":null,"symbol":"circle","properties":{},"template":{"schema_version":1,"limits":{"crown_radius_m":1.0},"requiremen
1000
ts":{"plant.drained_soil_required":true,"plant.loose_soil_required":true,"plant.unsalted_soil_required":true,"plant.uncompacted_soil_required":true,"plant.stagnant_water_exclusion":true},"minimum_dist
1000
ances_m":{"project.gas":4.0,"R.spacing":3.0},"moisture_range":[0.3,0.7],"root_protection":"ANY","filters":[],"state_label":"\u0423\u0441\u043b\u043e\u0432\u043d\u044b\u0439 \u0442\u0435\u0441\u0442\u0
1000
43e\u0432\u044b\u0439 \u0433\u0430\u0431\u0430\u0440\u0438\u0442; \u043d\u0435 \u0440\u0430\u0437\u043c\u0435\u0440\u044b \u0440\u0435\u0430\u043b\u044c\u043d\u043e\u0433\u043e \u0432\u0438\u0434\u043
1000
0 \u0438\u043b\u0438 \u0441\u043e\u0440\u0442\u0430"}},"geometry_role":"SYMBOL_CENTER","validation":"RECHECK_REQUIRED","schema_version":2}
  0
CIRCLE
  5
71
330
17
100
AcDbEntity
  8
GC_RESULT_0F617BA98E
420
4226915
100
AcDbCircle
 10
18.5
 20
6.5
 30
0.0
 40
1.0
1001
GREENCAD_EDIT_V1
1000
{"role":"placement","placement":{"id":"d0e070eff05754f788f9a52c2b979607","type_id":"T2","x":18.5,"y":6.5,"plant_id":null,"root_protection":false,"locked":false,"label":"T2 \u00b7 \u0430\u0432\u0442\u0
1000
43e 11","properties":{"generation":{"job_id":"8c5634d6b6527b7dafb3eea91a7846ab1a5af75b60634ba903af72bad8ea2005","version":"1.0","zone_id":"green_01","grid_index":320,"step_m":1.0,"order_and_caps":[["T
1000
1",20],["T2",20],["T3",20],["T4",20]]}}},"project_type":{"id":"T2","name":"\u0421\u0440\u0435\u0434\u043d\u0438\u0439 \u0410 \u2014 \u043f\u0440\u043e\u0435\u043a\u0442\u043d\u044b\u0439 \u0448\u0430\
1000
u0431\u043b\u043e\u043d","category":"tree","radius_m":1.0,"color":"#407F63","plant_id":null,"symbol":"circle","properties":{},"template":{"schema_version":1,"limits":{"crown_radius_m":1.0},"requiremen
1000
ts":{"plant.drained_soil_required":true,"plant.loose_soil_required":true,"plant.unsalted_soil_required":true,"plant.uncompacted_soil_required":true,"plant.stagnant_water_exclusion":true},"minimum_dist
1000
ances_m":{"project.gas":4.0,"R.spacing":3.0},"moisture_range":[0.3,0.7],"root_protection":"ANY","filters":[],"state_label":"\u0423\u0441\u043b\u043e\u0432\u043d\u044b\u0439 \u0442\u0435\u0441\u0442\u0
1000
43e\u0432\u044b\u0439 \u0433\u0430\u0431\u0430\u0440\u0438\u0442; \u043d\u0435 \u0440\u0430\u0437\u043c\u0435\u0440\u044b \u0440\u0435\u0430\u043b\u044c\u043d\u043e\u0433\u043e \u0432\u0438\u0434\u043
1000
0 \u0438\u043b\u0438 \u0441\u043e\u0440\u0442\u0430"}},"geometry_role":"SYMBOL_CENTER","validation":"RECHECK_REQUIRED","schema_version":2}
  0
CIRCLE
  5
72
330
17
100
AcDbEntity
  8
GC_RESULT_0F617BA98E
420
4226915
100
AcDbCircle
 10
21.5
 20
6.5
 30
0.0
 40
1.0
1001
GREENCAD_EDIT_V1
1000
{"role":"placement","placement":{"id":"5e55024e9e5e5f0aa8108032e43ef91f","type_id":"T2","x":21.5,"y":6.5,"plant_id":null,"root_protection":false,"locked":false,"label":"T2 \u00b7 \u0430\u0432\u0442\u0
1000
43e 12","properties":{"generation":{"job_id":"8c5634d6b6527b7dafb3eea91a7846ab1a5af75b60634ba903af72bad8ea2005","version":"1.0","zone_id":"green_01","grid_index":323,"step_m":1.0,"order_and_caps":[["T
1000
1",20],["T2",20],["T3",20],["T4",20]]}}},"project_type":{"id":"T2","name":"\u0421\u0440\u0435\u0434\u043d\u0438\u0439 \u0410 \u2014 \u043f\u0440\u043e\u0435\u043a\u0442\u043d\u044b\u0439 \u0448\u0430\
1000
u0431\u043b\u043e\u043d","category":"tree","radius_m":1.0,"color":"#407F63","plant_id":null,"symbol":"circle","properties":{},"template":{"schema_version":1,"limits":{"crown_radius_m":1.0},"requiremen
1000
ts":{"plant.drained_soil_required":true,"plant.loose_soil_required":true,"plant.unsalted_soil_required":true,"plant.uncompacted_soil_required":true,"plant.stagnant_water_exclusion":true},"minimum_dist
1000
ances_m":{"project.gas":4.0,"R.spacing":3.0},"moisture_range":[0.3,0.7],"root_protection":"ANY","filters":[],"state_label":"\u0423\u0441\u043b\u043e\u0432\u043d\u044b\u0439 \u0442\u0435\u0441\u0442\u0
1000
43e\u0432\u044b\u0439 \u0433\u0430\u0431\u0430\u0440\u0438\u0442; \u043d\u0435 \u0440\u0430\u0437\u043c\u0435\u0440\u044b \u0440\u0435\u0430\u043b\u044c\u043d\u043e\u0433\u043e \u0432\u0438\u0434\u043
1000
0 \u0438\u043b\u0438 \u0441\u043e\u0440\u0442\u0430"}},"geometry_role":"SYMBOL_CENTER","validation":"RECHECK_REQUIRED","schema_version":2}
  0
CIRCLE
  5
73
330
17
100
AcDbEntity
  8
GC_RESULT_0F617BA98E
420
4226915
100
AcDbCircle
 10
24.5
 20
6.5
 30
0.0
 40
1.0
1001
GREENCAD_EDIT_V1
1000
{"role":"placement","placement":{"id":"6888a21650d95dea8ccbbce0907cb144","type_id":"T2","x":24.5,"y":6.5,"plant_id":null,"root_protection":false,"locked":false,"label":"T2 \u00b7 \u0430\u0432\u0442\u0
1000
43e 13","properties":{"generation":{"job_id":"8c5634d6b6527b7dafb3eea91a7846ab1a5af75b60634ba903af72bad8ea2005","version":"1.0","zone_id":"green_01","grid_index":326,"step_m":1.0,"order_and_caps":[["T
1000
1",20],["T2",20],["T3",20],["T4",20]]}}},"project_type":{"id":"T2","name":"\u0421\u0440\u0435\u0434\u043d\u0438\u0439 \u0410 \u2014 \u043f\u0440\u043e\u0435\u043a\u0442\u043d\u044b\u0439 \u0448\u0430\
1000
u0431\u043b\u043e\u043d","category":"tree","radius_m":1.0,"color":"#407F63","plant_id":null,"symbol":"circle","properties":{},"template":{"schema_version":1,"limits":{"crown_radius_m":1.0},"requiremen
1000
ts":{"plant.drained_soil_required":true,"plant.loose_soil_required":true,"plant.unsalted_soil_required":true,"plant.uncompacted_soil_required":true,"plant.stagnant_water_exclusion":true},"minimum_dist
1000
ances_m":{"project.gas":4.0,"R.spacing":3.0},"moisture_range":[0.3,0.7],"root_protection":"ANY","filters":[],"state_label":"\u0423\u0441\u043b\u043e\u0432\u043d\u044b\u0439 \u0442\u0435\u0441\u0442\u0
1000
43e\u0432\u044b\u0439 \u0433\u0430\u0431\u0430\u0440\u0438\u0442; \u043d\u0435 \u0440\u0430\u0437\u043c\u0435\u0440\u044b \u0440\u0435\u0430\u043b\u044c\u043d\u043e\u0433\u043e \u0432\u0438\u0434\u043
1000
0 \u0438\u043b\u0438 \u0441\u043e\u0440\u0442\u0430"}},"geometry_role":"SYMBOL_CENTER","validation":"RECHECK_REQUIRED","schema_version":2}
  0
CIRCLE
  5
74
330
17
100
AcDbEntity
  8
GC_RESULT_0F617BA98E
420
4226915
100
AcDbCircle
 10
27.5
 20
6.5
 30
0.0
 40
1.0
1001
GREENCAD_EDIT_V1
1000
{"role":"placement","placement":{"id":"39252fd68177528bb0b4a1a2eb6f8521","type_id":"T2","x":27.5,"y":6.5,"plant_id":null,"root_protection":false,"locked":false,"label":"T2 \u00b7 \u0430\u0432\u0442\u0
1000
43e 14","properties":{"generation":{"job_id":"8c5634d6b6527b7dafb3eea91a7846ab1a5af75b60634ba903af72bad8ea2005","version":"1.0","zone_id":"green_01","grid_index":329,"step_m":1.0,"order_and_caps":[["T
1000
1",20],["T2",20],["T3",20],["T4",20]]}}},"project_type":{"id":"T2","name":"\u0421\u0440\u0435\u0434\u043d\u0438\u0439 \u0410 \u2014 \u043f\u0440\u043e\u0435\u043a\u0442\u043d\u044b\u0439 \u0448\u0430\
1000
u0431\u043b\u043e\u043d","category":"tree","radius_m":1.0,"color":"#407F63","plant_id":null,"symbol":"circle","properties":{},"template":{"schema_version":1,"limits":{"crown_radius_m":1.0},"requiremen
1000
ts":{"plant.drained_soil_required":true,"plant.loose_soil_required":true,"plant.unsalted_soil_required":true,"plant.uncompacted_soil_required":true,"plant.stagnant_water_exclusion":true},"minimum_dist
1000
ances_m":{"project.gas":4.0,"R.spacing":3.0},"moisture_range":[0.3,0.7],"root_protection":"ANY","filters":[],"state_label":"\u0423\u0441\u043b\u043e\u0432\u043d\u044b\u0439 \u0442\u0435\u0441\u0442\u0
1000
43e\u0432\u044b\u0439 \u0433\u0430\u0431\u0430\u0440\u0438\u0442; \u043d\u0435 \u0440\u0430\u0437\u043c\u0435\u0440\u044b \u0440\u0435\u0430\u043b\u044c\u043d\u043e\u0433\u043e \u0432\u0438\u0434\u043
1000
0 \u0438\u043b\u0438 \u0441\u043e\u0440\u0442\u0430"}},"geometry_role":"SYMBOL_CENTER","validation":"RECHECK_REQUIRED","schema_version":2}
  0
CIRCLE
  5
75
330
17
100
AcDbEntity
  8
GC_RESULT_0F617BA98E
420
4226915
100
AcDbCircle
 10
30.5
 20
6.5
 30
0.0
 40
1.0
1001
GREENCAD_EDIT_V1
1000
{"role":"placement","placement":{"id":"a16d21d2e4945026ba912b525005f178","type_id":"T2","x":30.5,"y":6.5,"plant_id":null,"root_protection":false,"locked":false,"label":"T2 \u00b7 \u0430\u0432\u0442\u0
1000
43e 15","properties":{"generation":{"job_id":"8c5634d6b6527b7dafb3eea91a7846ab1a5af75b60634ba903af72bad8ea2005","version":"1.0","zone_id":"green_01","grid_index":332,"step_m":1.0,"order_and_caps":[["T
1000
1",20],["T2",20],["T3",20],["T4",20]]}}},"project_type":{"id":"T2","name":"\u0421\u0440\u0435\u0434\u043d\u0438\u0439 \u0410 \u2014 \u043f\u0440\u043e\u0435\u043a\u0442\u043d\u044b\u0439 \u0448\u0430\
1000
u0431\u043b\u043e\u043d","category":"tree","radius_m":1.0,"color":"#407F63","plant_id":null,"symbol":"circle","properties":{},"template":{"schema_version":1,"limits":{"crown_radius_m":1.0},"requiremen
1000
ts":{"plant.drained_soil_required":true,"plant.loose_soil_required":true,"plant.unsalted_soil_required":true,"plant.uncompacted_soil_required":true,"plant.stagnant_water_exclusion":true},"minimum_dist
1000
ances_m":{"project.gas":4.0,"R.spacing":3.0},"moisture_range":[0.3,0.7],"root_protection":"ANY","filters":[],"state_label":"\u0423\u0441\u043b\u043e\u0432\u043d\u044b\u0439 \u0442\u0435\u0441\u0442\u0
1000
43e\u0432\u044b\u0439 \u0433\u0430\u0431\u0430\u0440\u0438\u0442; \u043d\u0435 \u0440\u0430\u0437\u043c\u0435\u0440\u044b \u0440\u0435\u0430\u043b\u044c\u043d\u043e\u0433\u043e \u0432\u0438\u0434\u043
1000
0 \u0438\u043b\u0438 \u0441\u043e\u0440\u0442\u0430"}},"geometry_role":"SYMBOL_CENTER","validation":"RECHECK_REQUIRED","schema_version":2}
  0
CIRCLE
  5
76
330
17
100
AcDbEntity
  8
GC_RESULT_0F617BA98E
420
4226915
100
AcDbCircle
 10
33.5
 20
6.5
 30
0.0
 40
1.0
1001
GREENCAD_EDIT_V1
1000
{"role":"placement","placement":{"id":"f4e704197cba5ae4a33868527fe9d290","type_id":"T2","x":33.5,"y":6.5,"plant_id":null,"root_protection":false,"locked":false,"label":"T2 \u00b7 \u0430\u0432\u0442\u0
1000
43e 16","properties":{"generation":{"job_id":"8c5634d6b6527b7dafb3eea91a7846ab1a5af75b60634ba903af72bad8ea2005","version":"1.0","zone_id":"green_01","grid_index":335,"step_m":1.0,"order_and_caps":[["T
1000
1",20],["T2",20],["T3",20],["T4",20]]}}},"project_type":{"id":"T2","name":"\u0421\u0440\u0435\u0434\u043d\u0438\u0439 \u0410 \u2014 \u043f\u0440\u043e\u0435\u043a\u0442\u043d\u044b\u0439 \u0448\u0430\
1000
u0431\u043b\u043e\u043d","category":"tree","radius_m":1.0,"color":"#407F63","plant_id":null,"symbol":"circle","properties":{},"template":{"schema_version":1,"limits":{"crown_radius_m":1.0},"requiremen
1000
ts":{"plant.drained_soil_required":true,"plant.loose_soil_required":true,"plant.unsalted_soil_required":true,"plant.uncompacted_soil_required":true,"plant.stagnant_water_exclusion":true},"minimum_dist
1000
ances_m":{"project.gas":4.0,"R.spacing":3.0},"moisture_range":[0.3,0.7],"root_protection":"ANY","filters":[],"state_label":"\u0423\u0441\u043b\u043e\u0432\u043d\u044b\u0439 \u0442\u0435\u0441\u0442\u0
1000
43e\u0432\u044b\u0439 \u0433\u0430\u0431\u0430\u0440\u0438\u0442; \u043d\u0435 \u0440\u0430\u0437\u043c\u0435\u0440\u044b \u0440\u0435\u0430\u043b\u044c\u043d\u043e\u0433\u043e \u0432\u0438\u0434\u043
1000
0 \u0438\u043b\u0438 \u0441\u043e\u0440\u0442\u0430"}},"geometry_role":"SYMBOL_CENTER","validation":"RECHECK_REQUIRED","schema_version":2}
  0
CIRCLE
  5
77
330
17
100
AcDbEntity
  8
GC_RESULT_0F617BA98E
420
4226915
100
AcDbCircle
 10
36.5
 20
6.5
 30
0.0
 40
1.0
1001
GREENCAD_EDIT_V1
1000
{"role":"placement","placement":{"id":"860c29c99eca517f84d701aa8f5596ed","type_id":"T2","x":36.5,"y":6.5,"plant_id":null,"root_protection":false,"locked":false,"label":"T2 \u00b7 \u0430\u0432\u0442\u0
1000
43e 17","properties":{"generation":{"job_id":"8c5634d6b6527b7dafb3eea91a7846ab1a5af75b60634ba903af72bad8ea2005","version":"1.0","zone_id":"green_01","grid_index":338,"step_m":1.0,"order_and_caps":[["T
1000
1",20],["T2",20],["T3",20],["T4",20]]}}},"project_type":{"id":"T2","name":"\u0421\u0440\u0435\u0434\u043d\u0438\u0439 \u0410 \u2014 \u043f\u0440\u043e\u0435\u043a\u0442\u043d\u044b\u0439 \u0448\u0430\
1000
u0431\u043b\u043e\u043d","category":"tree","radius_m":1.0,"color":"#407F63","plant_id":null,"symbol":"circle","properties":{},"template":{"schema_version":1,"limits":{"crown_radius_m":1.0},"requiremen
1000
ts":{"plant.drained_soil_required":true,"plant.loose_soil_required":true,"plant.unsalted_soil_required":true,"plant.uncompacted_soil_required":true,"plant.stagnant_water_exclusion":true},"minimum_dist
1000
ances_m":{"project.gas":4.0,"R.spacing":3.0},"moisture_range":[0.3,0.7],"root_protection":"ANY","filters":[],"state_label":"\u0423\u0441\u043b\u043e\u0432\u043d\u044b\u0439 \u0442\u0435\u0441\u0442\u0
1000
43e\u0432\u044b\u0439 \u0433\u0430\u0431\u0430\u0440\u0438\u0442; \u043d\u0435 \u0440\u0430\u0437\u043c\u0435\u0440\u044b \u0440\u0435\u0430\u043b\u044c\u043d\u043e\u0433\u043e \u0432\u0438\u0434\u043
1000
0 \u0438\u043b\u0438 \u0441\u043e\u0440\u0442\u0430"}},"geometry_role":"SYMBOL_CENTER","validation":"RECHECK_REQUIRED","schema_version":2}
  0
CIRCLE
  5
78
330
17
100
AcDbEntity
  8
GC_RESULT_0F617BA98E
420
4226915
100
AcDbCircle
 10
39.5
 20
6.5
 30
0.0
 40
1.0
1001
GREENCAD_EDIT_V1
1000
{"role":"placement","placement":{"id":"3835da9ee687574caaee025553547060","type_id":"T2","x":39.5,"y":6.5,"plant_id":null,"root_protection":false,"locked":false,"label":"T2 \u00b7 \u0430\u0432\u0442\u0
1000
43e 18","properties":{"generation":{"job_id":"8c5634d6b6527b7dafb3eea91a7846ab1a5af75b60634ba903af72bad8ea2005","version":"1.0","zone_id":"green_01","grid_index":341,"step_m":1.0,"order_and_caps":[["T
1000
1",20],["T2",20],["T3",20],["T4",20]]}}},"project_type":{"id":"T2","name":"\u0421\u0440\u0435\u0434\u043d\u0438\u0439 \u0410 \u2014 \u043f\u0440\u043e\u0435\u043a\u0442\u043d\u044b\u0439 \u0448\u0430\
1000
u0431\u043b\u043e\u043d","category":"tree","radius_m":1.0,"color":"#407F63","plant_id":null,"symbol":"circle","properties":{},"template":{"schema_version":1,"limits":{"crown_radius_m":1.0},"requiremen
1000
ts":{"plant.drained_soil_required":true,"plant.loose_soil_required":true,"plant.unsalted_soil_required":true,"plant.uncompacted_soil_required":true,"plant.stagnant_water_exclusion":true},"minimum_dist
1000
ances_m":{"project.gas":4.0,"R.spacing":3.0},"moisture_range":[0.3,0.7],"root_protection":"ANY","filters":[],"state_label":"\u0423\u0441\u043b\u043e\u0432\u043d\u044b\u0439 \u0442\u0435\u0441\u0442\u0
1000
43e\u0432\u044b\u0439 \u0433\u0430\u0431\u0430\u0440\u0438\u0442; \u043d\u0435 \u0440\u0430\u0437\u043c\u0435\u0440\u044b \u0440\u0435\u0430\u043b\u044c\u043d\u043e\u0433\u043e \u0432\u0438\u0434\u043
1000
0 \u0438\u043b\u0438 \u0441\u043e\u0440\u0442\u0430"}},"geometry_role":"SYMBOL_CENTER","validation":"RECHECK_REQUIRED","schema_version":2}
  0
CIRCLE
  5
79
330
17
100
AcDbEntity
  8
GC_RESULT_0F617BA98E
420
4226915
100
AcDbCircle
 10
42.5
 20
6.5
 30
0.0
 40
1.0
1001
GREENCAD_EDIT_V1
1000
{"role":"placement","placement":{"id":"1b100bba670b501fa81b943cf064dac4","type_id":"T2","x":42.5,"y":6.5,"plant_id":null,"root_protection":false,"locked":false,"label":"T2 \u00b7 \u0430\u0432\u0442\u0
1000
43e 19","properties":{"generation":{"job_id":"8c5634d6b6527b7dafb3eea91a7846ab1a5af75b60634ba903af72bad8ea2005","version":"1.0","zone_id":"green_01","grid_index":344,"step_m":1.0,"order_and_caps":[["T
1000
1",20],["T2",20],["T3",20],["T4",20]]}}},"project_type":{"id":"T2","name":"\u0421\u0440\u0435\u0434\u043d\u0438\u0439 \u0410 \u2014 \u043f\u0440\u043e\u0435\u043a\u0442\u043d\u044b\u0439 \u0448\u0430\
1000
u0431\u043b\u043e\u043d","category":"tree","radius_m":1.0,"color":"#407F63","plant_id":null,"symbol":"circle","properties":{},"template":{"schema_version":1,"limits":{"crown_radius_m":1.0},"requiremen
1000
ts":{"plant.drained_soil_required":true,"plant.loose_soil_required":true,"plant.unsalted_soil_required":true,"plant.uncompacted_soil_required":true,"plant.stagnant_water_exclusion":true},"minimum_dist
1000
ances_m":{"project.gas":4.0,"R.spacing":3.0},"moisture_range":[0.3,0.7],"root_protection":"ANY","filters":[],"state_label":"\u0423\u0441\u043b\u043e\u0432\u043d\u044b\u0439 \u0442\u0435\u0441\u0442\u0
1000
43e\u0432\u044b\u0439 \u0433\u0430\u0431\u0430\u0440\u0438\u0442; \u043d\u0435 \u0440\u0430\u0437\u043c\u0435\u0440\u044b \u0440\u0435\u0430\u043b\u044c\u043d\u043e\u0433\u043e \u0432\u0438\u0434\u043
1000
0 \u0438\u043b\u0438 \u0441\u043e\u0440\u0442\u0430"}},"geometry_role":"SYMBOL_CENTER","validation":"RECHECK_REQUIRED","schema_version":2}
  0
CIRCLE
  5
7A
330
17
100
AcDbEntity
  8
GC_RESULT_0F617BA98E
420
4226915
100
AcDbCircle
 10
45.5
 20
6.5
 30
0.0
 40
1.0
1001
GREENCAD_EDIT_V1
1000
{"role":"placement","placement":{"id":"50b08c7b176455cca6b5e3379d2d75b2","type_id":"T2","x":45.5,"y":6.5,"plant_id":null,"root_protection":false,"locked":false,"label":"T2 \u00b7 \u0430\u0432\u0442\u0
1000
43e 20","properties":{"generation":{"job_id":"8c5634d6b6527b7dafb3eea91a7846ab1a5af75b60634ba903af72bad8ea2005","version":"1.0","zone_id":"green_01","grid_index":347,"step_m":1.0,"order_and_caps":[["T
1000
1",20],["T2",20],["T3",20],["T4",20]]}}},"project_type":{"id":"T2","name":"\u0421\u0440\u0435\u0434\u043d\u0438\u0439 \u0410 \u2014 \u043f\u0440\u043e\u0435\u043a\u0442\u043d\u044b\u0439 \u0448\u0430\
1000
u0431\u043b\u043e\u043d","category":"tree","radius_m":1.0,"color":"#407F63","plant_id":null,"symbol":"circle","properties":{},"template":{"schema_version":1,"limits":{"crown_radius_m":1.0},"requiremen
1000
ts":{"plant.drained_soil_required":true,"plant.loose_soil_required":true,"plant.unsalted_soil_required":true,"plant.uncompacted_soil_required":true,"plant.stagnant_water_exclusion":true},"minimum_dist
1000
ances_m":{"project.gas":4.0,"R.spacing":3.0},"moisture_range":[0.3,0.7],"root_protection":"ANY","filters":[],"state_label":"\u0423\u0441\u043b\u043e\u0432\u043d\u044b\u0439 \u0442\u0435\u0441\u0442\u0
1000
43e\u0432\u044b\u0439 \u0433\u0430\u0431\u0430\u0440\u0438\u0442; \u043d\u0435 \u0440\u0430\u0437\u043c\u0435\u0440\u044b \u0440\u0435\u0430\u043b\u044c\u043d\u043e\u0433\u043e \u0432\u0438\u0434\u043
1000
0 \u0438\u043b\u0438 \u0441\u043e\u0440\u0442\u0430"}},"geometry_role":"SYMBOL_CENTER","validation":"RECHECK_REQUIRED","schema_version":2}
  0
CIRCLE
  5
7B
330
17
100
AcDbEntity
  8
GC_RESULT_5DD67F7FB9
420
6060177
100
AcDbCircle
 10
48.5
 20
6.5
 30
0.0
 40
0.8
1001
GREENCAD_EDIT_V1
1000
{"role":"placement","placement":{"id":"0d3d1cc281565150bcda3d7977ee8d39","type_id":"T3","x":48.5,"y":6.5,"plant_id":null,"root_protection":true,"locked":false,"label":"T3 \u00b7 \u0430\u0432\u0442\u04
1000
3e 1","properties":{"generation":{"job_id":"8c5634d6b6527b7dafb3eea91a7846ab1a5af75b60634ba903af72bad8ea2005","version":"1.0","zone_id":"green_01","grid_index":350,"step_m":1.0,"order_and_caps":[["T1"
1000
,20],["T2",20],["T3",20],["T4",20]]}}},"project_type":{"id":"T3","name":"\u0421\u0440\u0435\u0434\u043d\u0438\u0439 \u0411 \u2014 \u043f\u0440\u043e\u0435\u043a\u0442\u043d\u044b\u0439 \u0448\u0430\u0
1000
431\u043b\u043e\u043d","category":"tree","radius_m":0.8,"color":"#5C7891","plant_id":null,"symbol":"circle","properties":{},"template":{"schema_version":1,"limits":{"crown_radius_m":0.8},"requirements
1000
":{"plant.drained_soil_required":true,"plant.loose_soil_required":true,"plant.unsalted_soil_required":true,"plant.uncompacted_soil_required":true,"plant.stagnant_water_exclusion":true},"minimum_distan
1000
ces_m":{"project.gas":3.0,"R.spacing":3.0},"moisture_range":[0.2,0.6],"root_protection":"REQUIRED","filters":[],"state_label":"\u0423\u0441\u043b\u043e\u0432\u043d\u044b\u0439 \u0442\u0435\u0441\u0442
1000
\u043e\u0432\u044b\u0439 \u0433\u0430\u0431\u0430\u0440\u0438\u0442; \u043d\u0435 \u0440\u0430\u0437\u043c\u0435\u0440\u044b \u0440\u0435\u0430\u043b\u044c\u043d\u043e\u0433\u043e \u0432\u0438\u0434\u
1000
0430 \u0438\u043b\u0438 \u0441\u043e\u0440\u0442\u0430"}},"geometry_role":"SYMBOL_CENTER","validation":"RECHECK_REQUIRED","schema_version":2}
  0
CIRCLE
  5
7C
330
17
100
AcDbEntity
  8
GC_RESULT_5DD67F7FB9
420
6060177
100
AcDbCircle
 10
51.5
 20
6.5
 30
0.0
 40
0.8
1001
GREENCAD_EDIT_V1
1000
{"role":"placement","placement":{"id":"a6c9e48e18b358eb8d4bda9c4c79aa8d","type_id":"T3","x":51.5,"y":6.5,"plant_id":null,"root_protection":true,"locked":false,"label":"T3 \u00b7 \u0430\u0432\u0442\u04
1000
3e 2","properties":{"generation":{"job_id":"8c5634d6b6527b7dafb3eea91a7846ab1a5af75b60634ba903af72bad8ea2005","version":"1.0","zone_id":"green_01","grid_index":353,"step_m":1.0,"order_and_caps":[["T1"
1000
,20],["T2",20],["T3",20],["T4",20]]}}},"project_type":{"id":"T3","name":"\u0421\u0440\u0435\u0434\u043d\u0438\u0439 \u0411 \u2014 \u043f\u0440\u043e\u0435\u043a\u0442\u043d\u044b\u0439 \u0448\u0430\u0
1000
431\u043b\u043e\u043d","category":"tree","radius_m":0.8,"color":"#5C7891","plant_id":null,"symbol":"circle","properties":{},"template":{"schema_version":1,"limits":{"crown_radius_m":0.8},"requirements
1000
":{"plant.drained_soil_required":true,"plant.loose_soil_required":true,"plant.unsalted_soil_required":true,"plant.uncompacted_soil_required":true,"plant.stagnant_water_exclusion":true},"minimum_distan
1000
ces_m":{"project.gas":3.0,"R.spacing":3.0},"moisture_range":[0.2,0.6],"root_protection":"REQUIRED","filters":[],"state_label":"\u0423\u0441\u043b\u043e\u0432\u043d\u044b\u0439 \u0442\u0435\u0441\u0442
1000
\u043e\u0432\u044b\u0439 \u0433\u0430\u0431\u0430\u0440\u0438\u0442; \u043d\u0435 \u0440\u0430\u0437\u043c\u0435\u0440\u044b \u0440\u0435\u0430\u043b\u044c\u043d\u043e\u0433\u043e \u0432\u0438\u0434\u
1000
0430 \u0438\u043b\u0438 \u0441\u043e\u0440\u0442\u0430"}},"geometry_role":"SYMBOL_CENTER","validation":"RECHECK_REQUIRED","schema_version":2}
  0
CIRCLE
  5
7D
330
17
100
AcDbEntity
  8
GC_RESULT_5DD67F7FB9
420
6060177
100
AcDbCircle
 10
54.5
 20
6.5
 30
0.0
 40
0.8
1001
GREENCAD_EDIT_V1
1000
{"role":"placement","placement":{"id":"135660234a15588589558f066e93c505","type_id":"T3","x":54.5,"y":6.5,"plant_id":null,"root_protection":true,"locked":false,"label":"T3 \u00b7 \u0430\u0432\u0442\u04
1000
3e 3","properties":{"generation":{"job_id":"8c5634d6b6527b7dafb3eea91a7846ab1a5af75b60634ba903af72bad8ea2005","version":"1.0","zone_id":"green_01","grid_index":356,"step_m":1.0,"order_and_caps":[["T1"
1000
,20],["T2",20],["T3",20],["T4",20]]}}},"project_type":{"id":"T3","name":"\u0421\u0440\u0435\u0434\u043d\u0438\u0439 \u0411 \u2014 \u043f\u0440\u043e\u0435\u043a\u0442\u043d\u044b\u0439 \u0448\u0430\u0
1000
431\u043b\u043e\u043d","category":"tree","radius_m":0.8,"color":"#5C7891","plant_id":null,"symbol":"circle","properties":{},"template":{"schema_version":1,"limits":{"crown_radius_m":0.8},"requirements
1000
":{"plant.drained_soil_required":true,"plant.loose_soil_required":true,"plant.unsalted_soil_required":true,"plant.uncompacted_soil_required":true,"plant.stagnant_water_exclusion":true},"minimum_distan
1000
ces_m":{"project.gas":3.0,"R.spacing":3.0},"moisture_range":[0.2,0.6],"root_protection":"REQUIRED","filters":[],"state_label":"\u0423\u0441\u043b\u043e\u0432\u043d\u044b\u0439 \u0442\u0435\u0441\u0442
1000
\u043e\u0432\u044b\u0439 \u0433\u0430\u0431\u0430\u0440\u0438\u0442; \u043d\u0435 \u0440\u0430\u0437\u043c\u0435\u0440\u044b \u0440\u0435\u0430\u043b\u044c\u043d\u043e\u0433\u043e \u0432\u0438\u0434\u
1000
0430 \u0438\u043b\u0438 \u0441\u043e\u0440\u0442\u0430"}},"geometry_role":"SYMBOL_CENTER","validation":"RECHECK_REQUIRED","schema_version":2}
  0
CIRCLE
  5
7E
330
17
100
AcDbEntity
  8
GC_RESULT_5DD67F7FB9
420
6060177
100
AcDbCircle
 10
57.5
 20
6.5
 30
0.0
 40
0.8
1001
GREENCAD_EDIT_V1
1000
{"role":"placement","placement":{"id":"20f456590be9525c8efc3f3ab870bf6c","type_id":"T3","x":57.5,"y":6.5,"plant_id":null,"root_protection":true,"locked":false,"label":"T3 \u00b7 \u0430\u0432\u0442\u04
1000
3e 4","properties":{"generation":{"job_id":"8c5634d6b6527b7dafb3eea91a7846ab1a5af75b60634ba903af72bad8ea2005","version":"1.0","zone_id":"green_01","grid_index":359,"step_m":1.0,"order_and_caps":[["T1"
1000
,20],["T2",20],["T3",20],["T4",20]]}}},"project_type":{"id":"T3","name":"\u0421\u0440\u0435\u0434\u043d\u0438\u0439 \u0411 \u2014 \u043f\u0440\u043e\u0435\u043a\u0442\u043d\u044b\u0439 \u0448\u0430\u0
1000
431\u043b\u043e\u043d","category":"tree","radius_m":0.8,"color":"#5C7891","plant_id":null,"symbol":"circle","properties":{},"template":{"schema_version":1,"limits":{"crown_radius_m":0.8},"requirements
1000
":{"plant.drained_soil_required":true,"plant.loose_soil_required":true,"plant.unsalted_soil_required":true,"plant.uncompacted_soil_required":true,"plant.stagnant_water_exclusion":true},"minimum_distan
1000
ces_m":{"project.gas":3.0,"R.spacing":3.0},"moisture_range":[0.2,0.6],"root_protection":"REQUIRED","filters":[],"state_label":"\u0423\u0441\u043b\u043e\u0432\u043d\u044b\u0439 \u0442\u0435\u0441\u0442
1000
\u043e\u0432\u044b\u0439 \u0433\u0430\u0431\u0430\u0440\u0438\u0442; \u043d\u0435 \u0440\u0430\u0437\u043c\u0435\u0440\u044b \u0440\u0435\u0430\u043b\u044c\u043d\u043e\u0433\u043e \u0432\u0438\u0434\u
1000
0430 \u0438\u043b\u0438 \u0441\u043e\u0440\u0442\u0430"}},"geometry_role":"SYMBOL_CENTER","validation":"RECHECK_REQUIRED","schema_version":2}
  0
CIRCLE
  5
7F
330
17
100
AcDbEntity
  8
GC_RESULT_5DD67F7FB9
420
6060177
100
AcDbCircle
 10
60.5
 20
6.5
 30
0.0
 40
0.8
1001
GREENCAD_EDIT_V1
1000
{"role":"placement","placement":{"id":"c07958169e915ae493b2c495c52b8e8b","type_id":"T3","x":60.5,"y":6.5,"plant_id":null,"root_protection":true,"locked":false,"label":"T3 \u00b7 \u0430\u0432\u0442\u04
1000
3e 5","properties":{"generation":{"job_id":"8c5634d6b6527b7dafb3eea91a7846ab1a5af75b60634ba903af72bad8ea2005","version":"1.0","zone_id":"green_01","grid_index":362,"step_m":1.0,"order_and_caps":[["T1"
1000
,20],["T2",20],["T3",20],["T4",20]]}}},"project_type":{"id":"T3","name":"\u0421\u0440\u0435\u0434\u043d\u0438\u0439 \u0411 \u2014 \u043f\u0440\u043e\u0435\u043a\u0442\u043d\u044b\u0439 \u0448\u0430\u0
1000
431\u043b\u043e\u043d","category":"tree","radius_m":0.8,"color":"#5C7891","plant_id":null,"symbol":"circle","properties":{},"template":{"schema_version":1,"limits":{"crown_radius_m":0.8},"requirements
1000
":{"plant.drained_soil_required":true,"plant.loose_soil_required":true,"plant.unsalted_soil_required":true,"plant.uncompacted_soil_required":true,"plant.stagnant_water_exclusion":true},"minimum_distan
1000
ces_m":{"project.gas":3.0,"R.spacing":3.0},"moisture_range":[0.2,0.6],"root_protection":"REQUIRED","filters":[],"state_label":"\u0423\u0441\u043b\u043e\u0432\u043d\u044b\u0439 \u0442\u0435\u0441\u0442
1000
\u043e\u0432\u044b\u0439 \u0433\u0430\u0431\u0430\u0440\u0438\u0442; \u043d\u0435 \u0440\u0430\u0437\u043c\u0435\u0440\u044b \u0440\u0435\u0430\u043b\u044c\u043d\u043e\u0433\u043e \u0432\u0438\u0434\u
1000
0430 \u0438\u043b\u0438 \u0441\u043e\u0440\u0442\u0430"}},"geometry_role":"SYMBOL_CENTER","validation":"RECHECK_REQUIRED","schema_version":2}
  0
CIRCLE
  5
80
330
17
100
AcDbEntity
  8
GC_RESULT_5DD67F7FB9
420
6060177
100
AcDbCircle
 10
63.5
 20
6.5
 30
0.0
 40
0.8
1001
GREENCAD_EDIT_V1
1000
{"role":"placement","placement":{"id":"110b536c779257d2bf7525c001e1fa33","type_id":"T3","x":63.5,"y":6.5,"plant_id":null,"root_protection":true,"locked":false,"label":"T3 \u00b7 \u0430\u0432\u0442\u04
1000
3e 6","properties":{"generation":{"job_id":"8c5634d6b6527b7dafb3eea91a7846ab1a5af75b60634ba903af72bad8ea2005","version":"1.0","zone_id":"green_01","grid_index":365,"step_m":1.0,"order_and_caps":[["T1"
1000
,20],["T2",20],["T3",20],["T4",20]]}}},"project_type":{"id":"T3","name":"\u0421\u0440\u0435\u0434\u043d\u0438\u0439 \u0411 \u2014 \u043f\u0440\u043e\u0435\u043a\u0442\u043d\u044b\u0439 \u0448\u0430\u0
1000
431\u043b\u043e\u043d","category":"tree","radius_m":0.8,"color":"#5C7891","plant_id":null,"symbol":"circle","properties":{},"template":{"schema_version":1,"limits":{"crown_radius_m":0.8},"requirements
1000
":{"plant.drained_soil_required":true,"plant.loose_soil_required":true,"plant.unsalted_soil_required":true,"plant.uncompacted_soil_required":true,"plant.stagnant_water_exclusion":true},"minimum_distan
1000
ces_m":{"project.gas":3.0,"R.spacing":3.0},"moisture_range":[0.2,0.6],"root_protection":"REQUIRED","filters":[],"state_label":"\u0423\u0441\u043b\u043e\u0432\u043d\u044b\u0439 \u0442\u0435\u0441\u0442
1000
\u043e\u0432\u044b\u0439 \u0433\u0430\u0431\u0430\u0440\u0438\u0442; \u043d\u0435 \u0440\u0430\u0437\u043c\u0435\u0440\u044b \u0440\u0435\u0430\u043b\u044c\u043d\u043e\u0433\u043e \u0432\u0438\u0434\u
1000
0430 \u0438\u043b\u0438 \u0441\u043e\u0440\u0442\u0430"}},"geometry_role":"SYMBOL_CENTER","validation":"RECHECK_REQUIRED","schema_version":2}
  0
CIRCLE
  5
81
330
17
100
AcDbEntity
  8
GC_RESULT_5DD67F7FB9
420
6060177
100
AcDbCircle
 10
66.5
 20
6.5
 30
0.0
 40
0.8
1001
GREENCAD_EDIT_V1
1000
{"role":"placement","placement":{"id":"e89b06897351596aa3a463ffc1dc788c","type_id":"T3","x":66.5,"y":6.5,"plant_id":null,"root_protection":true,"locked":false,"label":"T3 \u00b7 \u0430\u0432\u0442\u04
1000
3e 7","properties":{"generation":{"job_id":"8c5634d6b6527b7dafb3eea91a7846ab1a5af75b60634ba903af72bad8ea2005","version":"1.0","zone_id":"green_01","grid_index":368,"step_m":1.0,"order_and_caps":[["T1"
1000
,20],["T2",20],["T3",20],["T4",20]]}}},"project_type":{"id":"T3","name":"\u0421\u0440\u0435\u0434\u043d\u0438\u0439 \u0411 \u2014 \u043f\u0440\u043e\u0435\u043a\u0442\u043d\u044b\u0439 \u0448\u0430\u0
1000
431\u043b\u043e\u043d","category":"tree","radius_m":0.8,"color":"#5C7891","plant_id":null,"symbol":"circle","properties":{},"template":{"schema_version":1,"limits":{"crown_radius_m":0.8},"requirements
1000
":{"plant.drained_soil_required":true,"plant.loose_soil_required":true,"plant.unsalted_soil_required":true,"plant.uncompacted_soil_required":true,"plant.stagnant_water_exclusion":true},"minimum_distan
1000
ces_m":{"project.gas":3.0,"R.spacing":3.0},"moisture_range":[0.2,0.6],"root_protection":"REQUIRED","filters":[],"state_label":"\u0423\u0441\u043b\u043e\u0432\u043d\u044b\u0439 \u0442\u0435\u0441\u0442
1000
\u043e\u0432\u044b\u0439 \u0433\u0430\u0431\u0430\u0440\u0438\u0442; \u043d\u0435 \u0440\u0430\u0437\u043c\u0435\u0440\u044b \u0440\u0435\u0430\u043b\u044c\u043d\u043e\u0433\u043e \u0432\u0438\u0434\u
1000
0430 \u0438\u043b\u0438 \u0441\u043e\u0440\u0442\u0430"}},"geometry_role":"SYMBOL_CENTER","validation":"RECHECK_REQUIRED","schema_version":2}
  0
CIRCLE
  5
82
330
17
100
AcDbEntity
  8
GC_RESULT_5DD67F7FB9
420
6060177
100
AcDbCircle
 10
69.5
 20
6.5
 30
0.0
 40
0.8
1001
GREENCAD_EDIT_V1
1000
{"role":"placement","placement":{"id":"5115b3f2095b587ab22200afc652934d","type_id":"T3","x":69.5,"y":6.5,"plant_id":null,"root_protection":true,"locked":false,"label":"T3 \u00b7 \u0430\u0432\u0442\u04
1000
3e 8","properties":{"generation":{"job_id":"8c5634d6b6527b7dafb3eea91a7846ab1a5af75b60634ba903af72bad8ea2005","version":"1.0","zone_id":"green_01","grid_index":371,"step_m":1.0,"order_and_caps":[["T1"
1000
,20],["T2",20],["T3",20],["T4",20]]}}},"project_type":{"id":"T3","name":"\u0421\u0440\u0435\u0434\u043d\u0438\u0439 \u0411 \u2014 \u043f\u0440\u043e\u0435\u043a\u0442\u043d\u044b\u0439 \u0448\u0430\u0
1000
431\u043b\u043e\u043d","category":"tree","radius_m":0.8,"color":"#5C7891","plant_id":null,"symbol":"circle","properties":{},"template":{"schema_version":1,"limits":{"crown_radius_m":0.8},"requirements
1000
":{"plant.drained_soil_required":true,"plant.loose_soil_required":true,"plant.unsalted_soil_required":true,"plant.uncompacted_soil_required":true,"plant.stagnant_water_exclusion":true},"minimum_distan
1000
ces_m":{"project.gas":3.0,"R.spacing":3.0},"moisture_range":[0.2,0.6],"root_protection":"REQUIRED","filters":[],"state_label":"\u0423\u0441\u043b\u043e\u0432\u043d\u044b\u0439 \u0442\u0435\u0441\u0442
1000
\u043e\u0432\u044b\u0439 \u0433\u0430\u0431\u0430\u0440\u0438\u0442; \u043d\u0435 \u0440\u0430\u0437\u043c\u0435\u0440\u044b \u0440\u0435\u0430\u043b\u044c\u043d\u043e\u0433\u043e \u0432\u0438\u0434\u
1000
0430 \u0438\u043b\u0438 \u0441\u043e\u0440\u0442\u0430"}},"geometry_role":"SYMBOL_CENTER","validation":"RECHECK_REQUIRED","schema_version":2}
  0
CIRCLE
  5
83
330
17
100
AcDbEntity
  8
GC_RESULT_5DD67F7FB9
420
6060177
100
AcDbCircle
 10
72.5
 20
6.5
 30
0.0
 40
0.8
1001
GREENCAD_EDIT_V1
1000
{"role":"placement","placement":{"id":"b65e3715d7ea579d9445e3c101042cb6","type_id":"T3","x":72.5,"y":6.5,"plant_id":null,"root_protection":true,"locked":false,"label":"T3 \u00b7 \u0430\u0432\u0442\u04
1000
3e 9","properties":{"generation":{"job_id":"8c5634d6b6527b7dafb3eea91a7846ab1a5af75b60634ba903af72bad8ea2005","version":"1.0","zone_id":"green_01","grid_index":374,"step_m":1.0,"order_and_caps":[["T1"
1000
,20],["T2",20],["T3",20],["T4",20]]}}},"project_type":{"id":"T3","name":"\u0421\u0440\u0435\u0434\u043d\u0438\u0439 \u0411 \u2014 \u043f\u0440\u043e\u0435\u043a\u0442\u043d\u044b\u0439 \u0448\u0430\u0
1000
431\u043b\u043e\u043d","category":"tree","radius_m":0.8,"color":"#5C7891","plant_id":null,"symbol":"circle","properties":{},"template":{"schema_version":1,"limits":{"crown_radius_m":0.8},"requirements
1000
":{"plant.drained_soil_required":true,"plant.loose_soil_required":true,"plant.unsalted_soil_required":true,"plant.uncompacted_soil_required":true,"plant.stagnant_water_exclusion":true},"minimum_distan
1000
ces_m":{"project.gas":3.0,"R.spacing":3.0},"moisture_range":[0.2,0.6],"root_protection":"REQUIRED","filters":[],"state_label":"\u0423\u0441\u043b\u043e\u0432\u043d\u044b\u0439 \u0442\u0435\u0441\u0442
1000
\u043e\u0432\u044b\u0439 \u0433\u0430\u0431\u0430\u0440\u0438\u0442; \u043d\u0435 \u0440\u0430\u0437\u043c\u0435\u0440\u044b \u0440\u0435\u0430\u043b\u044c\u043d\u043e\u0433\u043e \u0432\u0438\u0434\u
1000
0430 \u0438\u043b\u0438 \u0441\u043e\u0440\u0442\u0430"}},"geometry_role":"SYMBOL_CENTER","validation":"RECHECK_REQUIRED","schema_version":2}
  0
CIRCLE
  5
84
330
17
100
AcDbEntity
  8
GC_RESULT_5DD67F7FB9
420
6060177
100
AcDbCircle
 10
75.5
 20
6.5
 30
0.0
 40
0.8
1001
GREENCAD_EDIT_V1
1000
{"role":"placement","placement":{"id":"3ae61082a0c05bf5b090662509df0706","type_id":"T3","x":75.5,"y":6.5,"plant_id":null,"root_protection":true,"locked":false,"label":"T3 \u00b7 \u0430\u0432\u0442\u04
1000
3e 10","properties":{"generation":{"job_id":"8c5634d6b6527b7dafb3eea91a7846ab1a5af75b60634ba903af72bad8ea2005","version":"1.0","zone_id":"green_01","grid_index":377,"step_m":1.0,"order_and_caps":[["T1
1000
",20],["T2",20],["T3",20],["T4",20]]}}},"project_type":{"id":"T3","name":"\u0421\u0440\u0435\u0434\u043d\u0438\u0439 \u0411 \u2014 \u043f\u0440\u043e\u0435\u043a\u0442\u043d\u044b\u0439 \u0448\u0430\u
1000
0431\u043b\u043e\u043d","category":"tree","radius_m":0.8,"color":"#5C7891","plant_id":null,"symbol":"circle","properties":{},"template":{"schema_version":1,"limits":{"crown_radius_m":0.8},"requirement
1000
s":{"plant.drained_soil_required":true,"plant.loose_soil_required":true,"plant.unsalted_soil_required":true,"plant.uncompacted_soil_required":true,"plant.stagnant_water_exclusion":true},"minimum_dista
1000
nces_m":{"project.gas":3.0,"R.spacing":3.0},"moisture_range":[0.2,0.6],"root_protection":"REQUIRED","filters":[],"state_label":"\u0423\u0441\u043b\u043e\u0432\u043d\u044b\u0439 \u0442\u0435\u0441\u044
1000
2\u043e\u0432\u044b\u0439 \u0433\u0430\u0431\u0430\u0440\u0438\u0442; \u043d\u0435 \u0440\u0430\u0437\u043c\u0435\u0440\u044b \u0440\u0435\u0430\u043b\u044c\u043d\u043e\u0433\u043e \u0432\u0438\u0434\
1000
u0430 \u0438\u043b\u0438 \u0441\u043e\u0440\u0442\u0430"}},"geometry_role":"SYMBOL_CENTER","validation":"RECHECK_REQUIRED","schema_version":2}
  0
CIRCLE
  5
85
330
17
100
AcDbEntity
  8
GC_RESULT_5DD67F7FB9
420
6060177
100
AcDbCircle
 10
3.5
 20
9.5
 30
0.0
 40
0.8
1001
GREENCAD_EDIT_V1
1000
{"role":"placement","placement":{"id":"244b9d7a6a0358b3967e5358ca310241","type_id":"T3","x":3.5,"y":9.5,"plant_id":null,"root_protection":true,"locked":false,"label":"T3 \u00b7 \u0430\u0432\u0442\u043
1000
e 11","properties":{"generation":{"job_id":"8c5634d6b6527b7dafb3eea91a7846ab1a5af75b60634ba903af72bad8ea2005","version":"1.0","zone_id":"green_01","grid_index":533,"step_m":1.0,"order_and_caps":[["T1"
1000
,20],["T2",20],["T3",20],["T4",20]]}}},"project_type":{"id":"T3","name":"\u0421\u0440\u0435\u0434\u043d\u0438\u0439 \u0411 \u2014 \u043f\u0440\u043e\u0435\u043a\u0442\u043d\u044b\u0439 \u0448\u0430\u0
1000
431\u043b\u043e\u043d","category":"tree","radius_m":0.8,"color":"#5C7891","plant_id":null,"symbol":"circle","properties":{},"template":{"schema_version":1,"limits":{"crown_radius_m":0.8},"requirements
1000
":{"plant.drained_soil_required":true,"plant.loose_soil_required":true,"plant.unsalted_soil_required":true,"plant.uncompacted_soil_required":true,"plant.stagnant_water_exclusion":true},"minimum_distan
1000
ces_m":{"project.gas":3.0,"R.spacing":3.0},"moisture_range":[0.2,0.6],"root_protection":"REQUIRED","filters":[],"state_label":"\u0423\u0441\u043b\u043e\u0432\u043d\u044b\u0439 \u0442\u0435\u0441\u0442
1000
\u043e\u0432\u044b\u0439 \u0433\u0430\u0431\u0430\u0440\u0438\u0442; \u043d\u0435 \u0440\u0430\u0437\u043c\u0435\u0440\u044b \u0440\u0435\u0430\u043b\u044c\u043d\u043e\u0433\u043e \u0432\u0438\u0434\u
1000
0430 \u0438\u043b\u0438 \u0441\u043e\u0440\u0442\u0430"}},"geometry_role":"SYMBOL_CENTER","validation":"RECHECK_REQUIRED","schema_version":2}
  0
CIRCLE
  5
86
330
17
100
AcDbEntity
  8
GC_RESULT_5DD67F7FB9
420
6060177
100
AcDbCircle
 10
6.5
 20
9.5
 30
0.0
 40
0.8
1001
GREENCAD_EDIT_V1
1000
{"role":"placement","placement":{"id":"0d0c360c495351be957bc14da44b70fd","type_id":"T3","x":6.5,"y":9.5,"plant_id":null,"root_protection":true,"locked":false,"label":"T3 \u00b7 \u0430\u0432\u0442\u043
1000
e 12","properties":{"generation":{"job_id":"8c5634d6b6527b7dafb3eea91a7846ab1a5af75b60634ba903af72bad8ea2005","version":"1.0","zone_id":"green_01","grid_index":536,"step_m":1.0,"order_and_caps":[["T1"
1000
,20],["T2",20],["T3",20],["T4",20]]}}},"project_type":{"id":"T3","name":"\u0421\u0440\u0435\u0434\u043d\u0438\u0439 \u0411 \u2014 \u043f\u0440\u043e\u0435\u043a\u0442\u043d\u044b\u0439 \u0448\u0430\u0
1000
431\u043b\u043e\u043d","category":"tree","radius_m":0.8,"color":"#5C7891","plant_id":null,"symbol":"circle","properties":{},"template":{"schema_version":1,"limits":{"crown_radius_m":0.8},"requirements
1000
":{"plant.drained_soil_required":true,"plant.loose_soil_required":true,"plant.unsalted_soil_required":true,"plant.uncompacted_soil_required":true,"plant.stagnant_water_exclusion":true},"minimum_distan
1000
ces_m":{"project.gas":3.0,"R.spacing":3.0},"moisture_range":[0.2,0.6],"root_protection":"REQUIRED","filters":[],"state_label":"\u0423\u0441\u043b\u043e\u0432\u043d\u044b\u0439 \u0442\u0435\u0441\u0442
1000
\u043e\u0432\u044b\u0439 \u0433\u0430\u0431\u0430\u0440\u0438\u0442; \u043d\u0435 \u0440\u0430\u0437\u043c\u0435\u0440\u044b \u0440\u0435\u0430\u043b\u044c\u043d\u043e\u0433\u043e \u0432\u0438\u0434\u
1000
0430 \u0438\u043b\u0438 \u0441\u043e\u0440\u0442\u0430"}},"geometry_role":"SYMBOL_CENTER","validation":"RECHECK_REQUIRED","schema_version":2}
  0
CIRCLE
  5
87
330
17
100
AcDbEntity
  8
GC_RESULT_5DD67F7FB9
420
6060177
100
AcDbCircle
 10
9.5
 20
9.5
 30
0.0
 40
0.8
1001
GREENCAD_EDIT_V1
1000
{"role":"placement","placement":{"id":"03f5ace7cf6c578cb6e39d11da959e52","type_id":"T3","x":9.5,"y":9.5,"plant_id":null,"root_protection":true,"locked":false,"label":"T3 \u00b7 \u0430\u0432\u0442\u043
1000
e 13","properties":{"generation":{"job_id":"8c5634d6b6527b7dafb3eea91a7846ab1a5af75b60634ba903af72bad8ea2005","version":"1.0","zone_id":"green_01","grid_index":539,"step_m":1.0,"order_and_caps":[["T1"
1000
,20],["T2",20],["T3",20],["T4",20]]}}},"project_type":{"id":"T3","name":"\u0421\u0440\u0435\u0434\u043d\u0438\u0439 \u0411 \u2014 \u043f\u0440\u043e\u0435\u043a\u0442\u043d\u044b\u0439 \u0448\u0430\u0
1000
431\u043b\u043e\u043d","category":"tree","radius_m":0.8,"color":"#5C7891","plant_id":null,"symbol":"circle","properties":{},"template":{"schema_version":1,"limits":{"crown_radius_m":0.8},"requirements
1000
":{"plant.drained_soil_required":true,"plant.loose_soil_required":true,"plant.unsalted_soil_required":true,"plant.uncompacted_soil_required":true,"plant.stagnant_water_exclusion":true},"minimum_distan
1000
ces_m":{"project.gas":3.0,"R.spacing":3.0},"moisture_range":[0.2,0.6],"root_protection":"REQUIRED","filters":[],"state_label":"\u0423\u0441\u043b\u043e\u0432\u043d\u044b\u0439 \u0442\u0435\u0441\u0442
1000
\u043e\u0432\u044b\u0439 \u0433\u0430\u0431\u0430\u0440\u0438\u0442; \u043d\u0435 \u0440\u0430\u0437\u043c\u0435\u0440\u044b \u0440\u0435\u0430\u043b\u044c\u043d\u043e\u0433\u043e \u0432\u0438\u0434\u
1000
0430 \u0438\u043b\u0438 \u0441\u043e\u0440\u0442\u0430"}},"geometry_role":"SYMBOL_CENTER","validation":"RECHECK_REQUIRED","schema_version":2}
  0
CIRCLE
  5
88
330
17
100
AcDbEntity
  8
GC_RESULT_5DD67F7FB9
420
6060177
100
AcDbCircle
 10
12.5
 20
9.5
 30
0.0
 40
0.8
1001
GREENCAD_EDIT_V1
1000
{"role":"placement","placement":{"id":"e7329cae1f7452c7a73885b776824320","type_id":"T3","x":12.5,"y":9.5,"plant_id":null,"root_protection":true,"locked":false,"label":"T3 \u00b7 \u0430\u0432\u0442\u04
1000
3e 14","properties":{"generation":{"job_id":"8c5634d6b6527b7dafb3eea91a7846ab1a5af75b60634ba903af72bad8ea2005","version":"1.0","zone_id":"green_01","grid_index":542,"step_m":1.0,"order_and_caps":[["T1
1000
",20],["T2",20],["T3",20],["T4",20]]}}},"project_type":{"id":"T3","name":"\u0421\u0440\u0435\u0434\u043d\u0438\u0439 \u0411 \u2014 \u043f\u0440\u043e\u0435\u043a\u0442\u043d\u044b\u0439 \u0448\u0430\u
1000
0431\u043b\u043e\u043d","category":"tree","radius_m":0.8,"color":"#5C7891","plant_id":null,"symbol":"circle","properties":{},"template":{"schema_version":1,"limits":{"crown_radius_m":0.8},"requirement
1000
s":{"plant.drained_soil_required":true,"plant.loose_soil_required":true,"plant.unsalted_soil_required":true,"plant.uncompacted_soil_required":true,"plant.stagnant_water_exclusion":true},"minimum_dista
1000
nces_m":{"project.gas":3.0,"R.spacing":3.0},"moisture_range":[0.2,0.6],"root_protection":"REQUIRED","filters":[],"state_label":"\u0423\u0441\u043b\u043e\u0432\u043d\u044b\u0439 \u0442\u0435\u0441\u044
1000
2\u043e\u0432\u044b\u0439 \u0433\u0430\u0431\u0430\u0440\u0438\u0442; \u043d\u0435 \u0440\u0430\u0437\u043c\u0435\u0440\u044b \u0440\u0435\u0430\u043b\u044c\u043d\u043e\u0433\u043e \u0432\u0438\u0434\
1000
u0430 \u0438\u043b\u0438 \u0441\u043e\u0440\u0442\u0430"}},"geometry_role":"SYMBOL_CENTER","validation":"RECHECK_REQUIRED","schema_version":2}
  0
CIRCLE
  5
89
330
17
100
AcDbEntity
  8
GC_RESULT_5DD67F7FB9
420
6060177
100
AcDbCircle
 10
15.5
 20
9.5
 30
0.0
 40
0.8
1001
GREENCAD_EDIT_V1
1000
{"role":"placement","placement":{"id":"6fca0e6b892658c091a9d1e6ff576bae","type_id":"T3","x":15.5,"y":9.5,"plant_id":null,"root_protection":true,"locked":false,"label":"T3 \u00b7 \u0430\u0432\u0442\u04
1000
3e 15","properties":{"generation":{"job_id":"8c5634d6b6527b7dafb3eea91a7846ab1a5af75b60634ba903af72bad8ea2005","version":"1.0","zone_id":"green_01","grid_index":545,"step_m":1.0,"order_and_caps":[["T1
1000
",20],["T2",20],["T3",20],["T4",20]]}}},"project_type":{"id":"T3","name":"\u0421\u0440\u0435\u0434\u043d\u0438\u0439 \u0411 \u2014 \u043f\u0440\u043e\u0435\u043a\u0442\u043d\u044b\u0439 \u0448\u0430\u
1000
0431\u043b\u043e\u043d","category":"tree","radius_m":0.8,"color":"#5C7891","plant_id":null,"symbol":"circle","properties":{},"template":{"schema_version":1,"limits":{"crown_radius_m":0.8},"requirement
1000
s":{"plant.drained_soil_required":true,"plant.loose_soil_required":true,"plant.unsalted_soil_required":true,"plant.uncompacted_soil_required":true,"plant.stagnant_water_exclusion":true},"minimum_dista
1000
nces_m":{"project.gas":3.0,"R.spacing":3.0},"moisture_range":[0.2,0.6],"root_protection":"REQUIRED","filters":[],"state_label":"\u0423\u0441\u043b\u043e\u0432\u043d\u044b\u0439 \u0442\u0435\u0441\u044
1000
2\u043e\u0432\u044b\u0439 \u0433\u0430\u0431\u0430\u0440\u0438\u0442; \u043d\u0435 \u0440\u0430\u0437\u043c\u0435\u0440\u044b \u0440\u0435\u0430\u043b\u044c\u043d\u043e\u0433\u043e \u0432\u0438\u0434\
1000
u0430 \u0438\u043b\u0438 \u0441\u043e\u0440\u0442\u0430"}},"geometry_role":"SYMBOL_CENTER","validation":"RECHECK_REQUIRED","schema_version":2}
  0
CIRCLE
  5
8A
330
17
100
AcDbEntity
  8
GC_RESULT_5DD67F7FB9
420
6060177
100
AcDbCircle
 10
18.5
 20
9.5
 30
0.0
 40
0.8
1001
GREENCAD_EDIT_V1
1000
{"role":"placement","placement":{"id":"c371bd762b235104904f3f55f97b0de0","type_id":"T3","x":18.5,"y":9.5,"plant_id":null,"root_protection":true,"locked":false,"label":"T3 \u00b7 \u0430\u0432\u0442\u04
1000
3e 16","properties":{"generation":{"job_id":"8c5634d6b6527b7dafb3eea91a7846ab1a5af75b60634ba903af72bad8ea2005","version":"1.0","zone_id":"green_01","grid_index":548,"step_m":1.0,"order_and_caps":[["T1
1000
",20],["T2",20],["T3",20],["T4",20]]}}},"project_type":{"id":"T3","name":"\u0421\u0440\u0435\u0434\u043d\u0438\u0439 \u0411 \u2014 \u043f\u0440\u043e\u0435\u043a\u0442\u043d\u044b\u0439 \u0448\u0430\u
1000
0431\u043b\u043e\u043d","category":"tree","radius_m":0.8,"color":"#5C7891","plant_id":null,"symbol":"circle","properties":{},"template":{"schema_version":1,"limits":{"crown_radius_m":0.8},"requirement
1000
s":{"plant.drained_soil_required":true,"plant.loose_soil_required":true,"plant.unsalted_soil_required":true,"plant.uncompacted_soil_required":true,"plant.stagnant_water_exclusion":true},"minimum_dista
1000
nces_m":{"project.gas":3.0,"R.spacing":3.0},"moisture_range":[0.2,0.6],"root_protection":"REQUIRED","filters":[],"state_label":"\u0423\u0441\u043b\u043e\u0432\u043d\u044b\u0439 \u0442\u0435\u0441\u044
1000
2\u043e\u0432\u044b\u0439 \u0433\u0430\u0431\u0430\u0440\u0438\u0442; \u043d\u0435 \u0440\u0430\u0437\u043c\u0435\u0440\u044b \u0440\u0435\u0430\u043b\u044c\u043d\u043e\u0433\u043e \u0432\u0438\u0434\
1000
u0430 \u0438\u043b\u0438 \u0441\u043e\u0440\u0442\u0430"}},"geometry_role":"SYMBOL_CENTER","validation":"RECHECK_REQUIRED","schema_version":2}
  0
CIRCLE
  5
8B
330
17
100
AcDbEntity
  8
GC_RESULT_5DD67F7FB9
420
6060177
100
AcDbCircle
 10
21.5
 20
9.5
 30
0.0
 40
0.8
1001
GREENCAD_EDIT_V1
1000
{"role":"placement","placement":{"id":"54f0c0bcc4dc5491a8a6bc7d91b6df7c","type_id":"T3","x":21.5,"y":9.5,"plant_id":null,"root_protection":true,"locked":false,"label":"T3 \u00b7 \u0430\u0432\u0442\u04
1000
3e 17","properties":{"generation":{"job_id":"8c5634d6b6527b7dafb3eea91a7846ab1a5af75b60634ba903af72bad8ea2005","version":"1.0","zone_id":"green_01","grid_index":551,"step_m":1.0,"order_and_caps":[["T1
1000
",20],["T2",20],["T3",20],["T4",20]]}}},"project_type":{"id":"T3","name":"\u0421\u0440\u0435\u0434\u043d\u0438\u0439 \u0411 \u2014 \u043f\u0440\u043e\u0435\u043a\u0442\u043d\u044b\u0439 \u0448\u0430\u
1000
0431\u043b\u043e\u043d","category":"tree","radius_m":0.8,"color":"#5C7891","plant_id":null,"symbol":"circle","properties":{},"template":{"schema_version":1,"limits":{"crown_radius_m":0.8},"requirement
1000
s":{"plant.drained_soil_required":true,"plant.loose_soil_required":true,"plant.unsalted_soil_required":true,"plant.uncompacted_soil_required":true,"plant.stagnant_water_exclusion":true},"minimum_dista
1000
nces_m":{"project.gas":3.0,"R.spacing":3.0},"moisture_range":[0.2,0.6],"root_protection":"REQUIRED","filters":[],"state_label":"\u0423\u0441\u043b\u043e\u0432\u043d\u044b\u0439 \u0442\u0435\u0441\u044
1000
2\u043e\u0432\u044b\u0439 \u0433\u0430\u0431\u0430\u0440\u0438\u0442; \u043d\u0435 \u0440\u0430\u0437\u043c\u0435\u0440\u044b \u0440\u0435\u0430\u043b\u044c\u043d\u043e\u0433\u043e \u0432\u0438\u0434\
1000
u0430 \u0438\u043b\u0438 \u0441\u043e\u0440\u0442\u0430"}},"geometry_role":"SYMBOL_CENTER","validation":"RECHECK_REQUIRED","schema_version":2}
  0
CIRCLE
  5
8C
330
17
100
AcDbEntity
  8
GC_RESULT_5DD67F7FB9
420
6060177
100
AcDbCircle
 10
24.5
 20
9.5
 30
0.0
 40
0.8
1001
GREENCAD_EDIT_V1
1000
{"role":"placement","placement":{"id":"c9d0ff5825f45088859f25dd790e23aa","type_id":"T3","x":24.5,"y":9.5,"plant_id":null,"root_protection":true,"locked":false,"label":"T3 \u00b7 \u0430\u0432\u0442\u04
1000
3e 18","properties":{"generation":{"job_id":"8c5634d6b6527b7dafb3eea91a7846ab1a5af75b60634ba903af72bad8ea2005","version":"1.0","zone_id":"green_01","grid_index":554,"step_m":1.0,"order_and_caps":[["T1
1000
",20],["T2",20],["T3",20],["T4",20]]}}},"project_type":{"id":"T3","name":"\u0421\u0440\u0435\u0434\u043d\u0438\u0439 \u0411 \u2014 \u043f\u0440\u043e\u0435\u043a\u0442\u043d\u044b\u0439 \u0448\u0430\u
1000
0431\u043b\u043e\u043d","category":"tree","radius_m":0.8,"color":"#5C7891","plant_id":null,"symbol":"circle","properties":{},"template":{"schema_version":1,"limits":{"crown_radius_m":0.8},"requirement
1000
s":{"plant.drained_soil_required":true,"plant.loose_soil_required":true,"plant.unsalted_soil_required":true,"plant.uncompacted_soil_required":true,"plant.stagnant_water_exclusion":true},"minimum_dista
1000
nces_m":{"project.gas":3.0,"R.spacing":3.0},"moisture_range":[0.2,0.6],"root_protection":"REQUIRED","filters":[],"state_label":"\u0423\u0441\u043b\u043e\u0432\u043d\u044b\u0439 \u0442\u0435\u0441\u044
1000
2\u043e\u0432\u044b\u0439 \u0433\u0430\u0431\u0430\u0440\u0438\u0442; \u043d\u0435 \u0440\u0430\u0437\u043c\u0435\u0440\u044b \u0440\u0435\u0430\u043b\u044c\u043d\u043e\u0433\u043e \u0432\u0438\u0434\
1000
u0430 \u0438\u043b\u0438 \u0441\u043e\u0440\u0442\u0430"}},"geometry_role":"SYMBOL_CENTER","validation":"RECHECK_REQUIRED","schema_version":2}
  0
CIRCLE
  5
8D
330
17
100
AcDbEntity
  8
GC_RESULT_5DD67F7FB9
420
6060177
100
AcDbCircle
 10
27.5
 20
9.5
 30
0.0
 40
0.8
1001
GREENCAD_EDIT_V1
1000
{"role":"placement","placement":{"id":"03be9722a7a456878df9d7176051f1b7","type_id":"T3","x":27.5,"y":9.5,"plant_id":null,"root_protection":true,"locked":false,"label":"T3 \u00b7 \u0430\u0432\u0442\u04
1000
3e 19","properties":{"generation":{"job_id":"8c5634d6b6527b7dafb3eea91a7846ab1a5af75b60634ba903af72bad8ea2005","version":"1.0","zone_id":"green_01","grid_index":557,"step_m":1.0,"order_and_caps":[["T1
1000
",20],["T2",20],["T3",20],["T4",20]]}}},"project_type":{"id":"T3","name":"\u0421\u0440\u0435\u0434\u043d\u0438\u0439 \u0411 \u2014 \u043f\u0440\u043e\u0435\u043a\u0442\u043d\u044b\u0439 \u0448\u0430\u
1000
0431\u043b\u043e\u043d","category":"tree","radius_m":0.8,"color":"#5C7891","plant_id":null,"symbol":"circle","properties":{},"template":{"schema_version":1,"limits":{"crown_radius_m":0.8},"requirement
1000
s":{"plant.drained_soil_required":true,"plant.loose_soil_required":true,"plant.unsalted_soil_required":true,"plant.uncompacted_soil_required":true,"plant.stagnant_water_exclusion":true},"minimum_dista
1000
nces_m":{"project.gas":3.0,"R.spacing":3.0},"moisture_range":[0.2,0.6],"root_protection":"REQUIRED","filters":[],"state_label":"\u0423\u0441\u043b\u043e\u0432\u043d\u044b\u0439 \u0442\u0435\u0441\u044
1000
2\u043e\u0432\u044b\u0439 \u0433\u0430\u0431\u0430\u0440\u0438\u0442; \u043d\u0435 \u0440\u0430\u0437\u043c\u0435\u0440\u044b \u0440\u0435\u0430\u043b\u044c\u043d\u043e\u0433\u043e \u0432\u0438\u0434\
1000
u0430 \u0438\u043b\u0438 \u0441\u043e\u0440\u0442\u0430"}},"geometry_role":"SYMBOL_CENTER","validation":"RECHECK_REQUIRED","schema_version":2}
  0
CIRCLE
  5
8E
330
17
100
AcDbEntity
  8
GC_RESULT_5DD67F7FB9
420
6060177
100
AcDbCircle
 10
30.5
 20
9.5
 30
0.0
 40
0.8
1001
GREENCAD_EDIT_V1
1000
{"role":"placement","placement":{"id":"97051e085d0259b5a6d85e065af67045","type_id":"T3","x":30.5,"y":9.5,"plant_id":null,"root_protection":true,"locked":false,"label":"T3 \u00b7 \u0430\u0432\u0442\u04
1000
3e 20","properties":{"generation":{"job_id":"8c5634d6b6527b7dafb3eea91a7846ab1a5af75b60634ba903af72bad8ea2005","version":"1.0","zone_id":"green_01","grid_index":560,"step_m":1.0,"order_and_caps":[["T1
1000
",20],["T2",20],["T3",20],["T4",20]]}}},"project_type":{"id":"T3","name":"\u0421\u0440\u0435\u0434\u043d\u0438\u0439 \u0411 \u2014 \u043f\u0440\u043e\u0435\u043a\u0442\u043d\u044b\u0439 \u0448\u0430\u
1000
0431\u043b\u043e\u043d","category":"tree","radius_m":0.8,"color":"#5C7891","plant_id":null,"symbol":"circle","properties":{},"template":{"schema_version":1,"limits":{"crown_radius_m":0.8},"requirement
1000
s":{"plant.drained_soil_required":true,"plant.loose_soil_required":true,"plant.unsalted_soil_required":true,"plant.uncompacted_soil_required":true,"plant.stagnant_water_exclusion":true},"minimum_dista
1000
nces_m":{"project.gas":3.0,"R.spacing":3.0},"moisture_range":[0.2,0.6],"root_protection":"REQUIRED","filters":[],"state_label":"\u0423\u0441\u043b\u043e\u0432\u043d\u044b\u0439 \u0442\u0435\u0441\u044
1000
2\u043e\u0432\u044b\u0439 \u0433\u0430\u0431\u0430\u0440\u0438\u0442; \u043d\u0435 \u0440\u0430\u0437\u043c\u0435\u0440\u044b \u0440\u0435\u0430\u043b\u044c\u043d\u043e\u0433\u043e \u0432\u0438\u0434\
1000
u0430 \u0438\u043b\u0438 \u0441\u043e\u0440\u0442\u0430"}},"geometry_role":"SYMBOL_CENTER","validation":"RECHECK_REQUIRED","schema_version":2}
  0
CIRCLE
  5
8F
330
17
100
AcDbEntity
  8
GC_RESULT_11EE5E9AF3
420
10122578
100
AcDbCircle
 10
33.5
 20
9.5
 30
0.0
 40
0.4
1001
GREENCAD_EDIT_V1
1000
{"role":"placement","placement":{"id":"0338a4304d0951f7b151f50a24b35bc6","type_id":"T4","x":33.5,"y":9.5,"plant_id":null,"root_protection":false,"locked":false,"label":"T4 \u00b7 \u0430\u0432\u0442\u0
1000
43e 1","properties":{"generation":{"job_id":"8c5634d6b6527b7dafb3eea91a7846ab1a5af75b60634ba903af72bad8ea2005","version":"1.0","zone_id":"green_01","grid_index":563,"step_m":1.0,"order_and_caps":[["T1
1000
",20],["T2",20],["T3",20],["T4",20]]}}},"project_type":{"id":"T4","name":"\u041c\u0430\u043b\u044b\u0439 \u2014 \u043f\u0440\u043e\u0435\u043a\u0442\u043d\u044b\u0439 \u0448\u0430\u0431\u043b\u043e\u0
1000
43d","category":"shrub","radius_m":0.4,"color":"#9A7552","plant_id":null,"symbol":"circle","properties":{},"template":{"schema_version":1,"limits":{"crown_radius_m":0.4},"requirements":{"plant.drained
1000
_soil_required":true,"plant.loose_soil_required":true,"plant.unsalted_soil_required":true,"plant.uncompacted_soil_required":true,"plant.stagnant_water_exclusion":true},"minimum_distances_m":{"project.
1000
gas":3.0,"R.spacing":3.0},"moisture_range":[0.3,0.7],"root_protection":"ANY","filters":[],"state_label":"\u0423\u0441\u043b\u043e\u0432\u043d\u044b\u0439 \u0442\u0435\u0441\u0442\u043e\u0432\u044b\u04
1000
39 \u0433\u0430\u0431\u0430\u0440\u0438\u0442; \u043d\u0435 \u0440\u0430\u0437\u043c\u0435\u0440\u044b \u0440\u0435\u0430\u043b\u044c\u043d\u043e\u0433\u043e \u0432\u0438\u0434\u0430 \u0438\u043b\u043
1000
8 \u0441\u043e\u0440\u0442\u0430"}},"geometry_role":"SYMBOL_CENTER","validation":"RECHECK_REQUIRED","schema_version":2}
  0
CIRCLE
  5
90
330
17
100
AcDbEntity
  8
GC_RESULT_11EE5E9AF3
420
10122578
100
AcDbCircle
 10
36.5
 20
9.5
 30
0.0
 40
0.4
1001
GREENCAD_EDIT_V1
1000
{"role":"placement","placement":{"id":"d0f94ba5b1995f20841691240c6a6d34","type_id":"T4","x":36.5,"y":9.5,"plant_id":null,"root_protection":false,"locked":false,"label":"T4 \u00b7 \u0430\u0432\u0442\u0
1000
43e 2","properties":{"generation":{"job_id":"8c5634d6b6527b7dafb3eea91a7846ab1a5af75b60634ba903af72bad8ea2005","version":"1.0","zone_id":"green_01","grid_index":566,"step_m":1.0,"order_and_caps":[["T1
1000
",20],["T2",20],["T3",20],["T4",20]]}}},"project_type":{"id":"T4","name":"\u041c\u0430\u043b\u044b\u0439 \u2014 \u043f\u0440\u043e\u0435\u043a\u0442\u043d\u044b\u0439 \u0448\u0430\u0431\u043b\u043e\u0
1000
43d","category":"shrub","radius_m":0.4,"color":"#9A7552","plant_id":null,"symbol":"circle","properties":{},"template":{"schema_version":1,"limits":{"crown_radius_m":0.4},"requirements":{"plant.drained
1000
_soil_required":true,"plant.loose_soil_required":true,"plant.unsalted_soil_required":true,"plant.uncompacted_soil_required":true,"plant.stagnant_water_exclusion":true},"minimum_distances_m":{"project.
1000
gas":3.0,"R.spacing":3.0},"moisture_range":[0.3,0.7],"root_protection":"ANY","filters":[],"state_label":"\u0423\u0441\u043b\u043e\u0432\u043d\u044b\u0439 \u0442\u0435\u0441\u0442\u043e\u0432\u044b\u04
1000
39 \u0433\u0430\u0431\u0430\u0440\u0438\u0442; \u043d\u0435 \u0440\u0430\u0437\u043c\u0435\u0440\u044b \u0440\u0435\u0430\u043b\u044c\u043d\u043e\u0433\u043e \u0432\u0438\u0434\u0430 \u0438\u043b\u043
1000
8 \u0441\u043e\u0440\u0442\u0430"}},"geometry_role":"SYMBOL_CENTER","validation":"RECHECK_REQUIRED","schema_version":2}
  0
CIRCLE
  5
91
330
17
100
AcDbEntity
  8
GC_RESULT_11EE5E9AF3
420
10122578
100
AcDbCircle
 10
39.5
 20
9.5
 30
0.0
 40
0.4
1001
GREENCAD_EDIT_V1
1000
{"role":"placement","placement":{"id":"1b05e3df6adc524ca8ecb614c3c4835d","type_id":"T4","x":39.5,"y":9.5,"plant_id":null,"root_protection":false,"locked":false,"label":"T4 \u00b7 \u0430\u0432\u0442\u0
1000
43e 3","properties":{"generation":{"job_id":"8c5634d6b6527b7dafb3eea91a7846ab1a5af75b60634ba903af72bad8ea2005","version":"1.0","zone_id":"green_01","grid_index":569,"step_m":1.0,"order_and_caps":[["T1
1000
",20],["T2",20],["T3",20],["T4",20]]}}},"project_type":{"id":"T4","name":"\u041c\u0430\u043b\u044b\u0439 \u2014 \u043f\u0440\u043e\u0435\u043a\u0442\u043d\u044b\u0439 \u0448\u0430\u0431\u043b\u043e\u0
1000
43d","category":"shrub","radius_m":0.4,"color":"#9A7552","plant_id":null,"symbol":"circle","properties":{},"template":{"schema_version":1,"limits":{"crown_radius_m":0.4},"requirements":{"plant.drained
1000
_soil_required":true,"plant.loose_soil_required":true,"plant.unsalted_soil_required":true,"plant.uncompacted_soil_required":true,"plant.stagnant_water_exclusion":true},"minimum_distances_m":{"project.
1000
gas":3.0,"R.spacing":3.0},"moisture_range":[0.3,0.7],"root_protection":"ANY","filters":[],"state_label":"\u0423\u0441\u043b\u043e\u0432\u043d\u044b\u0439 \u0442\u0435\u0441\u0442\u043e\u0432\u044b\u04
1000
39 \u0433\u0430\u0431\u0430\u0440\u0438\u0442; \u043d\u0435 \u0440\u0430\u0437\u043c\u0435\u0440\u044b \u0440\u0435\u0430\u043b\u044c\u043d\u043e\u0433\u043e \u0432\u0438\u0434\u0430 \u0438\u043b\u043
1000
8 \u0441\u043e\u0440\u0442\u0430"}},"geometry_role":"SYMBOL_CENTER","validation":"RECHECK_REQUIRED","schema_version":2}
  0
CIRCLE
  5
92
330
17
100
AcDbEntity
  8
GC_RESULT_11EE5E9AF3
420
10122578
100
AcDbCircle
 10
42.5
 20
9.5
 30
0.0
 40
0.4
1001
GREENCAD_EDIT_V1
1000
{"role":"placement","placement":{"id":"bd7b4579749958ad89d3798aa93a7f13","type_id":"T4","x":42.5,"y":9.5,"plant_id":null,"root_protection":false,"locked":false,"label":"T4 \u00b7 \u0430\u0432\u0442\u0
1000
43e 4","properties":{"generation":{"job_id":"8c5634d6b6527b7dafb3eea91a7846ab1a5af75b60634ba903af72bad8ea2005","version":"1.0","zone_id":"green_01","grid_index":572,"step_m":1.0,"order_and_caps":[["T1
1000
",20],["T2",20],["T3",20],["T4",20]]}}},"project_type":{"id":"T4","name":"\u041c\u0430\u043b\u044b\u0439 \u2014 \u043f\u0440\u043e\u0435\u043a\u0442\u043d\u044b\u0439 \u0448\u0430\u0431\u043b\u043e\u0
1000
43d","category":"shrub","radius_m":0.4,"color":"#9A7552","plant_id":null,"symbol":"circle","properties":{},"template":{"schema_version":1,"limits":{"crown_radius_m":0.4},"requirements":{"plant.drained
1000
_soil_required":true,"plant.loose_soil_required":true,"plant.unsalted_soil_required":true,"plant.uncompacted_soil_required":true,"plant.stagnant_water_exclusion":true},"minimum_distances_m":{"project.
1000
gas":3.0,"R.spacing":3.0},"moisture_range":[0.3,0.7],"root_protection":"ANY","filters":[],"state_label":"\u0423\u0441\u043b\u043e\u0432\u043d\u044b\u0439 \u0442\u0435\u0441\u0442\u043e\u0432\u044b\u04
1000
39 \u0433\u0430\u0431\u0430\u0440\u0438\u0442; \u043d\u0435 \u0440\u0430\u0437\u043c\u0435\u0440\u044b \u0440\u0435\u0430\u043b\u044c\u043d\u043e\u0433\u043e \u0432\u0438\u0434\u0430 \u0438\u043b\u043
1000
8 \u0441\u043e\u0440\u0442\u0430"}},"geometry_role":"SYMBOL_CENTER","validation":"RECHECK_REQUIRED","schema_version":2}
  0
CIRCLE
  5
93
330
17
100
AcDbEntity
  8
GC_RESULT_11EE5E9AF3
420
10122578
100
AcDbCircle
 10
45.5
 20
9.5
 30
0.0
 40
0.4
1001
GREENCAD_EDIT_V1
1000
{"role":"placement","placement":{"id":"b5b5e506f79b5f30b3478c0a26d110a9","type_id":"T4","x":45.5,"y":9.5,"plant_id":null,"root_protection":false,"locked":false,"label":"T4 \u00b7 \u0430\u0432\u0442\u0
1000
43e 5","properties":{"generation":{"job_id":"8c5634d6b6527b7dafb3eea91a7846ab1a5af75b60634ba903af72bad8ea2005","version":"1.0","zone_id":"green_01","grid_index":575,"step_m":1.0,"order_and_caps":[["T1
1000
",20],["T2",20],["T3",20],["T4",20]]}}},"project_type":{"id":"T4","name":"\u041c\u0430\u043b\u044b\u0439 \u2014 \u043f\u0440\u043e\u0435\u043a\u0442\u043d\u044b\u0439 \u0448\u0430\u0431\u043b\u043e\u0
1000
43d","category":"shrub","radius_m":0.4,"color":"#9A7552","plant_id":null,"symbol":"circle","properties":{},"template":{"schema_version":1,"limits":{"crown_radius_m":0.4},"requirements":{"plant.drained
1000
_soil_required":true,"plant.loose_soil_required":true,"plant.unsalted_soil_required":true,"plant.uncompacted_soil_required":true,"plant.stagnant_water_exclusion":true},"minimum_distances_m":{"project.
1000
gas":3.0,"R.spacing":3.0},"moisture_range":[0.3,0.7],"root_protection":"ANY","filters":[],"state_label":"\u0423\u0441\u043b\u043e\u0432\u043d\u044b\u0439 \u0442\u0435\u0441\u0442\u043e\u0432\u044b\u04
1000
39 \u0433\u0430\u0431\u0430\u0440\u0438\u0442; \u043d\u0435 \u0440\u0430\u0437\u043c\u0435\u0440\u044b \u0440\u0435\u0430\u043b\u044c\u043d\u043e\u0433\u043e \u0432\u0438\u0434\u0430 \u0438\u043b\u043
1000
8 \u0441\u043e\u0440\u0442\u0430"}},"geometry_role":"SYMBOL_CENTER","validation":"RECHECK_REQUIRED","schema_version":2}
  0
CIRCLE
  5
94
330
17
100
AcDbEntity
  8
GC_RESULT_11EE5E9AF3
420
10122578
100
AcDbCircle
 10
48.5
 20
9.5
 30
0.0
 40
0.4
1001
GREENCAD_EDIT_V1
1000
{"role":"placement","placement":{"id":"cf862e78787c5f92b9a3540aaaf0f741","type_id":"T4","x":48.5,"y":9.5,"plant_id":null,"root_protection":false,"locked":false,"label":"T4 \u00b7 \u0430\u0432\u0442\u0
1000
43e 6","properties":{"generation":{"job_id":"8c5634d6b6527b7dafb3eea91a7846ab1a5af75b60634ba903af72bad8ea2005","version":"1.0","zone_id":"green_01","grid_index":578,"step_m":1.0,"order_and_caps":[["T1
1000
",20],["T2",20],["T3",20],["T4",20]]}}},"project_type":{"id":"T4","name":"\u041c\u0430\u043b\u044b\u0439 \u2014 \u043f\u0440\u043e\u0435\u043a\u0442\u043d\u044b\u0439 \u0448\u0430\u0431\u043b\u043e\u0
1000
43d","category":"shrub","radius_m":0.4,"color":"#9A7552","plant_id":null,"symbol":"circle","properties":{},"template":{"schema_version":1,"limits":{"crown_radius_m":0.4},"requirements":{"plant.drained
1000
_soil_required":true,"plant.loose_soil_required":true,"plant.unsalted_soil_required":true,"plant.uncompacted_soil_required":true,"plant.stagnant_water_exclusion":true},"minimum_distances_m":{"project.
1000
gas":3.0,"R.spacing":3.0},"moisture_range":[0.3,0.7],"root_protection":"ANY","filters":[],"state_label":"\u0423\u0441\u043b\u043e\u0432\u043d\u044b\u0439 \u0442\u0435\u0441\u0442\u043e\u0432\u044b\u04
1000
39 \u0433\u0430\u0431\u0430\u0440\u0438\u0442; \u043d\u0435 \u0440\u0430\u0437\u043c\u0435\u0440\u044b \u0440\u0435\u0430\u043b\u044c\u043d\u043e\u0433\u043e \u0432\u0438\u0434\u0430 \u0438\u043b\u043
1000
8 \u0441\u043e\u0440\u0442\u0430"}},"geometry_role":"SYMBOL_CENTER","validation":"RECHECK_REQUIRED","schema_version":2}
  0
CIRCLE
  5
95
330
17
100
AcDbEntity
  8
GC_RESULT_11EE5E9AF3
420
10122578
100
AcDbCircle
 10
51.5
 20
9.5
 30
0.0
 40
0.4
1001
GREENCAD_EDIT_V1
1000
{"role":"placement","placement":{"id":"e3e871936cc05c19ad20f6322a304669","type_id":"T4","x":51.5,"y":9.5,"plant_id":null,"root_protection":false,"locked":false,"label":"T4 \u00b7 \u0430\u0432\u0442\u0
1000
43e 7","properties":{"generation":{"job_id":"8c5634d6b6527b7dafb3eea91a7846ab1a5af75b60634ba903af72bad8ea2005","version":"1.0","zone_id":"green_01","grid_index":581,"step_m":1.0,"order_and_caps":[["T1
1000
",20],["T2",20],["T3",20],["T4",20]]}}},"project_type":{"id":"T4","name":"\u041c\u0430\u043b\u044b\u0439 \u2014 \u043f\u0440\u043e\u0435\u043a\u0442\u043d\u044b\u0439 \u0448\u0430\u0431\u043b\u043e\u0
1000
43d","category":"shrub","radius_m":0.4,"color":"#9A7552","plant_id":null,"symbol":"circle","properties":{},"template":{"schema_version":1,"limits":{"crown_radius_m":0.4},"requirements":{"plant.drained
1000
_soil_required":true,"plant.loose_soil_required":true,"plant.unsalted_soil_required":true,"plant.uncompacted_soil_required":true,"plant.stagnant_water_exclusion":true},"minimum_distances_m":{"project.
1000
gas":3.0,"R.spacing":3.0},"moisture_range":[0.3,0.7],"root_protection":"ANY","filters":[],"state_label":"\u0423\u0441\u043b\u043e\u0432\u043d\u044b\u0439 \u0442\u0435\u0441\u0442\u043e\u0432\u044b\u04
1000
39 \u0433\u0430\u0431\u0430\u0440\u0438\u0442; \u043d\u0435 \u0440\u0430\u0437\u043c\u0435\u0440\u044b \u0440\u0435\u0430\u043b\u044c\u043d\u043e\u0433\u043e \u0432\u0438\u0434\u0430 \u0438\u043b\u043
1000
8 \u0441\u043e\u0440\u0442\u0430"}},"geometry_role":"SYMBOL_CENTER","validation":"RECHECK_REQUIRED","schema_version":2}
  0
CIRCLE
  5
96
330
17
100
AcDbEntity
  8
GC_RESULT_11EE5E9AF3
420
10122578
100
AcDbCircle
 10
54.5
 20
9.5
 30
0.0
 40
0.4
1001
GREENCAD_EDIT_V1
1000
{"role":"placement","placement":{"id":"e7a1490ca2265caea175045b448bee16","type_id":"T4","x":54.5,"y":9.5,"plant_id":null,"root_protection":false,"locked":false,"label":"T4 \u00b7 \u0430\u0432\u0442\u0
1000
43e 8","properties":{"generation":{"job_id":"8c5634d6b6527b7dafb3eea91a7846ab1a5af75b60634ba903af72bad8ea2005","version":"1.0","zone_id":"green_01","grid_index":584,"step_m":1.0,"order_and_caps":[["T1
1000
",20],["T2",20],["T3",20],["T4",20]]}}},"project_type":{"id":"T4","name":"\u041c\u0430\u043b\u044b\u0439 \u2014 \u043f\u0440\u043e\u0435\u043a\u0442\u043d\u044b\u0439 \u0448\u0430\u0431\u043b\u043e\u0
1000
43d","category":"shrub","radius_m":0.4,"color":"#9A7552","plant_id":null,"symbol":"circle","properties":{},"template":{"schema_version":1,"limits":{"crown_radius_m":0.4},"requirements":{"plant.drained
1000
_soil_required":true,"plant.loose_soil_required":true,"plant.unsalted_soil_required":true,"plant.uncompacted_soil_required":true,"plant.stagnant_water_exclusion":true},"minimum_distances_m":{"project.
1000
gas":3.0,"R.spacing":3.0},"moisture_range":[0.3,0.7],"root_protection":"ANY","filters":[],"state_label":"\u0423\u0441\u043b\u043e\u0432\u043d\u044b\u0439 \u0442\u0435\u0441\u0442\u043e\u0432\u044b\u04
1000
39 \u0433\u0430\u0431\u0430\u0440\u0438\u0442; \u043d\u0435 \u0440\u0430\u0437\u043c\u0435\u0440\u044b \u0440\u0435\u0430\u043b\u044c\u043d\u043e\u0433\u043e \u0432\u0438\u0434\u0430 \u0438\u043b\u043
1000
8 \u0441\u043e\u0440\u0442\u0430"}},"geometry_role":"SYMBOL_CENTER","validation":"RECHECK_REQUIRED","schema_version":2}
  0
CIRCLE
  5
97
330
17
100
AcDbEntity
  8
GC_RESULT_11EE5E9AF3
420
10122578
100
AcDbCircle
 10
57.5
 20
9.5
 30
0.0
 40
0.4
1001
GREENCAD_EDIT_V1
1000
{"role":"placement","placement":{"id":"138973aca9e051a79ed0b343b3999087","type_id":"T4","x":57.5,"y":9.5,"plant_id":null,"root_protection":false,"locked":false,"label":"T4 \u00b7 \u0430\u0432\u0442\u0
1000
43e 9","properties":{"generation":{"job_id":"8c5634d6b6527b7dafb3eea91a7846ab1a5af75b60634ba903af72bad8ea2005","version":"1.0","zone_id":"green_01","grid_index":587,"step_m":1.0,"order_and_caps":[["T1
1000
",20],["T2",20],["T3",20],["T4",20]]}}},"project_type":{"id":"T4","name":"\u041c\u0430\u043b\u044b\u0439 \u2014 \u043f\u0440\u043e\u0435\u043a\u0442\u043d\u044b\u0439 \u0448\u0430\u0431\u043b\u043e\u0
1000
43d","category":"shrub","radius_m":0.4,"color":"#9A7552","plant_id":null,"symbol":"circle","properties":{},"template":{"schema_version":1,"limits":{"crown_radius_m":0.4},"requirements":{"plant.drained
1000
_soil_required":true,"plant.loose_soil_required":true,"plant.unsalted_soil_required":true,"plant.uncompacted_soil_required":true,"plant.stagnant_water_exclusion":true},"minimum_distances_m":{"project.
1000
gas":3.0,"R.spacing":3.0},"moisture_range":[0.3,0.7],"root_protection":"ANY","filters":[],"state_label":"\u0423\u0441\u043b\u043e\u0432\u043d\u044b\u0439 \u0442\u0435\u0441\u0442\u043e\u0432\u044b\u04
1000
39 \u0433\u0430\u0431\u0430\u0440\u0438\u0442; \u043d\u0435 \u0440\u0430\u0437\u043c\u0435\u0440\u044b \u0440\u0435\u0430\u043b\u044c\u043d\u043e\u0433\u043e \u0432\u0438\u0434\u0430 \u0438\u043b\u043
1000
8 \u0441\u043e\u0440\u0442\u0430"}},"geometry_role":"SYMBOL_CENTER","validation":"RECHECK_REQUIRED","schema_version":2}
  0
CIRCLE
  5
98
330
17
100
AcDbEntity
  8
GC_RESULT_11EE5E9AF3
420
10122578
100
AcDbCircle
 10
60.5
 20
9.5
 30
0.0
 40
0.4
1001
GREENCAD_EDIT_V1
1000
{"role":"placement","placement":{"id":"ba150b7ccb825bb7946338fdfbe4b386","type_id":"T4","x":60.5,"y":9.5,"plant_id":null,"root_protection":false,"locked":false,"label":"T4 \u00b7 \u0430\u0432\u0442\u0
1000
43e 10","properties":{"generation":{"job_id":"8c5634d6b6527b7dafb3eea91a7846ab1a5af75b60634ba903af72bad8ea2005","version":"1.0","zone_id":"green_01","grid_index":590,"step_m":1.0,"order_and_caps":[["T
1000
1",20],["T2",20],["T3",20],["T4",20]]}}},"project_type":{"id":"T4","name":"\u041c\u0430\u043b\u044b\u0439 \u2014 \u043f\u0440\u043e\u0435\u043a\u0442\u043d\u044b\u0439 \u0448\u0430\u0431\u043b\u043e\u
1000
043d","category":"shrub","radius_m":0.4,"color":"#9A7552","plant_id":null,"symbol":"circle","properties":{},"template":{"schema_version":1,"limits":{"crown_radius_m":0.4},"requirements":{"plant.draine
1000
d_soil_required":true,"plant.loose_soil_required":true,"plant.unsalted_soil_required":true,"plant.uncompacted_soil_required":true,"plant.stagnant_water_exclusion":true},"minimum_distances_m":{"project
1000
.gas":3.0,"R.spacing":3.0},"moisture_range":[0.3,0.7],"root_protection":"ANY","filters":[],"state_label":"\u0423\u0441\u043b\u043e\u0432\u043d\u044b\u0439 \u0442\u0435\u0441\u0442\u043e\u0432\u044b\u0
1000
439 \u0433\u0430\u0431\u0430\u0440\u0438\u0442; \u043d\u0435 \u0440\u0430\u0437\u043c\u0435\u0440\u044b \u0440\u0435\u0430\u043b\u044c\u043d\u043e\u0433\u043e \u0432\u0438\u0434\u0430 \u0438\u043b\u04
1000
38 \u0441\u043e\u0440\u0442\u0430"}},"geometry_role":"SYMBOL_CENTER","validation":"RECHECK_REQUIRED","schema_version":2}
  0
CIRCLE
  5
99
330
17
100
AcDbEntity
  8
GC_RESULT_11EE5E9AF3
420
10122578
100
AcDbCircle
 10
63.5
 20
9.5
 30
0.0
 40
0.4
1001
GREENCAD_EDIT_V1
1000
{"role":"placement","placement":{"id":"852231d9f3185759a7dccfcf838b9e84","type_id":"T4","x":63.5,"y":9.5,"plant_id":null,"root_protection":false,"locked":false,"label":"T4 \u00b7 \u0430\u0432\u0442\u0
1000
43e 11","properties":{"generation":{"job_id":"8c5634d6b6527b7dafb3eea91a7846ab1a5af75b60634ba903af72bad8ea2005","version":"1.0","zone_id":"green_01","grid_index":593,"step_m":1.0,"order_and_caps":[["T
1000
1",20],["T2",20],["T3",20],["T4",20]]}}},"project_type":{"id":"T4","name":"\u041c\u0430\u043b\u044b\u0439 \u2014 \u043f\u0440\u043e\u0435\u043a\u0442\u043d\u044b\u0439 \u0448\u0430\u0431\u043b\u043e\u
1000
043d","category":"shrub","radius_m":0.4,"color":"#9A7552","plant_id":null,"symbol":"circle","properties":{},"template":{"schema_version":1,"limits":{"crown_radius_m":0.4},"requirements":{"plant.draine
1000
d_soil_required":true,"plant.loose_soil_required":true,"plant.unsalted_soil_required":true,"plant.uncompacted_soil_required":true,"plant.stagnant_water_exclusion":true},"minimum_distances_m":{"project
1000
.gas":3.0,"R.spacing":3.0},"moisture_range":[0.3,0.7],"root_protection":"ANY","filters":[],"state_label":"\u0423\u0441\u043b\u043e\u0432\u043d\u044b\u0439 \u0442\u0435\u0441\u0442\u043e\u0432\u044b\u0
1000
439 \u0433\u0430\u0431\u0430\u0440\u0438\u0442; \u043d\u0435 \u0440\u0430\u0437\u043c\u0435\u0440\u044b \u0440\u0435\u0430\u043b\u044c\u043d\u043e\u0433\u043e \u0432\u0438\u0434\u0430 \u0438\u043b\u04
1000
38 \u0441\u043e\u0440\u0442\u0430"}},"geometry_role":"SYMBOL_CENTER","validation":"RECHECK_REQUIRED","schema_version":2}
  0
CIRCLE
  5
9A
330
17
100
AcDbEntity
  8
GC_RESULT_11EE5E9AF3
420
10122578
100
AcDbCircle
 10
66.5
 20
9.5
 30
0.0
 40
0.4
1001
GREENCAD_EDIT_V1
1000
{"role":"placement","placement":{"id":"de0f0b0b3cf5587a87f2be7d1f729ed2","type_id":"T4","x":66.5,"y":9.5,"plant_id":null,"root_protection":false,"locked":false,"label":"T4 \u00b7 \u0430\u0432\u0442\u0
1000
43e 12","properties":{"generation":{"job_id":"8c5634d6b6527b7dafb3eea91a7846ab1a5af75b60634ba903af72bad8ea2005","version":"1.0","zone_id":"green_01","grid_index":596,"step_m":1.0,"order_and_caps":[["T
1000
1",20],["T2",20],["T3",20],["T4",20]]}}},"project_type":{"id":"T4","name":"\u041c\u0430\u043b\u044b\u0439 \u2014 \u043f\u0440\u043e\u0435\u043a\u0442\u043d\u044b\u0439 \u0448\u0430\u0431\u043b\u043e\u
1000
043d","category":"shrub","radius_m":0.4,"color":"#9A7552","plant_id":null,"symbol":"circle","properties":{},"template":{"schema_version":1,"limits":{"crown_radius_m":0.4},"requirements":{"plant.draine
1000
d_soil_required":true,"plant.loose_soil_required":true,"plant.unsalted_soil_required":true,"plant.uncompacted_soil_required":true,"plant.stagnant_water_exclusion":true},"minimum_distances_m":{"project
1000
.gas":3.0,"R.spacing":3.0},"moisture_range":[0.3,0.7],"root_protection":"ANY","filters":[],"state_label":"\u0423\u0441\u043b\u043e\u0432\u043d\u044b\u0439 \u0442\u0435\u0441\u0442\u043e\u0432\u044b\u0
1000
439 \u0433\u0430\u0431\u0430\u0440\u0438\u0442; \u043d\u0435 \u0440\u0430\u0437\u043c\u0435\u0440\u044b \u0440\u0435\u0430\u043b\u044c\u043d\u043e\u0433\u043e \u0432\u0438\u0434\u0430 \u0438\u043b\u04
1000
38 \u0441\u043e\u0440\u0442\u0430"}},"geometry_role":"SYMBOL_CENTER","validation":"RECHECK_REQUIRED","schema_version":2}
  0
CIRCLE
  5
9B
330
17
100
AcDbEntity
  8
GC_RESULT_11EE5E9AF3
420
10122578
100
AcDbCircle
 10
69.5
 20
9.5
 30
0.0
 40
0.4
1001
GREENCAD_EDIT_V1
1000
{"role":"placement","placement":{"id":"1e4a87efe93d5c93a80f562e5b4de900","type_id":"T4","x":69.5,"y":9.5,"plant_id":null,"root_protection":false,"locked":false,"label":"T4 \u00b7 \u0430\u0432\u0442\u0
1000
43e 13","properties":{"generation":{"job_id":"8c5634d6b6527b7dafb3eea91a7846ab1a5af75b60634ba903af72bad8ea2005","version":"1.0","zone_id":"green_01","grid_index":599,"step_m":1.0,"order_and_caps":[["T
1000
1",20],["T2",20],["T3",20],["T4",20]]}}},"project_type":{"id":"T4","name":"\u041c\u0430\u043b\u044b\u0439 \u2014 \u043f\u0440\u043e\u0435\u043a\u0442\u043d\u044b\u0439 \u0448\u0430\u0431\u043b\u043e\u
1000
043d","category":"shrub","radius_m":0.4,"color":"#9A7552","plant_id":null,"symbol":"circle","properties":{},"template":{"schema_version":1,"limits":{"crown_radius_m":0.4},"requirements":{"plant.draine
1000
d_soil_required":true,"plant.loose_soil_required":true,"plant.unsalted_soil_required":true,"plant.uncompacted_soil_required":true,"plant.stagnant_water_exclusion":true},"minimum_distances_m":{"project
1000
.gas":3.0,"R.spacing":3.0},"moisture_range":[0.3,0.7],"root_protection":"ANY","filters":[],"state_label":"\u0423\u0441\u043b\u043e\u0432\u043d\u044b\u0439 \u0442\u0435\u0441\u0442\u043e\u0432\u044b\u0
1000
439 \u0433\u0430\u0431\u0430\u0440\u0438\u0442; \u043d\u0435 \u0440\u0430\u0437\u043c\u0435\u0440\u044b \u0440\u0435\u0430\u043b\u044c\u043d\u043e\u0433\u043e \u0432\u0438\u0434\u0430 \u0438\u043b\u04
1000
38 \u0441\u043e\u0440\u0442\u0430"}},"geometry_role":"SYMBOL_CENTER","validation":"RECHECK_REQUIRED","schema_version":2}
  0
CIRCLE
  5
9C
330
17
100
AcDbEntity
  8
GC_RESULT_11EE5E9AF3
420
10122578
100
AcDbCircle
 10
72.5
 20
9.5
 30
0.0
 40
0.4
1001
GREENCAD_EDIT_V1
1000
{"role":"placement","placement":{"id":"db144a9f976053569dc4e93caabc65bd","type_id":"T4","x":72.5,"y":9.5,"plant_id":null,"root_protection":false,"locked":false,"label":"T4 \u00b7 \u0430\u0432\u0442\u0
1000
43e 14","properties":{"generation":{"job_id":"8c5634d6b6527b7dafb3eea91a7846ab1a5af75b60634ba903af72bad8ea2005","version":"1.0","zone_id":"green_01","grid_index":602,"step_m":1.0,"order_and_caps":[["T
1000
1",20],["T2",20],["T3",20],["T4",20]]}}},"project_type":{"id":"T4","name":"\u041c\u0430\u043b\u044b\u0439 \u2014 \u043f\u0440\u043e\u0435\u043a\u0442\u043d\u044b\u0439 \u0448\u0430\u0431\u043b\u043e\u
1000
043d","category":"shrub","radius_m":0.4,"color":"#9A7552","plant_id":null,"symbol":"circle","properties":{},"template":{"schema_version":1,"limits":{"crown_radius_m":0.4},"requirements":{"plant.draine
1000
d_soil_required":true,"plant.loose_soil_required":true,"plant.unsalted_soil_required":true,"plant.uncompacted_soil_required":true,"plant.stagnant_water_exclusion":true},"minimum_distances_m":{"project
1000
.gas":3.0,"R.spacing":3.0},"moisture_range":[0.3,0.7],"root_protection":"ANY","filters":[],"state_label":"\u0423\u0441\u043b\u043e\u0432\u043d\u044b\u0439 \u0442\u0435\u0441\u0442\u043e\u0432\u044b\u0
1000
439 \u0433\u0430\u0431\u0430\u0440\u0438\u0442; \u043d\u0435 \u0440\u0430\u0437\u043c\u0435\u0440\u044b \u0440\u0435\u0430\u043b\u044c\u043d\u043e\u0433\u043e \u0432\u0438\u0434\u0430 \u0438\u043b\u04
1000
38 \u0441\u043e\u0440\u0442\u0430"}},"geometry_role":"SYMBOL_CENTER","validation":"RECHECK_REQUIRED","schema_version":2}
  0
CIRCLE
  5
9D
330
17
100
AcDbEntity
  8
GC_RESULT_11EE5E9AF3
420
10122578
100
AcDbCircle
 10
75.5
 20
9.5
 30
0.0
 40
0.4
1001
GREENCAD_EDIT_V1
1000
{"role":"placement","placement":{"id":"decac3774ec05861833ac125a963d08c","type_id":"T4","x":75.5,"y":9.5,"plant_id":null,"root_protection":false,"locked":false,"label":"T4 \u00b7 \u0430\u0432\u0442\u0
1000
43e 15","properties":{"generation":{"job_id":"8c5634d6b6527b7dafb3eea91a7846ab1a5af75b60634ba903af72bad8ea2005","version":"1.0","zone_id":"green_01","grid_index":605,"step_m":1.0,"order_and_caps":[["T
1000
1",20],["T2",20],["T3",20],["T4",20]]}}},"project_type":{"id":"T4","name":"\u041c\u0430\u043b\u044b\u0439 \u2014 \u043f\u0440\u043e\u0435\u043a\u0442\u043d\u044b\u0439 \u0448\u0430\u0431\u043b\u043e\u
1000
043d","category":"shrub","radius_m":0.4,"color":"#9A7552","plant_id":null,"symbol":"circle","properties":{},"template":{"schema_version":1,"limits":{"crown_radius_m":0.4},"requirements":{"plant.draine
1000
d_soil_required":true,"plant.loose_soil_required":true,"plant.unsalted_soil_required":true,"plant.uncompacted_soil_required":true,"plant.stagnant_water_exclusion":true},"minimum_distances_m":{"project
1000
.gas":3.0,"R.spacing":3.0},"moisture_range":[0.3,0.7],"root_protection":"ANY","filters":[],"state_label":"\u0423\u0441\u043b\u043e\u0432\u043d\u044b\u0439 \u0442\u0435\u0441\u0442\u043e\u0432\u044b\u0
1000
439 \u0433\u0430\u0431\u0430\u0440\u0438\u0442; \u043d\u0435 \u0440\u0430\u0437\u043c\u0435\u0440\u044b \u0440\u0435\u0430\u043b\u044c\u043d\u043e\u0433\u043e \u0432\u0438\u0434\u0430 \u0438\u043b\u04
1000
38 \u0441\u043e\u0440\u0442\u0430"}},"geometry_role":"SYMBOL_CENTER","validation":"RECHECK_REQUIRED","schema_version":2}
  0
CIRCLE
  5
9E
330
17
100
AcDbEntity
  8
GC_RESULT_11EE5E9AF3
420
10122578
100
AcDbCircle
 10
2.5
 20
12.5
 30
0.0
 40
0.4
1001
GREENCAD_EDIT_V1
1000
{"role":"placement","placement":{"id":"30532bff44cc579b99d5229ff39b5838","type_id":"T4","x":2.5,"y":12.5,"plant_id":null,"root_protection":false,"locked":false,"label":"T4 \u00b7 \u0430\u0432\u0442\u0
1000
43e 16","properties":{"generation":{"job_id":"8c5634d6b6527b7dafb3eea91a7846ab1a5af75b60634ba903af72bad8ea2005","version":"1.0","zone_id":"green_01","grid_index":760,"step_m":1.0,"order_and_caps":[["T
1000
1",20],["T2",20],["T3",20],["T4",20]]}}},"project_type":{"id":"T4","name":"\u041c\u0430\u043b\u044b\u0439 \u2014 \u043f\u0440\u043e\u0435\u043a\u0442\u043d\u044b\u0439 \u0448\u0430\u0431\u043b\u043e\u
1000
043d","category":"shrub","radius_m":0.4,"color":"#9A7552","plant_id":null,"symbol":"circle","properties":{},"template":{"schema_version":1,"limits":{"crown_radius_m":0.4},"requirements":{"plant.draine
1000
d_soil_required":true,"plant.loose_soil_required":true,"plant.unsalted_soil_required":true,"plant.uncompacted_soil_required":true,"plant.stagnant_water_exclusion":true},"minimum_distances_m":{"project
1000
.gas":3.0,"R.spacing":3.0},"moisture_range":[0.3,0.7],"root_protection":"ANY","filters":[],"state_label":"\u0423\u0441\u043b\u043e\u0432\u043d\u044b\u0439 \u0442\u0435\u0441\u0442\u043e\u0432\u044b\u0
1000
439 \u0433\u0430\u0431\u0430\u0440\u0438\u0442; \u043d\u0435 \u0440\u0430\u0437\u043c\u0435\u0440\u044b \u0440\u0435\u0430\u043b\u044c\u043d\u043e\u0433\u043e \u0432\u0438\u0434\u0430 \u0438\u043b\u04
1000
38 \u0441\u043e\u0440\u0442\u0430"}},"geometry_role":"SYMBOL_CENTER","validation":"RECHECK_REQUIRED","schema_version":2}
  0
CIRCLE
  5
9F
330
17
100
AcDbEntity
  8
GC_RESULT_11EE5E9AF3
420
10122578
100
AcDbCircle
 10
5.5
 20
12.5
 30
0.0
 40
0.4
1001
GREENCAD_EDIT_V1
1000
{"role":"placement","placement":{"id":"6271a034081d505292e7bd756b22a801","type_id":"T4","x":5.5,"y":12.5,"plant_id":null,"root_protection":false,"locked":false,"label":"T4 \u00b7 \u0430\u0432\u0442\u0
1000
43e 17","properties":{"generation":{"job_id":"8c5634d6b6527b7dafb3eea91a7846ab1a5af75b60634ba903af72bad8ea2005","version":"1.0","zone_id":"green_01","grid_index":763,"step_m":1.0,"order_and_caps":[["T
1000
1",20],["T2",20],["T3",20],["T4",20]]}}},"project_type":{"id":"T4","name":"\u041c\u0430\u043b\u044b\u0439 \u2014 \u043f\u0440\u043e\u0435\u043a\u0442\u043d\u044b\u0439 \u0448\u0430\u0431\u043b\u043e\u
1000
043d","category":"shrub","radius_m":0.4,"color":"#9A7552","plant_id":null,"symbol":"circle","properties":{},"template":{"schema_version":1,"limits":{"crown_radius_m":0.4},"requirements":{"plant.draine
1000
d_soil_required":true,"plant.loose_soil_required":true,"plant.unsalted_soil_required":true,"plant.uncompacted_soil_required":true,"plant.stagnant_water_exclusion":true},"minimum_distances_m":{"project
1000
.gas":3.0,"R.spacing":3.0},"moisture_range":[0.3,0.7],"root_protection":"ANY","filters":[],"state_label":"\u0423\u0441\u043b\u043e\u0432\u043d\u044b\u0439 \u0442\u0435\u0441\u0442\u043e\u0432\u044b\u0
1000
439 \u0433\u0430\u0431\u0430\u0440\u0438\u0442; \u043d\u0435 \u0440\u0430\u0437\u043c\u0435\u0440\u044b \u0440\u0435\u0430\u043b\u044c\u043d\u043e\u0433\u043e \u0432\u0438\u0434\u0430 \u0438\u043b\u04
1000
38 \u0441\u043e\u0440\u0442\u0430"}},"geometry_role":"SYMBOL_CENTER","validation":"RECHECK_REQUIRED","schema_version":2}
  0
CIRCLE
  5
A0
330
17
100
AcDbEntity
  8
GC_RESULT_11EE5E9AF3
420
10122578
100
AcDbCircle
 10
8.5
 20
12.5
 30
0.0
 40
0.4
1001
GREENCAD_EDIT_V1
1000
{"role":"placement","placement":{"id":"65ac1b3115b05257b5ae8ab683b0af7b","type_id":"T4","x":8.5,"y":12.5,"plant_id":null,"root_protection":false,"locked":false,"label":"T4 \u00b7 \u0430\u0432\u0442\u0
1000
43e 18","properties":{"generation":{"job_id":"8c5634d6b6527b7dafb3eea91a7846ab1a5af75b60634ba903af72bad8ea2005","version":"1.0","zone_id":"green_01","grid_index":766,"step_m":1.0,"order_and_caps":[["T
1000
1",20],["T2",20],["T3",20],["T4",20]]}}},"project_type":{"id":"T4","name":"\u041c\u0430\u043b\u044b\u0439 \u2014 \u043f\u0440\u043e\u0435\u043a\u0442\u043d\u044b\u0439 \u0448\u0430\u0431\u043b\u043e\u
1000
043d","category":"shrub","radius_m":0.4,"color":"#9A7552","plant_id":null,"symbol":"circle","properties":{},"template":{"schema_version":1,"limits":{"crown_radius_m":0.4},"requirements":{"plant.draine
1000
d_soil_required":true,"plant.loose_soil_required":true,"plant.unsalted_soil_required":true,"plant.uncompacted_soil_required":true,"plant.stagnant_water_exclusion":true},"minimum_distances_m":{"project
1000
.gas":3.0,"R.spacing":3.0},"moisture_range":[0.3,0.7],"root_protection":"ANY","filters":[],"state_label":"\u0423\u0441\u043b\u043e\u0432\u043d\u044b\u0439 \u0442\u0435\u0441\u0442\u043e\u0432\u044b\u0
1000
439 \u0433\u0430\u0431\u0430\u0440\u0438\u0442; \u043d\u0435 \u0440\u0430\u0437\u043c\u0435\u0440\u044b \u0440\u0435\u0430\u043b\u044c\u043d\u043e\u0433\u043e \u0432\u0438\u0434\u0430 \u0438\u043b\u04
1000
38 \u0441\u043e\u0440\u0442\u0430"}},"geometry_role":"SYMBOL_CENTER","validation":"RECHECK_REQUIRED","schema_version":2}
  0
CIRCLE
  5
A1
330
17
100
AcDbEntity
  8
GC_RESULT_11EE5E9AF3
420
10122578
100
AcDbCircle
 10
11.5
 20
12.5
 30
0.0
 40
0.4
1001
GREENCAD_EDIT_V1
1000
{"role":"placement","placement":{"id":"cc3e00c2738d51d4aa4008d761400187","type_id":"T4","x":11.5,"y":12.5,"plant_id":null,"root_protection":false,"locked":false,"label":"T4 \u00b7 \u0430\u0432\u0442\u
1000
043e 19","properties":{"generation":{"job_id":"8c5634d6b6527b7dafb3eea91a7846ab1a5af75b60634ba903af72bad8ea2005","version":"1.0","zone_id":"green_01","grid_index":769,"step_m":1.0,"order_and_caps":[["
1000
T1",20],["T2",20],["T3",20],["T4",20]]}}},"project_type":{"id":"T4","name":"\u041c\u0430\u043b\u044b\u0439 \u2014 \u043f\u0440\u043e\u0435\u043a\u0442\u043d\u044b\u0439 \u0448\u0430\u0431\u043b\u043e\
1000
u043d","category":"shrub","radius_m":0.4,"color":"#9A7552","plant_id":null,"symbol":"circle","properties":{},"template":{"schema_version":1,"limits":{"crown_radius_m":0.4},"requirements":{"plant.drain
1000
ed_soil_required":true,"plant.loose_soil_required":true,"plant.unsalted_soil_required":true,"plant.uncompacted_soil_required":true,"plant.stagnant_water_exclusion":true},"minimum_distances_m":{"projec
1000
t.gas":3.0,"R.spacing":3.0},"moisture_range":[0.3,0.7],"root_protection":"ANY","filters":[],"state_label":"\u0423\u0441\u043b\u043e\u0432\u043d\u044b\u0439 \u0442\u0435\u0441\u0442\u043e\u0432\u044b\u
1000
0439 \u0433\u0430\u0431\u0430\u0440\u0438\u0442; \u043d\u0435 \u0440\u0430\u0437\u043c\u0435\u0440\u044b \u0440\u0435\u0430\u043b\u044c\u043d\u043e\u0433\u043e \u0432\u0438\u0434\u0430 \u0438\u043b\u0
1000
438 \u0441\u043e\u0440\u0442\u0430"}},"geometry_role":"SYMBOL_CENTER","validation":"RECHECK_REQUIRED","schema_version":2}
  0
CIRCLE
  5
A2
330
17
100
AcDbEntity
  8
GC_RESULT_11EE5E9AF3
420
10122578
100
AcDbCircle
 10
14.5
 20
12.5
 30
0.0
 40
0.4
1001
GREENCAD_EDIT_V1
1000
{"role":"placement","placement":{"id":"226e0074bb3a558e95497b59822d663a","type_id":"T4","x":14.5,"y":12.5,"plant_id":null,"root_protection":false,"locked":false,"label":"T4 \u00b7 \u0430\u0432\u0442\u
1000
043e 20","properties":{"generation":{"job_id":"8c5634d6b6527b7dafb3eea91a7846ab1a5af75b60634ba903af72bad8ea2005","version":"1.0","zone_id":"green_01","grid_index":772,"step_m":1.0,"order_and_caps":[["
1000
T1",20],["T2",20],["T3",20],["T4",20]]}}},"project_type":{"id":"T4","name":"\u041c\u0430\u043b\u044b\u0439 \u2014 \u043f\u0440\u043e\u0435\u043a\u0442\u043d\u044b\u0439 \u0448\u0430\u0431\u043b\u043e\
1000
u043d","category":"shrub","radius_m":0.4,"color":"#9A7552","plant_id":null,"symbol":"circle","properties":{},"template":{"schema_version":1,"limits":{"crown_radius_m":0.4},"requirements":{"plant.drain
1000
ed_soil_required":true,"plant.loose_soil_required":true,"plant.unsalted_soil_required":true,"plant.uncompacted_soil_required":true,"plant.stagnant_water_exclusion":true},"minimum_distances_m":{"projec
1000
t.gas":3.0,"R.spacing":3.0},"moisture_range":[0.3,0.7],"root_protection":"ANY","filters":[],"state_label":"\u0423\u0441\u043b\u043e\u0432\u043d\u044b\u0439 \u0442\u0435\u0441\u0442\u043e\u0432\u044b\u
1000
0439 \u0433\u0430\u0431\u0430\u0440\u0438\u0442; \u043d\u0435 \u0440\u0430\u0437\u043c\u0435\u0440\u044b \u0440\u0435\u0430\u043b\u044c\u043d\u043e\u0433\u043e \u0432\u0438\u0434\u0430 \u0438\u043b\u0
1000
438 \u0441\u043e\u0440\u0442\u0430"}},"geometry_role":"SYMBOL_CENTER","validation":"RECHECK_REQUIRED","schema_version":2}
  0
ENDSEC
  0
SECTION
  2
OBJECTS
  0
DICTIONARY
  5
A
330
0
100
AcDbDictionary
281
1
  3
ACAD_COLOR
350
B
  3
ACAD_GROUP
350
C
  3
ACAD_LAYOUT
350
D
  3
ACAD_MATERIAL
350
E
  3
ACAD_MLEADERSTYLE
350
F
  3
ACAD_MLINESTYLE
350
10
  3
ACAD_PLOTSETTINGS
350
11
  3
ACAD_PLOTSTYLENAME
350
12
  3
ACAD_SCALELIST
350
14
  3
ACAD_TABLESTYLE
350
15
  3
ACAD_VISUALSTYLE
350
16
  3
EZDXF_META
350
2D
  3
GREENCAD_EDITOR_PROFILE_V1
350
A3
  0
DICTIONARY
  5
B
330
A
100
AcDbDictionary
281
1
  0
DICTIONARY
  5
C
330
A
100
AcDbDictionary
281
1
  0
DICTIONARY
  5
D
330
A
100
AcDbDictionary
281
1
  3
Model
350
1A
  3
Layout1
350
1E
  0
DICTIONARY
  5
E
330
A
100
AcDbDictionary
281
1
  3
ByBlock
350
1F
  3
ByLayer
350
20
  3
Global
350
21
  0
DICTIONARY
  5
F
330
A
100
AcDbDictionary
281
1
  3
Standard
350
2C
  0
DICTIONARY
  5
10
330
A
100
AcDbDictionary
281
1
  3
Standard
350
22
  0
DICTIONARY
  5
11
330
A
100
AcDbDictionary
281
1
  0
ACDBDICTIONARYWDFLT
  5
12
330
A
100
AcDbDictionary
281
1
  3
Normal
350
13
100
AcDbDictionaryWithDefault
340
13
  0
ACDBPLACEHOLDER
  5
13
330
12
  0
DICTIONARY
  5
14
330
A
100
AcDbDictionary
281
1
  0
DICTIONARY
  5
15
330
A
100
AcDbDictionary
281
1
  0
DICTIONARY
  5
16
330
A
100
AcDbDictionary
281
1
  0
LAYOUT
  5
1A
330
D
100
AcDbPlotSettings
  1

  4
A3
  6

 40
7.5
 41
20.0
 42
7.5
 43
20.0
 44
420.0
 45
297.0
 46
0.0
 47
0.0
 48
0.0
 49
0.0
140
0.0
141
0.0
142
1.0
143
1.0
 70
1024
 72
1
 73
0
 74
5
  7

 75
16
 76
0
 77
2
 78
300
147
1.0
148
0.0
149
0.0
100
AcDbLayout
  1
Model
 70
1
 71
0
 10
0.0
 20
0.0
 11
420.0
 21
297.0
 12
0.0
 22
0.0
 32
0.0
 14
1e+20
 24
1e+20
 34
1e+20
 15
-1e+20
 25
-1e+20
 35
-1e+20
146
0.0
 13
0.0
 23
0.0
 33
0.0
 16
1.0
 26
0.0
 36
0.0
 17
0.0
 27
1.0
 37
0.0
 76
1
330
17
  0
LAYOUT
  5
1E
330
D
100
AcDbPlotSettings
  1

  4
A3
  6

 40
7.5
 41
20.0
 42
7.5
 43
20.0
 44
420.0
 45
297.0
 46
0.0
 47
0.0
 48
0.0
 49
0.0
140
0.0
141
0.0
142
1.0
143
1.0
 70
0
 72
1
 73
0
 74
5
  7

 75
16
 76
0
 77
2
 78
300
147
1.0
148
0.0
149
0.0
100
AcDbLayout
  1
Layout1
 70
1
 71
1
 10
0.0
 20
0.0
 11
420.0
 21
297.0
 12
0.0
 22
0.0
 32
0.0
 14
1e+20
 24
1e+20
 34
1e+20
 15
-1e+20
 25
-1e+20
 35
-1e+20
146
0.0
 13
0.0
 23
0.0
 33
0.0
 16
1.0
 26
0.0
 36
0.0
 17
0.0
 27
1.0
 37
0.0
 76
1
330
1B
  0
MATERIAL
  5
1F
102
{ACAD_REACTORS
330
E
102
}
330
E
100
AcDbMaterial
  1
ByBlock
  2

 70
0
 40
1.0
 71
1
 41
1.0
 91
-1023410177
 42
1.0
 72
1
  3

 73
1
 74
1
 75
1
 44
0.5
 73
0
 45
1.0
 46
1.0
 77
1
  4

 78
1
 79
1
170
1
 48
1.0
171
1
  6

172
1
173
1
174
1
140
1.0
141
1.0
175
1
  7

176
1
177
1
178
1
143
1.0
179
1
  8

270
1
271
1
272
1
145
1.0
146
1.0
273
1
  9

274
1
275
1
276
1
 42
1.0
 72
1
  3

 73
1
 74
1
 75
1
 94
63
  0
MATERIAL
  5
20
102
{ACAD_REACTORS
330
E
102
}
330
E
100
AcDbMaterial
  1
ByLayer
  2

 70
0
 40
1.0
 71
1
 41
1.0
 91
-1023410177
 42
1.0
 72
1
  3

 73
1
 74
1
 75
1
 44
0.5
 73
0
 45
1.0
 46
1.0
 77
1
  4

 78
1
 79
1
170
1
 48
1.0
171
1
  6

172
1
173
1
174
1
140
1.0
141
1.0
175
1
  7

176
1
177
1
178
1
143
1.0
179
1
  8

270
1
271
1
272
1
145
1.0
146
1.0
273
1
  9

274
1
275
1
276
1
 42
1.0
 72
1
  3

 73
1
 74
1
 75
1
 94
63
  0
MATERIAL
  5
21
102
{ACAD_REACTORS
330
E
102
}
330
E
100
AcDbMaterial
  1
Global
  2

 70
0
 40
1.0
 71
1
 41
1.0
 91
-1023410177
 42
1.0
 72
1
  3

 73
1
 74
1
 75
1
 44
0.5
 73
0
 45
1.0
 46
1.0
 77
1
  4

 78
1
 79
1
170
1
 48
1.0
171
1
  6

172
1
173
1
174
1
140
1.0
141
1.0
175
1
  7

176
1
177
1
178
1
143
1.0
179
1
  8

270
1
271
1
272
1
145
1.0
146
1.0
273
1
  9

274
1
275
1
276
1
 42
1.0
 72
1
  3

 73
1
 74
1
 75
1
 94
63
  0
MLINESTYLE
  5
22
102
{ACAD_REACTORS
330
10
102
}
330
10
100
AcDbMlineStyle
  2
Standard
 70
0
  3

 62
256
 51
90.0
 52
90.0
 71
2
 49
0.5
 62
256
  6
BYLAYER
 49
-0.5
 62
256
  6
BYLAYER
  0
MLEADERSTYLE
  5
2C
102
{ACAD_REACTORS
330
F
102
}
330
F
100
AcDbMLeaderStyle
179
2
170
2
171
1
172
0
 90
2
 40
0.0
 41
0.0
173
1
 91
-1056964608
 92
-2
290
1
 42
2.0
291
1
 43
8.0
  3
Standard
 44
4.0
300

342
29
174
1
175
1
176
0
178
1
 93
-1056964608
 45
4.0
292
0
297
0
 46
4.0
 94
-1056964608
 47
1.0
 49
1.0
140
1.0
294
1
141
0.0
177
0
142
1.0
295
0
296
0
143
3.75
271
0
272
9
273
9
  0
DICTIONARY
  5
2D
330
A
100
AcDbDictionary
280
1
281
1
  3
CREATED_BY_EZDXF
350
2E
  3
WRITTEN_BY_EZDXF
350
48
  0
DICTIONARYVAR
  5
2E
330
2D
100
DictionaryVariables
280
0
  1
1.4.4 @ 2026-09-29T08:07:29.780037+00:00
  0
DICTIONARYVAR
  5
48
330
2D
100
DictionaryVariables
280
0
  1
1.4.4 @ 2026-09-29T19:35:07.662456+00:00
  0
XRECORD
  5
A3
330
A
100
AcDbXrecord
280
1
  1
{"schema_version":2,"metres_per_unit":1.0,"layer_mapping":{"GC_SITE_BOUNDARY":{"type_id":"context.project_domain","geometry_role":"BOUNDARY"},"GC_GREEN_ZONE":{"type_id":"context.green_zone","geometry_
  1
role":"AREA"},"GC_ROAD_AREA":{"type_id":"traffic.road","geometry_role":"AREA"},"GC_CURB_EDGE":{"type_id":"traffic.curb","geometry_role":"EDGE"},"GC_SIDEWALK_AREA":{"type_id":"traffic.sidewalk","geomet
  1
ry_role":"AREA"},"GC_GAS_AXIS":{"type_id":"net.gas","geometry_role":"AXIS"},"GC_BUILDING":{"type_id":"base.building","geometry_role":"OUTER_CONTOUR"},"GC_EXISTING_TREE":{"type_id":"dendro.tree","geome
  1
try_role":"CENTER"},"GC_EXCLUSION":{"type_id":"context.exclusion","geometry_role":"AREA"}},"project_types":[{"id":"T1","name":"\u041a\u0440\u0443\u043f\u043d\u044b\u0439 \u2014 \u043f\u0440\u043e\u043
  1
5\u043a\u0442\u043d\u044b\u0439 \u0448\u0430\u0431\u043b\u043e\u043d","category":"tree","radius_m":1.5,"color":"#286443","plant_id":null,"symbol":"circle","properties":{},"template":{"schema_version":
  1
1,"limits":{"crown_radius_m":1.5},"requirements":{"plant.drained_soil_required":true,"plant.loose_soil_required":true,"plant.unsalted_soil_required":true,"plant.uncompacted_soil_required":true,"plant.
  1
stagnant_water_exclusion":true},"minimum_distances_m":{"project.gas":3.0,"R.spacing":3.0},"moisture_range":[0.3,0.7],"root_protection":"FORBIDDEN","filters":[],"state_label":"\u0423\u0441\u043b\u043e\
  1
u0432\u043d\u044b\u0439 \u0442\u0435\u0441\u0442\u043e\u0432\u044b\u0439 \u0433\u0430\u0431\u0430\u0440\u0438\u0442; \u043d\u0435 \u0440\u0430\u0437\u043c\u0435\u0440\u044b \u0440\u0435\u0430\u043b\u0
  1
44c\u043d\u043e\u0433\u043e \u0432\u0438\u0434\u0430 \u0438\u043b\u0438 \u0441\u043e\u0440\u0442\u0430"}},{"id":"T2","name":"\u0421\u0440\u0435\u0434\u043d\u0438\u0439 \u0410 \u2014 \u043f\u0440\u043e
  1
\u0435\u043a\u0442\u043d\u044b\u0439 \u0448\u0430\u0431\u043b\u043e\u043d","category":"tree","radius_m":1.0,"color":"#407F63","plant_id":null,"symbol":"circle","properties":{},"template":{"schema_vers
  1
ion":1,"limits":{"crown_radius_m":1.0},"requirements":{"plant.drained_soil_required":true,"plant.loose_soil_required":true,"plant.unsalted_soil_required":true,"plant.uncompacted_soil_required":true,"p
  1
lant.stagnant_water_exclusion":true},"minimum_distances_m":{"project.gas":4.0,"R.spacing":3.0},"moisture_range":[0.3,0.7],"root_protection":"ANY","filters":[],"state_label":"\u0423\u0441\u043b\u043e\u
  1
0432\u043d\u044b\u0439 \u0442\u0435\u0441\u0442\u043e\u0432\u044b\u0439 \u0433\u0430\u0431\u0430\u0440\u0438\u0442; \u043d\u0435 \u0440\u0430\u0437\u043c\u0435\u0440\u044b \u0440\u0435\u0430\u043b\u04
  1
4c\u043d\u043e\u0433\u043e \u0432\u0438\u0434\u0430 \u0438\u043b\u0438 \u0441\u043e\u0440\u0442\u0430"}},{"id":"T3","name":"\u0421\u0440\u0435\u0434\u043d\u0438\u0439 \u0411 \u2014 \u043f\u0440\u043e\
  1
u0435\u043a\u0442\u043d\u044b\u0439 \u0448\u0430\u0431\u043b\u043e\u043d","category":"tree","radius_m":0.8,"color":"#5C7891","plant_id":null,"symbol":"circle","properties":{},"template":{"schema_versi
  1
on":1,"limits":{"crown_radius_m":0.8},"requirements":{"plant.drained_soil_required":true,"plant.loose_soil_required":true,"plant.unsalted_soil_required":true,"plant.uncompacted_soil_required":true,"pl
  1
ant.stagnant_water_exclusion":true},"minimum_distances_m":{"project.gas":3.0,"R.spacing":3.0},"moisture_range":[0.2,0.6],"root_protection":"REQUIRED","filters":[],"state_label":"\u0423\u0441\u043b\u04
  1
3e\u0432\u043d\u044b\u0439 \u0442\u0435\u0441\u0442\u043e\u0432\u044b\u0439 \u0433\u0430\u0431\u0430\u0440\u0438\u0442; \u043d\u0435 \u0440\u0430\u0437\u043c\u0435\u0440\u044b \u0440\u0435\u0430\u043b
  1
\u044c\u043d\u043e\u0433\u043e \u0432\u0438\u0434\u0430 \u0438\u043b\u0438 \u0441\u043e\u0440\u0442\u0430"}},{"id":"T4","name":"\u041c\u0430\u043b\u044b\u0439 \u2014 \u043f\u0440\u043e\u0435\u043a\u04
  1
42\u043d\u044b\u0439 \u0448\u0430\u0431\u043b\u043e\u043d","category":"shrub","radius_m":0.4,"color":"#9A7552","plant_id":null,"symbol":"circle","properties":{},"template":{"schema_version":1,"limits"
  1
:{"crown_radius_m":0.4},"requirements":{"plant.drained_soil_required":true,"plant.loose_soil_required":true,"plant.unsalted_soil_required":true,"plant.uncompacted_soil_required":true,"plant.stagnant_w
  1
ater_exclusion":true},"minimum_distances_m":{"project.gas":3.0,"R.spacing":3.0},"moisture_range":[0.3,0.7],"root_protection":"ANY","filters":[],"state_label":"\u0423\u0441\u043b\u043e\u0432\u043d\u044
  1
b\u0439 \u0442\u0435\u0441\u0442\u043e\u0432\u044b\u0439 \u0433\u0430\u0431\u0430\u0440\u0438\u0442; \u043d\u0435 \u0440\u0430\u0437\u043c\u0435\u0440\u044b \u0440\u0435\u0430\u043b\u044c\u043d\u043e\
  1
u0433\u043e \u0432\u0438\u0434\u0430 \u0438\u043b\u0438 \u0441\u043e\u0440\u0442\u0430"}}]}
  0
ENDSEC
  0
EOF
